<svg xmlns="http://www.w3.org/2000/svg" viewBox="0 0 67.12 68.95"><defs><style>.cls-1,.cls-5{fill:#0094f9;}.cls-1,.cls-4{stroke:#0094f9;}.cls-1{stroke-miterlimit:1;}.cls-2,.cls-3,.cls-4{fill:#fff;}.cls-3,.cls-5{stroke:#fff;}.cls-3,.cls-4,.cls-5{stroke-linejoin:round;stroke-width:2px;}</style></defs><title>Element 3</title><g id="Ebene_2" data-name="Ebene 2"><g id="Ebene_1-2" data-name="Ebene 1"><g id="_11-Knife" data-name=" 11-Knife"><rect class="cls-1" x="52.91" y="50.56" width="5.94" height="15.6" transform="translate(-24.9 56.61) rotate(-45)"/><polygon class="cls-1" points="42.49 48.12 48.27 42.34 51.42 45.49 50.37 46.54 44.07 52.84 43.02 53.89 39.87 50.74 42.49 48.12"/><rect class="cls-1" x="59.74" y="63.33" width="5.94" height="3.71" transform="translate(-27.72 63.44) rotate(-45)"/><polygon class="cls-1" points="53.52 49.69 52.47 50.74 48.27 54.94 47.22 55.99 44.07 52.84 50.37 46.54 53.52 49.69"/><rect class="cls-1" x="53.35" y="51.61" width="2.97" height="15.6" transform="translate(-25.95 56.17) rotate(-45)"/><rect class="cls-1" x="60.18" y="64.38" width="2.97" height="3.71" transform="translate(-28.77 63) rotate(-45)"/><polygon class="cls-1" points="44.07 52.84 47.22 55.99 48.27 54.94 49.32 53.89 46.17 50.74 44.07 52.84"/><polygon class="cls-1" points="24.63 48.12 27.26 50.74 24.11 53.89 23.06 52.84 16.76 46.54 15.71 45.49 18.86 42.34 24.63 48.12"/><rect class="cls-1" x="3.44" y="55.39" width="15.6" height="5.94" transform="translate(-37.97 25.04) rotate(-45)"/><rect class="cls-1" x="2.56" y="62.21" width="3.71" height="5.94" transform="translate(-44.8 22.21) rotate(-45)"/><polygon class="cls-1" points="23.06 52.84 19.91 55.99 18.86 54.94 14.65 50.74 13.61 49.69 16.76 46.54 23.06 52.84"/><rect class="cls-1" x="4.49" y="57.92" width="15.6" height="2.97" transform="translate(-38.41 26.09) rotate(-45)"/><rect class="cls-1" x="3.61" y="64.75" width="3.71" height="2.97" transform="translate(-45.23 23.26) rotate(-45)"/><polygon class="cls-1" points="20.96 50.74 17.81 53.89 18.86 54.94 19.91 55.99 23.06 52.84 20.96 50.74"/><polygon class="cls-1" points="57.72 15.03 57.72 20.28 41.97 36.03 39.34 33.41 57.72 15.03"/><polygon class="cls-1" points="57.72 3.47 57.72 15.03 39.34 33.41 33.56 27.63 57.72 3.47"/><polygon class="cls-1" points="39.34 33.41 41.97 36.03 48.27 42.34 42.49 48.12 9.4 15.03 9.4 3.47 33.56 27.63 39.34 33.41"/><polygon class="cls-1" points="41.97 36.03 39.34 33.41 33.56 27.63 9.4 3.47 9.4 8.72 30.94 30.26 36.71 36.03 39.34 38.66 45.64 44.96 48.27 42.34 41.97 36.03"/><path class="cls-1" d="M30.94,41.81,25.16,36l-6.3-6.3a2.11,2.11,0,0,1-2.1,2.1H15.71v2.63a1.58,1.58,0,1,1-3.15,0v-11L9.4,20.28V15L42.49,48.11l-2.63,2.63-6.3-6.3Z"/><polygon class="cls-1" points="12.55 21.33 9.4 18.18 9.4 20.28 12.55 23.43 12.55 21.33"/><path class="cls-1" d="M14.13,33.93a1.58,1.58,0,0,1-1.58-1.58v2.1a1.58,1.58,0,1,0,3.15,0v-2.1A1.58,1.58,0,0,1,14.13,33.93Z"/><path class="cls-1" d="M39.86,48.64l-6.3-6.3-2.63-2.63-5.78-5.78-6.3-6.3a2.11,2.11,0,0,1-2.1,2.1H15.71v2.1h1.05a2.11,2.11,0,0,0,2.1-2.1l6.3,6.3,5.78,5.78,2.63,2.63,6.3,6.3,2.63-2.63-1.05-1.05Z"/><rect class="cls-1" x="24.64" y="44.42" width="8.91" height="3.71" transform="translate(-24.2 34.13) rotate(-45)"/><rect class="cls-1" x="20.44" y="37.99" width="8.91" height="8.17" transform="translate(-22.46 29.93) rotate(-45)"/><rect class="cls-1" x="30.35" y="42.06" width="2.23" height="3.71" transform="translate(-21.84 35.11) rotate(-45)"/><rect class="cls-1" x="26.15" y="35.63" width="2.23" height="8.17" transform="translate(-20.1 30.91) rotate(-45)"/><polyline class="cls-1" points="44.07 52.84 47.22 55.99 48.27 54.94 52.47 50.74 53.52 49.69 50.37 46.54"/><polyline class="cls-1" points="48.27 54.94 59.3 65.97 61.92 68.6 66.12 64.4 63.5 61.77 52.47 50.74"/><polyline class="cls-1" points="48.27 42.34 42.49 48.12 39.87 50.74"/><polyline class="cls-1" points="33.56 44.44 27.26 50.74 24.11 53.89 23.06 52.84 16.76 46.54 15.71 45.49 18.86 42.34 25.16 36.03"/><polyline class="cls-1" points="33.56 27.63 57.72 3.47 57.72 15.03 57.72 20.28 41.97 36.03"/><polyline class="cls-1" points="23.06 52.84 19.91 55.99 18.86 54.94 14.65 50.74 13.61 49.69 16.76 46.54"/><polyline class="cls-1" points="18.86 54.94 7.83 65.97 5.2 68.6 1 64.4 3.63 61.77 14.65 50.74"/><polyline class="cls-1" points="18.86 42.34 24.63 48.12 27.26 50.74"/><path class="cls-1" d="M33.56,27.63,9.4,3.47V20.28l3.15,3.15v11a1.58,1.58,0,1,0,3.15,0V31.83h1.05a2.11,2.11,0,0,0,2.1-2.1l6.3,6.3,5.78,5.78,2.63,2.63,6.3,6.3L43,53.89l1.05-1.05,6.3-6.3,1.05-1.05-3.15-3.15L42,36l-2.63-2.63Z"/><polyline class="cls-1" points="9.4 15.03 42.49 48.12 43.02 48.64"/><line class="cls-1" x1="15.71" y1="31.83" x2="15.71" y2="27.63"/><polyline class="cls-1" points="31.46 41.29 30.94 41.81 24.63 48.12 24.11 48.64"/><polyline class="cls-1" points="57.72 15.03 39.34 33.41 38.81 33.94"/><polyline class="cls-1" points="3.1 61.24 3.63 61.77 7.83 65.97 8.35 66.5"/><polyline class="cls-1" points="64.02 61.24 63.5 61.77 59.3 65.97 58.77 66.5"/></g><g id="_11-Knife-2" data-name=" 11-Knife"><rect class="cls-2" x="52.91" y="48.08" width="5.94" height="15.6" transform="translate(-23.15 55.88) rotate(-45)"/><polygon class="cls-2" points="42.49 45.64 48.27 39.87 51.42 43.02 50.37 44.07 44.07 50.37 43.02 51.42 39.87 48.27 42.49 45.64"/><rect class="cls-2" x="59.74" y="60.85" width="5.94" height="3.71" transform="translate(-25.98 62.71) rotate(-45)"/><polygon class="cls-2" points="53.52 47.22 52.47 48.27 48.27 52.47 47.22 53.52 44.07 50.37 50.37 44.07 53.52 47.22"/><rect class="cls-2" x="53.35" y="49.13" width="2.97" height="15.6" transform="translate(-24.2 55.45) rotate(-45)"/><rect class="cls-2" x="60.18" y="61.9" width="2.97" height="3.71" transform="translate(-27.03 62.28) rotate(-45)"/><polygon class="cls-2" points="44.07 50.37 47.22 53.52 48.27 52.47 49.32 51.42 46.17 48.27 44.07 50.37"/><polygon class="cls-2" points="24.63 45.64 27.26 48.27 24.11 51.42 23.06 50.37 16.76 44.07 15.71 43.02 18.86 39.87 24.63 45.64"/><rect class="cls-2" x="3.44" y="52.91" width="15.6" height="5.94" transform="translate(-36.22 24.32) rotate(-45)"/><rect class="cls-2" x="2.56" y="59.74" width="3.71" height="5.94" transform="translate(-43.05 21.49) rotate(-45)"/><polygon class="cls-2" points="23.06 50.37 19.91 53.52 18.86 52.47 14.65 48.27 13.61 47.22 16.76 44.07 23.06 50.37"/><rect class="cls-2" x="4.49" y="55.45" width="15.6" height="2.97" transform="translate(-36.66 25.37) rotate(-45)"/><rect class="cls-2" x="3.61" y="62.28" width="3.71" height="2.97" transform="translate(-43.49 22.54) rotate(-45)"/><polygon class="cls-2" points="20.96 48.27 17.81 51.42 18.86 52.47 19.91 53.52 23.06 50.37 20.96 48.27"/><polygon class="cls-2" points="57.72 12.55 57.72 17.81 41.97 33.56 39.34 30.94 57.72 12.55"/><polygon class="cls-2" points="57.72 1 57.72 12.55 39.34 30.94 33.56 25.16 57.72 1"/><polygon class="cls-2" points="39.34 30.94 41.97 33.56 48.27 39.87 42.49 45.64 9.4 12.55 9.4 1 33.56 25.16 39.34 30.94"/><polygon class="cls-2" points="41.97 33.56 39.34 30.94 33.56 25.16 9.4 1 9.4 6.25 30.94 27.79 36.71 33.56 39.34 36.19 45.64 42.49 48.27 39.87 41.97 33.56"/><path class="cls-2" d="M30.94,39.34l-5.78-5.78-6.3-6.3a2.11,2.11,0,0,1-2.1,2.1H15.71V32a1.58,1.58,0,0,1-3.15,0V21L9.4,17.81V12.55L42.49,45.64l-2.63,2.63L33.56,42Z"/><polygon class="cls-2" points="12.55 18.86 9.4 15.71 9.4 17.81 12.55 20.96 12.55 18.86"/><path class="cls-2" d="M14.13,31.46a1.58,1.58,0,0,1-1.58-1.58V32a1.58,1.58,0,0,0,3.15,0v-2.1A1.58,1.58,0,0,1,14.13,31.46Z"/><path class="cls-2" d="M39.86,46.17l-6.3-6.3-2.63-2.63-5.78-5.78-6.3-6.3a2.11,2.11,0,0,1-2.1,2.1H15.71v2.1h1.05a2.11,2.11,0,0,0,2.1-2.1l6.3,6.3,5.78,5.78L33.56,42l6.3,6.3,2.63-2.63-1.05-1.05Z"/><rect class="cls-2" x="24.64" y="41.95" width="8.91" height="3.71" transform="translate(-22.45 33.41) rotate(-45)"/><rect class="cls-2" x="20.44" y="35.52" width="8.91" height="8.17" transform="translate(-20.71 29.2) rotate(-45)"/><rect class="cls-2" x="30.35" y="39.58" width="2.23" height="3.71" transform="translate(-20.09 34.38) rotate(-45)"/><rect class="cls-2" x="26.15" y="33.15" width="2.23" height="8.17" transform="translate(-18.35 30.18) rotate(-45)"/><polyline class="cls-3" points="44.07 50.37 47.22 53.52 48.27 52.47 52.47 48.27 53.52 47.22 50.37 44.07"/><polyline class="cls-3" points="48.27 52.47 59.3 63.5 61.92 66.12 66.12 61.92 63.5 59.3 52.47 48.27"/><polyline class="cls-3" points="48.27 39.87 42.49 45.64 39.87 48.27"/><polyline class="cls-3" points="33.56 41.97 27.26 48.27 24.11 51.42 23.06 50.37 16.76 44.07 15.71 43.02 18.86 39.87 25.16 33.56"/><polyline class="cls-4" points="33.56 25.16 57.72 1 57.72 12.55 57.72 17.81 41.97 33.56"/><polyline class="cls-3" points="23.06 50.37 19.91 53.52 18.86 52.47 14.65 48.27 13.61 47.22 16.76 44.07"/><polyline class="cls-3" points="18.86 52.47 7.83 63.5 5.2 66.12 1 61.92 3.63 59.3 14.65 48.27"/><polyline class="cls-3" points="18.86 39.87 24.63 45.64 27.26 48.27"/><path class="cls-5" d="M33.56,25.16,9.4,1V17.81L12.55,21V32a1.58,1.58,0,0,0,3.15,0V29.36h1.05a2.11,2.11,0,0,0,2.1-2.1l6.3,6.3,5.78,5.78L33.56,42l6.3,6.3L43,51.42l1.05-1.05,6.3-6.3L51.42,43l-3.15-3.15L42,33.56l-2.63-2.63Z"/><polyline class="cls-3" points="9.4 12.55 42.49 45.64 43.02 46.17"/><line class="cls-3" x1="15.71" y1="29.36" x2="15.71" y2="25.16"/><polyline class="cls-3" points="31.46 38.81 30.94 39.34 24.63 45.64 24.11 46.17"/><polyline class="cls-3" points="57.72 12.55 39.34 30.94 38.81 31.46"/><polyline class="cls-3" points="3.1 58.77 3.63 59.3 7.83 63.5 8.35 64.02"/><polyline class="cls-3" points="64.02 58.77 63.5 59.3 59.3 63.5 58.77 64.02"/></g></g></g></svg>