<svg xmlns="http://www.w3.org/2000/svg" viewBox="0 0 288.91 70.59"><defs><style>.cls-1,.cls-3,.cls-6{fill:#0094f9;}.cls-2,.cls-4,.cls-5{fill:#fff;}.cls-3,.cls-5{stroke:#0094f9;}.cls-3{stroke-miterlimit:1;}.cls-4,.cls-6{stroke:#fff;}.cls-4,.cls-5,.cls-6{stroke-linejoin:round;stroke-width:2px;}</style></defs><title>Element 2</title><g id="Ebene_2" data-name="Ebene 2"><g id="Ebene_1-2" data-name="Ebene 1"><path class="cls-1" d="M79,33.26a13.36,13.36,0,0,1-2.58.24,18.36,18.36,0,0,1-2.69-.2,10.72,10.72,0,0,1-2.42-.63q-.09-1-.15-2.47t-.09-3.39q0-1.88,0-4t0-4.39q0-2.23,0-4.46t0-4.17q0-1.94.09-3.52T71.3,3.7a4.77,4.77,0,0,1,1.55-.48A17.15,17.15,0,0,1,75.1,3h4.61L84.8,3l4.37.07q1.92,0,2.45.09A1.51,1.51,0,0,1,92.71,4a6.2,6.2,0,0,1,.66,1.88,11.38,11.38,0,0,1,.2,2.38,12,12,0,0,1-.26,2.36,5.89,5.89,0,0,1-.7,1.84,1.31,1.31,0,0,1-1.11.74q-1.83,0-4.61.07l-5.75,0v1.31q.87,0,1.86,0h2q.44.22.68,1.35a14.2,14.2,0,0,1,.28,2.45,15.16,15.16,0,0,1-.11,2.47,2.26,2.26,0,0,1-.5,1.42l-2.18,0-2.1,0V32.53A6.63,6.63,0,0,1,79,33.26Z"/><path class="cls-1" d="M122.24,25.54q.31.26,0,1a8.15,8.15,0,0,1-.85,1.66,18.44,18.44,0,0,1-1.42,1.9,19,19,0,0,1-1.64,1.73A9.27,9.27,0,0,1,116.87,33q-.7.42-1,.2-1-.79-2.21-1.92t-2.42-2.36l-2.38-2.4q-1.16-1.18-2.08-2.05.09,1.88.07,4.13t.07,4.08a5.33,5.33,0,0,1-1.9.55,24.33,24.33,0,0,1-2.82.24,19.52,19.52,0,0,1-2.82-.11,6.17,6.17,0,0,1-1.94-.46q-.09-.87-.13-2.82t-.09-4.54q0-2.6-.07-5.57t0-5.88V8.57q0-2.6,0-4.43a3.59,3.59,0,0,1,2.21-1,45.4,45.4,0,0,1,4.61-.37,45.23,45.23,0,0,1,6.49.11A22.32,22.32,0,0,1,115.71,4a10.55,10.55,0,0,1,3.78,2.21,6.76,6.76,0,0,1,2,3.5,7.61,7.61,0,0,1,0,3.19,8.66,8.66,0,0,1-1.16,2.84,9.29,9.29,0,0,1-2.1,2.32,10.35,10.35,0,0,1-2.75,1.57q.61.48,1.62,1.38l2,1.84q1,.94,1.9,1.7T122.24,25.54ZM111.1,14"/><path class="cls-1" d="M146,23.23a1.31,1.31,0,0,1,1.11.74,5.89,5.89,0,0,1,.7,1.83,11.94,11.94,0,0,1,.26,2.36,11.05,11.05,0,0,1-.2,2.36,6.15,6.15,0,0,1-.66,1.86,1.51,1.51,0,0,1-1.09.85,23,23,0,0,1-2.45.13q-1.92,0-4.37.07l-5.09,0h-4.61v0a12,12,0,0,1-2.25-.2,6.27,6.27,0,0,1-1.55-.46q-.09-1-.15-2.53t-.09-3.54q0-2,0-4.19t0-4.46q0-2.23,0-4.46t0-4.17q0-1.94.09-3.52t.15-2.53a4.78,4.78,0,0,1,1.55-.48,17.22,17.22,0,0,1,2.25-.22h4.61l5.09,0,4.37.07q1.92,0,2.45.09a1.51,1.51,0,0,1,1.09.85,6.17,6.17,0,0,1,.66,1.88,11.34,11.34,0,0,1,.2,2.38,11.92,11.92,0,0,1-.26,2.36,5.88,5.88,0,0,1-.7,1.84,1.31,1.31,0,0,1-1.11.74q-1.83,0-4.61.07l-5.75,0v1.31q.87,0,1.86,0h2q.44.22.68,1.35a14.2,14.2,0,0,1,.28,2.45,15.15,15.15,0,0,1-.11,2.47,2.26,2.26,0,0,1-.5,1.42l-2.18,0-2.1,0v1.18l5.81,0Q144.13,23.19,146,23.23Z"/><path class="cls-1" d="M172.18,23.23a1.32,1.32,0,0,1,1.11.74,5.91,5.91,0,0,1,.7,1.83,12,12,0,0,1,.26,2.36,11.05,11.05,0,0,1-.2,2.36,6.17,6.17,0,0,1-.66,1.86,1.51,1.51,0,0,1-1.09.85,23,23,0,0,1-2.45.13q-1.92,0-4.37.07l-5.09,0H155.8v0a12,12,0,0,1-2.25-.2,6.27,6.27,0,0,1-1.55-.46q-.09-1-.15-2.53t-.09-3.54q0-2,0-4.19t0-4.46q0-2.23,0-4.46t0-4.17q0-1.94.09-3.52T152,3.35a4.78,4.78,0,0,1,1.55-.48,17.2,17.2,0,0,1,2.25-.22h4.61l5.09,0,4.37.07q1.92,0,2.45.09a1.51,1.51,0,0,1,1.09.85,6.19,6.19,0,0,1,.66,1.88,11.34,11.34,0,0,1,.2,2.38A12,12,0,0,1,174,10.3a5.9,5.9,0,0,1-.7,1.84,1.31,1.31,0,0,1-1.11.74q-1.84,0-4.61.07l-5.75,0v1.31q.87,0,1.86,0h2q.44.22.68,1.35a14.08,14.08,0,0,1,.28,2.45,15,15,0,0,1-.11,2.47,2.26,2.26,0,0,1-.5,1.42l-2.18,0-2.1,0v1.18l5.81,0Q170.34,23.19,172.18,23.23Z"/><path class="cls-1" d="M202.28,23.84a5.36,5.36,0,0,1,.55,1.9,24.32,24.32,0,0,1,.24,2.82,19.87,19.87,0,0,1-.11,2.82,6.22,6.22,0,0,1-.46,1.94q-.52,0-1.9.09t-3.25,0H193.2l-4.59,0-4.54,0h-4q-.7,0-1.22-1.14a9.42,9.42,0,0,1-.76-2.62,14.64,14.64,0,0,1-.13-3.21,8.82,8.82,0,0,1,.63-2.91,11.61,11.61,0,0,1,1.55-1.73q1.11-1.07,2.62-2.47t3.32-3L189.79,13l-3.71,0-3.25-.07-2.53-.07q-1.07,0-1.51-.07a5.57,5.57,0,0,1-.57-1.9A19,19,0,0,1,178,8.07a25.18,25.18,0,0,1,.11-2.82,5.12,5.12,0,0,1,.48-1.94q.52,0,1.84-.09l3.15-.09,4-.07,4.41,0,4.41,0,4,0a1.3,1.3,0,0,1,1.22.39,3.83,3.83,0,0,1,.85,1.44,11.06,11.06,0,0,1,.5,2.1,16.61,16.61,0,0,1,.17,2.42,18.94,18.94,0,0,1-.15,2.43,10.27,10.27,0,0,1-.46,2.05A15.75,15.75,0,0,1,201,15.25l-2.6,2.32q-1.51,1.33-3.3,2.88l-3.67,3.17,3.65,0,3.21,0q1.44,0,2.49.07C201.45,23.78,202,23.81,202.28,23.84Z"/><path class="cls-1" d="M227.23,23.23a1.32,1.32,0,0,1,1.11.74,5.91,5.91,0,0,1,.7,1.83,12,12,0,0,1,.26,2.36,11.05,11.05,0,0,1-.2,2.36,6.17,6.17,0,0,1-.66,1.86,1.51,1.51,0,0,1-1.09.85,23,23,0,0,1-2.45.13q-1.92,0-4.37.07l-5.09,0h-4.61v0a12,12,0,0,1-2.25-.2,6.27,6.27,0,0,1-1.55-.46q-.09-1-.15-2.53t-.09-3.54q0-2,0-4.19t0-4.46q0-2.23,0-4.46t0-4.17q0-1.94.09-3.52T207,3.35a4.78,4.78,0,0,1,1.55-.48,17.2,17.2,0,0,1,2.25-.22h4.61l5.09,0,4.37.07q1.92,0,2.45.09a1.51,1.51,0,0,1,1.09.85,6.19,6.19,0,0,1,.66,1.88,11.34,11.34,0,0,1,.2,2.38A12,12,0,0,1,229,10.3a5.9,5.9,0,0,1-.7,1.84,1.31,1.31,0,0,1-1.11.74q-1.84,0-4.61.07l-5.75,0v1.31q.87,0,1.86,0h2q.44.22.68,1.35a14.08,14.08,0,0,1,.28,2.45,15,15,0,0,1-.11,2.47,2.26,2.26,0,0,1-.5,1.42l-2.18,0-2.1,0v1.18l5.81,0Q225.4,23.19,227.23,23.23Z"/><path class="cls-1" d="M93.19,39a1,1,0,0,1,1,.61,5.72,5.72,0,0,1,.63,1.77,12.88,12.88,0,0,1,.24,2.34,12.16,12.16,0,0,1-.17,2.36,6.2,6.2,0,0,1-.57,1.79q-.37.7-.94.61-.83.09-2.12.13l-2.91.13q0,2.84,0,6t0,5.94q0,2.8-.09,4.94t-.15,3a5.29,5.29,0,0,1-1.88.55,23.65,23.65,0,0,1-2.8.24,20.27,20.27,0,0,1-2.84-.11,6.23,6.23,0,0,1-2-.46q-.09-.92-.15-3t-.09-4.87q0-2.75,0-5.92t0-6.18H75.45q-1.4,0-2.71,0-.57,0-1-.74a6.69,6.69,0,0,1-.66-1.86,15.12,15.12,0,0,1-.31-2.42,11.87,11.87,0,0,1,.11-2.42,5.56,5.56,0,0,1,.59-1.86,1.25,1.25,0,0,1,1.11-.74h10.2Q87.9,38.67,93.19,39Z"/><path class="cls-1" d="M110.53,38.93a37.68,37.68,0,0,1,6.38.44,9.43,9.43,0,0,1,3.82,1.42,4.91,4.91,0,0,1,1.88,2.58,13.34,13.34,0,0,1,.5,4v4.94q0,2.1,0,3.74t0,3v2.71a10.37,10.37,0,0,1-.46,3.23,4.62,4.62,0,0,1-1.84,2.36,10.39,10.39,0,0,1-3.89,1.46,35.34,35.34,0,0,1-6.66.5,33.33,33.33,0,0,1-6.49-.5,10.2,10.2,0,0,1-3.71-1.4,4.11,4.11,0,0,1-1.68-2.18,9.79,9.79,0,0,1-.39-2.86,26.78,26.78,0,0,1-.13-3q0-1.92,0-4.11t.07-4.3q0-2.12,0-3.56a14.15,14.15,0,0,1,.44-3.76,4.84,4.84,0,0,1,1.77-2.6,9.24,9.24,0,0,1,3.8-1.53A34.39,34.39,0,0,1,110.53,38.93Z"/><path class="cls-1" d="M151,52.74a1.58,1.58,0,0,1,.92,1,5.93,5.93,0,0,1,.46,1.77,8.92,8.92,0,0,1,0,2,3.4,3.4,0,0,1-.46,1.51v2.75a10.42,10.42,0,0,1-.46,3.21,4.61,4.61,0,0,1-1.84,2.38,10.41,10.41,0,0,1-3.91,1.46,35.71,35.71,0,0,1-6.69.5,33.33,33.33,0,0,1-6.49-.5,9.93,9.93,0,0,1-3.71-1.42,4.21,4.21,0,0,1-1.68-2.21,9.77,9.77,0,0,1-.39-2.86q-.09-1-.11-3t0-4.13q0-2.18.07-4.28t0-3.54a14.41,14.41,0,0,1,.44-3.78,4.85,4.85,0,0,1,1.77-2.62,9.23,9.23,0,0,1,3.8-1.53,34.39,34.39,0,0,1,6.58-.5,38,38,0,0,1,6.4.44,9.24,9.24,0,0,1,3.84,1.44,5,5,0,0,1,1.88,2.6,13.36,13.36,0,0,1,.5,4v2.8h-9.22a3,3,0,0,0-1-1.55,4.22,4.22,0,0,0-2.16-.68,3.66,3.66,0,0,0-2.29.31,2.78,2.78,0,0,0-1.18,1.44,7.89,7.89,0,0,0-.46,2.34q-.09,1.38-.09,3t0,2.95a5.16,5.16,0,0,0,.37,1.92,2.07,2.07,0,0,0,1,1,4.24,4.24,0,0,0,1.94.28,6.82,6.82,0,0,0,2.14-.37,2.46,2.46,0,0,0,1.35-1.42c-.32,0-.61,0-.87,0a4,4,0,0,1-.66,0q-.83,0-1.2-1a6.74,6.74,0,0,1,0-4.41q.37-1,1.07-1l1.53-.09,2.34-.09q1.33,0,3,0Z"/><path class="cls-1" d="M176,59a1.32,1.32,0,0,1,1.11.74,5.91,5.91,0,0,1,.7,1.83,12,12,0,0,1,.26,2.36,11.05,11.05,0,0,1-.2,2.36,6.17,6.17,0,0,1-.66,1.86,1.51,1.51,0,0,1-1.09.85,23,23,0,0,1-2.45.13q-1.92,0-4.37.07l-5.09,0H159.6v0a12,12,0,0,1-2.25-.2,6.27,6.27,0,0,1-1.55-.46q-.09-1-.15-2.53t-.09-3.54q0-2,0-4.19t0-4.46q0-2.23,0-4.46t0-4.17q0-1.94.09-3.52t.15-2.53a4.77,4.77,0,0,1,1.55-.48,17.13,17.13,0,0,1,2.25-.22h4.61l5.09,0,4.37.07q1.92,0,2.45.09a1.51,1.51,0,0,1,1.09.85,6.19,6.19,0,0,1,.66,1.88,11.35,11.35,0,0,1,.2,2.38,12,12,0,0,1-.26,2.36,5.9,5.9,0,0,1-.7,1.83,1.31,1.31,0,0,1-1.11.74q-1.84,0-4.61.07l-5.75,0v1.31q.87,0,1.86,0h2q.44.22.68,1.35a14.08,14.08,0,0,1,.28,2.45,15,15,0,0,1-.11,2.47,2.26,2.26,0,0,1-.5,1.42l-2.18,0-2.1,0v1.18l5.81,0Q174.15,59,176,59Z"/><path class="cls-1" d="M203.9,39a1,1,0,0,1,1,.61,5.74,5.74,0,0,1,.63,1.77,13,13,0,0,1,.24,2.34,12.13,12.13,0,0,1-.17,2.36,6.2,6.2,0,0,1-.57,1.79c-.25.47-.56.67-.94.61q-.83.09-2.12.13l-2.91.13q0,2.84,0,6t0,5.94q0,2.8-.09,4.94t-.15,3a5.28,5.28,0,0,1-1.88.55,23.66,23.66,0,0,1-2.8.24,20.27,20.27,0,0,1-2.84-.11,6.24,6.24,0,0,1-2-.46q-.09-.92-.15-3t-.09-4.87q0-2.75,0-5.92t0-6.18h-2.84q-1.4,0-2.71,0-.57,0-1-.74a6.66,6.66,0,0,1-.66-1.86,15.07,15.07,0,0,1-.31-2.42,11.9,11.9,0,0,1,.11-2.42,5.58,5.58,0,0,1,.59-1.86,1.25,1.25,0,0,1,1.11-.74h10.2Q198.61,38.67,203.9,39Z"/><path class="cls-1" d="M223.91,39.93a4,4,0,0,1,2-1.07,10.56,10.56,0,0,1,2.84-.28,14.62,14.62,0,0,1,2.91.37,7.34,7.34,0,0,1,2.23.85v5.26q0,1.9,0,4.22t0,4.7q0,2.38,0,4.7T233.79,63q0,2-.09,3.41t-.09,2.1a5.58,5.58,0,0,1-1.9.57,19.26,19.26,0,0,1-2.82.24,25,25,0,0,1-2.82-.11,5.1,5.1,0,0,1-1.94-.48q-.09-.74-.13-2.27t-.09-3.63h-5.24q0,2.05-.07,3.54a20.82,20.82,0,0,1-.11,2.14,5.58,5.58,0,0,1-1.9.57,19.26,19.26,0,0,1-2.82.24,25,25,0,0,1-2.82-.11,5.1,5.1,0,0,1-1.94-.48q-.09-.87-.13-2.82t-.09-4.54q0-2.6-.07-5.57t0-5.88v-5.5q0-2.6,0-4.44a4.06,4.06,0,0,1,2.05-1.07,10.67,10.67,0,0,1,2.84-.28,14.91,14.91,0,0,1,2.91.37,7.35,7.35,0,0,1,2.25.85v12h5V45.18Q223.82,42.16,223.91,39.93Z"/><path class="cls-1" d="M257.86,59a1.32,1.32,0,0,1,1.11.74,5.91,5.91,0,0,1,.7,1.83,12,12,0,0,1,.26,2.36,11.05,11.05,0,0,1-.2,2.36,6.17,6.17,0,0,1-.66,1.86A1.51,1.51,0,0,1,258,69a23,23,0,0,1-2.45.13q-1.92,0-4.37.07l-5.09,0h-4.61v0a12,12,0,0,1-2.25-.2,6.27,6.27,0,0,1-1.55-.46q-.09-1-.15-2.53t-.09-3.54q0-2,0-4.19t0-4.46q0-2.23,0-4.46t0-4.17q0-1.94.09-3.52t.15-2.53a4.77,4.77,0,0,1,1.55-.48,17.13,17.13,0,0,1,2.25-.22h4.61l5.09,0,4.37.07q1.92,0,2.45.09a1.51,1.51,0,0,1,1.09.85,6.19,6.19,0,0,1,.66,1.88,11.35,11.35,0,0,1,.2,2.38,12,12,0,0,1-.26,2.36,5.9,5.9,0,0,1-.7,1.83,1.31,1.31,0,0,1-1.11.74q-1.84,0-4.61.07l-5.75,0v1.31q.87,0,1.86,0h2q.44.22.68,1.35a14.08,14.08,0,0,1,.28,2.45,15,15,0,0,1-.11,2.47,2.26,2.26,0,0,1-.5,1.42l-2.18,0-2.1,0v1.18l5.81,0Q256,59,257.86,59Z"/><path class="cls-1" d="M288.75,61.34q.3.26,0,1a8.17,8.17,0,0,1-.85,1.66,18.44,18.44,0,0,1-1.42,1.9,19,19,0,0,1-1.64,1.73,9.26,9.26,0,0,1-1.51,1.16q-.7.42-1,.2-1-.79-2.21-1.92t-2.42-2.36l-2.38-2.4q-1.16-1.18-2.08-2.05.09,1.88.07,4.13t.07,4.08a5.34,5.34,0,0,1-1.9.55,24.33,24.33,0,0,1-2.82.24,19.52,19.52,0,0,1-2.82-.11,6.17,6.17,0,0,1-1.94-.46q-.09-.87-.13-2.82t-.09-4.54q0-2.6-.07-5.57t0-5.88v-5.5q0-2.6,0-4.44a3.6,3.6,0,0,1,2.21-1,45.67,45.67,0,0,1,4.61-.37,45.16,45.16,0,0,1,6.49.11,22.24,22.24,0,0,1,5.29,1.09A10.55,10.55,0,0,1,286,42a6.77,6.77,0,0,1,2,3.5,7.61,7.61,0,0,1,0,3.19,8.66,8.66,0,0,1-1.16,2.84,9.3,9.3,0,0,1-2.1,2.32A10.36,10.36,0,0,1,282,55.4q.61.48,1.62,1.38l2,1.84q1,.94,1.9,1.7T288.75,61.34Z"/><path class="cls-2" d="M79,30.61a13.36,13.36,0,0,1-2.58.24,18.36,18.36,0,0,1-2.69-.2A10.72,10.72,0,0,1,71.3,30q-.09-1-.15-2.47t-.09-3.39q0-1.88,0-4t0-4.39q0-2.23,0-4.46t0-4.17q0-1.94.09-3.52T71.3,1A4.77,4.77,0,0,1,72.85.57,17.15,17.15,0,0,1,75.1.35h4.61l5.09,0,4.37.07q1.92,0,2.45.09a1.51,1.51,0,0,1,1.09.85,6.2,6.2,0,0,1,.66,1.88,11.38,11.38,0,0,1,.2,2.38A12,12,0,0,1,93.3,8a5.89,5.89,0,0,1-.7,1.84,1.31,1.31,0,0,1-1.11.74q-1.83,0-4.61.07l-5.75,0V12q.87,0,1.86,0h2q.44.22.68,1.35a14.2,14.2,0,0,1,.28,2.45,15.16,15.16,0,0,1-.11,2.47,2.26,2.26,0,0,1-.5,1.42l-2.18,0-2.1,0V29.89A6.63,6.63,0,0,1,79,30.61Z"/><path class="cls-2" d="M122.24,22.89q.31.26,0,1a8.15,8.15,0,0,1-.85,1.66,18.44,18.44,0,0,1-1.42,1.9,19,19,0,0,1-1.64,1.73,9.27,9.27,0,0,1-1.51,1.16q-.7.42-1,.2-1-.79-2.21-1.92t-2.42-2.36l-2.38-2.4q-1.16-1.18-2.08-2.05.09,1.88.07,4.13t.07,4.08a5.33,5.33,0,0,1-1.9.55,24.33,24.33,0,0,1-2.82.24,19.52,19.52,0,0,1-2.82-.11,6.17,6.17,0,0,1-1.94-.46q-.09-.87-.13-2.82t-.09-4.54q0-2.6-.07-5.57t0-5.88V5.92q0-2.6,0-4.43a3.59,3.59,0,0,1,2.21-1,45.4,45.4,0,0,1,4.61-.37,45.23,45.23,0,0,1,6.49.11,22.32,22.32,0,0,1,5.29,1.09,10.55,10.55,0,0,1,3.78,2.21,6.76,6.76,0,0,1,2,3.5,7.61,7.61,0,0,1,0,3.19,8.66,8.66,0,0,1-1.16,2.84,9.29,9.29,0,0,1-2.1,2.32A10.35,10.35,0,0,1,115.47,17q.61.48,1.62,1.38l2,1.84q1,.94,1.9,1.7T122.24,22.89ZM107.17,12.36a10.31,10.31,0,0,0,3.93-1q1.31-.74,1.33-1.55t-1.27-1.44a9.77,9.77,0,0,0-4-.68V10.6Q107.21,11.88,107.17,12.36Z"/><path class="cls-2" d="M146,20.58a1.31,1.31,0,0,1,1.11.74,5.89,5.89,0,0,1,.7,1.83,11.94,11.94,0,0,1,.26,2.36,11.05,11.05,0,0,1-.2,2.36,6.15,6.15,0,0,1-.66,1.86,1.51,1.51,0,0,1-1.09.85,23,23,0,0,1-2.45.13q-1.92,0-4.37.07l-5.09,0h-4.61v0a12,12,0,0,1-2.25-.2,6.27,6.27,0,0,1-1.55-.46q-.09-1-.15-2.53T125.54,24q0-2,0-4.19t0-4.46q0-2.23,0-4.46t0-4.17q0-1.94.09-3.52T125.78.7a4.78,4.78,0,0,1,1.55-.48A17.22,17.22,0,0,1,129.58,0h4.61l5.09,0,4.37.07q1.92,0,2.45.09a1.51,1.51,0,0,1,1.09.85,6.17,6.17,0,0,1,.66,1.88,11.34,11.34,0,0,1,.2,2.38,11.92,11.92,0,0,1-.26,2.36,5.88,5.88,0,0,1-.7,1.84,1.31,1.31,0,0,1-1.11.74q-1.83,0-4.61.07l-5.75,0v1.31q.87,0,1.86,0h2q.44.22.68,1.35a14.2,14.2,0,0,1,.28,2.45,15.15,15.15,0,0,1-.11,2.47,2.26,2.26,0,0,1-.5,1.42l-2.18,0-2.1,0v1.18l5.81,0Q144.13,20.54,146,20.58Z"/><path class="cls-2" d="M172.18,20.58a1.32,1.32,0,0,1,1.11.74,5.91,5.91,0,0,1,.7,1.83,12,12,0,0,1,.26,2.36,11.05,11.05,0,0,1-.2,2.36,6.17,6.17,0,0,1-.66,1.86,1.51,1.51,0,0,1-1.09.85,23,23,0,0,1-2.45.13q-1.92,0-4.37.07l-5.09,0H155.8v0a12,12,0,0,1-2.25-.2A6.27,6.27,0,0,1,152,30.1q-.09-1-.15-2.53T151.75,24q0-2,0-4.19t0-4.46q0-2.23,0-4.46t0-4.17q0-1.94.09-3.52T152,.7a4.78,4.78,0,0,1,1.55-.48A17.2,17.2,0,0,1,155.8,0h4.61l5.09,0,4.37.07q1.92,0,2.45.09A1.51,1.51,0,0,1,173.4,1a6.19,6.19,0,0,1,.66,1.88,11.34,11.34,0,0,1,.2,2.38A12,12,0,0,1,174,7.65a5.9,5.9,0,0,1-.7,1.84,1.31,1.31,0,0,1-1.11.74q-1.84,0-4.61.07l-5.75,0v1.31q.87,0,1.86,0h2q.44.22.68,1.35a14.08,14.08,0,0,1,.28,2.45,15,15,0,0,1-.11,2.47,2.26,2.26,0,0,1-.5,1.42l-2.18,0-2.1,0v1.18l5.81,0Q170.34,20.54,172.18,20.58Z"/><path class="cls-2" d="M202.28,21.19a5.36,5.36,0,0,1,.55,1.9,24.32,24.32,0,0,1,.24,2.82,19.87,19.87,0,0,1-.11,2.82,6.22,6.22,0,0,1-.46,1.94q-.52,0-1.9.09t-3.25,0H193.2l-4.59,0-4.54,0h-4q-.7,0-1.22-1.14a9.42,9.42,0,0,1-.76-2.62,14.64,14.64,0,0,1-.13-3.21,8.82,8.82,0,0,1,.63-2.91,11.61,11.61,0,0,1,1.55-1.73q1.11-1.07,2.62-2.47t3.32-3l3.74-3.32-3.71,0-3.25-.07-2.53-.07q-1.07,0-1.51-.07a5.57,5.57,0,0,1-.57-1.9A19,19,0,0,1,178,5.42a25.18,25.18,0,0,1,.11-2.82,5.12,5.12,0,0,1,.48-1.94q.52,0,1.84-.09l3.15-.09,4-.07,4.41,0,4.41,0,4,0a1.3,1.3,0,0,1,1.22.39,3.83,3.83,0,0,1,.85,1.44,11.06,11.06,0,0,1,.5,2.1,16.61,16.61,0,0,1,.17,2.42,18.94,18.94,0,0,1-.15,2.43,10.27,10.27,0,0,1-.46,2.05A15.75,15.75,0,0,1,201,12.61l-2.6,2.32q-1.51,1.33-3.3,2.88L191.4,21l3.65,0,3.21,0q1.44,0,2.49.07C201.45,21.13,202,21.16,202.28,21.19Z"/><path class="cls-2" d="M227.23,20.58a1.32,1.32,0,0,1,1.11.74,5.91,5.91,0,0,1,.7,1.83,12,12,0,0,1,.26,2.36,11.05,11.05,0,0,1-.2,2.36,6.17,6.17,0,0,1-.66,1.86,1.51,1.51,0,0,1-1.09.85,23,23,0,0,1-2.45.13q-1.92,0-4.37.07l-5.09,0h-4.61v0a12,12,0,0,1-2.25-.2A6.27,6.27,0,0,1,207,30.1q-.09-1-.15-2.53T206.8,24q0-2,0-4.19t0-4.46q0-2.23,0-4.46t0-4.17q0-1.94.09-3.52T207,.7A4.78,4.78,0,0,1,208.6.22,17.2,17.2,0,0,1,210.85,0h4.61l5.09,0,4.37.07q1.92,0,2.45.09a1.51,1.51,0,0,1,1.09.85,6.19,6.19,0,0,1,.66,1.88,11.34,11.34,0,0,1,.2,2.38A12,12,0,0,1,229,7.65a5.9,5.9,0,0,1-.7,1.84,1.31,1.31,0,0,1-1.11.74q-1.84,0-4.61.07l-5.75,0v1.31q.87,0,1.86,0h2q.44.22.68,1.35a14.08,14.08,0,0,1,.28,2.45,15,15,0,0,1-.11,2.47,2.26,2.26,0,0,1-.5,1.42l-2.18,0-2.1,0v1.18l5.81,0Q225.4,20.54,227.23,20.58Z"/><path class="cls-2" d="M93.19,36.32a1,1,0,0,1,1,.61,5.72,5.72,0,0,1,.63,1.77A12.88,12.88,0,0,1,95.09,41a12.16,12.16,0,0,1-.17,2.36,6.2,6.2,0,0,1-.57,1.79q-.37.7-.94.61-.83.09-2.12.13l-2.91.13q0,2.84,0,6t0,5.94q0,2.8-.09,4.94t-.15,3a5.29,5.29,0,0,1-1.88.55,23.65,23.65,0,0,1-2.8.24,20.27,20.27,0,0,1-2.84-.11,6.23,6.23,0,0,1-2-.46q-.09-.92-.15-3t-.09-4.87q0-2.75,0-5.92t0-6.18H75.45q-1.4,0-2.71,0-.57,0-1-.74a6.69,6.69,0,0,1-.66-1.86A15.12,15.12,0,0,1,70.8,41a11.87,11.87,0,0,1,.11-2.42,5.56,5.56,0,0,1,.59-1.86A1.25,1.25,0,0,1,72.61,36h10.2Q87.9,36,93.19,36.32Z"/><path class="cls-2" d="M110.53,36.28a37.68,37.68,0,0,1,6.38.44,9.43,9.43,0,0,1,3.82,1.42,4.91,4.91,0,0,1,1.88,2.58,13.34,13.34,0,0,1,.5,4v4.94q0,2.1,0,3.74t0,3V59a10.37,10.37,0,0,1-.46,3.23,4.62,4.62,0,0,1-1.84,2.36,10.39,10.39,0,0,1-3.89,1.46,35.34,35.34,0,0,1-6.66.5,33.33,33.33,0,0,1-6.49-.5A10.2,10.2,0,0,1,100,64.7a4.11,4.11,0,0,1-1.68-2.18,9.79,9.79,0,0,1-.39-2.86,26.78,26.78,0,0,1-.13-3q0-1.92,0-4.11t.07-4.3q0-2.12,0-3.56a14.15,14.15,0,0,1,.44-3.76,4.84,4.84,0,0,1,1.77-2.6,9.24,9.24,0,0,1,3.8-1.53A34.39,34.39,0,0,1,110.53,36.28Zm-.44,22.33a10.46,10.46,0,0,0,1.84-.22,2.31,2.31,0,0,0,1.31-.81,4.32,4.32,0,0,0,.79-1.86,16.54,16.54,0,0,0,.26-3.32q0-1.84-.07-3.12a7,7,0,0,0-.39-2.14,2.62,2.62,0,0,0-1-1.31,4.68,4.68,0,0,0-2-.59,3.84,3.84,0,0,0-2.29.35A2.78,2.78,0,0,0,107.28,47a7.91,7.91,0,0,0-.46,2.34q-.09,1.38-.09,3t0,2.95a5.15,5.15,0,0,0,.37,1.92,2.07,2.07,0,0,0,1,1A4.23,4.23,0,0,0,110.1,58.61Z"/><path class="cls-2" d="M151,50.09a1.58,1.58,0,0,1,.92,1,5.93,5.93,0,0,1,.46,1.77,8.92,8.92,0,0,1,0,2,3.4,3.4,0,0,1-.46,1.51V59a10.42,10.42,0,0,1-.46,3.21,4.61,4.61,0,0,1-1.84,2.38,10.41,10.41,0,0,1-3.91,1.46,35.71,35.71,0,0,1-6.69.5,33.33,33.33,0,0,1-6.49-.5,9.93,9.93,0,0,1-3.71-1.42,4.21,4.21,0,0,1-1.68-2.21,9.77,9.77,0,0,1-.39-2.86q-.09-1-.11-3t0-4.13q0-2.18.07-4.28t0-3.54a14.41,14.41,0,0,1,.44-3.78,4.85,4.85,0,0,1,1.77-2.62,9.23,9.23,0,0,1,3.8-1.53,34.39,34.39,0,0,1,6.58-.5,38,38,0,0,1,6.4.44,9.24,9.24,0,0,1,3.84,1.44,5,5,0,0,1,1.88,2.6,13.36,13.36,0,0,1,.5,4v2.8h-9.22a3,3,0,0,0-1-1.55,4.22,4.22,0,0,0-2.16-.68,3.66,3.66,0,0,0-2.29.31A2.78,2.78,0,0,0,136.07,47a7.89,7.89,0,0,0-.46,2.34q-.09,1.38-.09,3t0,2.95a5.16,5.16,0,0,0,.37,1.92,2.07,2.07,0,0,0,1,1,4.24,4.24,0,0,0,1.94.28,6.82,6.82,0,0,0,2.14-.37,2.46,2.46,0,0,0,1.35-1.42c-.32,0-.61,0-.87,0a4,4,0,0,1-.66,0q-.83,0-1.2-1a6.74,6.74,0,0,1,0-4.41q.37-1,1.07-1l1.53-.09,2.34-.09q1.33,0,3,0Z"/><path class="cls-2" d="M176,56.38a1.32,1.32,0,0,1,1.11.74,5.91,5.91,0,0,1,.7,1.83,12,12,0,0,1,.26,2.36,11.05,11.05,0,0,1-.2,2.36,6.17,6.17,0,0,1-.66,1.86,1.51,1.51,0,0,1-1.09.85,23,23,0,0,1-2.45.13q-1.92,0-4.37.07l-5.09,0H159.6v0a12,12,0,0,1-2.25-.2,6.27,6.27,0,0,1-1.55-.46q-.09-1-.15-2.53t-.09-3.54q0-2,0-4.19t0-4.46q0-2.23,0-4.46t0-4.17q0-1.94.09-3.52t.15-2.53a4.77,4.77,0,0,1,1.55-.48,17.13,17.13,0,0,1,2.25-.22h4.61l5.09,0,4.37.07q1.92,0,2.45.09a1.51,1.51,0,0,1,1.09.85,6.19,6.19,0,0,1,.66,1.88,11.35,11.35,0,0,1,.2,2.38,12,12,0,0,1-.26,2.36,5.9,5.9,0,0,1-.7,1.83A1.31,1.31,0,0,1,176,46q-1.84,0-4.61.07l-5.75,0v1.31q.87,0,1.86,0h2q.44.22.68,1.35a14.08,14.08,0,0,1,.28,2.45,15,15,0,0,1-.11,2.47,2.26,2.26,0,0,1-.5,1.42l-2.18,0-2.1,0v1.18l5.81,0Q174.15,56.34,176,56.38Z"/><path class="cls-2" d="M203.9,36.32a1,1,0,0,1,1,.61,5.74,5.74,0,0,1,.63,1.77A13,13,0,0,1,205.8,41a12.13,12.13,0,0,1-.17,2.36,6.2,6.2,0,0,1-.57,1.79c-.25.47-.56.67-.94.61q-.83.09-2.12.13l-2.91.13q0,2.84,0,6T199,58q0,2.8-.09,4.94t-.15,3a5.28,5.28,0,0,1-1.88.55,23.66,23.66,0,0,1-2.8.24,20.27,20.27,0,0,1-2.84-.11,6.24,6.24,0,0,1-2-.46q-.09-.92-.15-3t-.09-4.87q0-2.75,0-5.92t0-6.18h-2.84q-1.4,0-2.71,0-.57,0-1-.74a6.66,6.66,0,0,1-.66-1.86,15.07,15.07,0,0,1-.31-2.42,11.9,11.9,0,0,1,.11-2.42,5.58,5.58,0,0,1,.59-1.86,1.25,1.25,0,0,1,1.11-.74h10.2Q198.61,36,203.9,36.32Z"/><path class="cls-2" d="M223.91,37.28a4,4,0,0,1,2-1.07,10.56,10.56,0,0,1,2.84-.28,14.62,14.62,0,0,1,2.91.37,7.34,7.34,0,0,1,2.23.85v5.26q0,1.9,0,4.22t0,4.7q0,2.38,0,4.7t-.07,4.28q0,2-.09,3.41t-.09,2.1a5.58,5.58,0,0,1-1.9.57,19.26,19.26,0,0,1-2.82.24,25,25,0,0,1-2.82-.11,5.1,5.1,0,0,1-1.94-.48q-.09-.74-.13-2.27t-.09-3.63h-5.24q0,2.05-.07,3.54a20.82,20.82,0,0,1-.11,2.14,5.58,5.58,0,0,1-1.9.57,19.26,19.26,0,0,1-2.82.24,25,25,0,0,1-2.82-.11A5.1,5.1,0,0,1,209,66q-.09-.87-.13-2.82t-.09-4.54q0-2.6-.07-5.57t0-5.88v-5.5q0-2.6,0-4.44a4.06,4.06,0,0,1,2.05-1.07,10.67,10.67,0,0,1,2.84-.28,14.91,14.91,0,0,1,2.91.37,7.35,7.35,0,0,1,2.25.85v12h5V42.53Q223.82,39.51,223.91,37.28Z"/><path class="cls-2" d="M257.86,56.38a1.32,1.32,0,0,1,1.11.74,5.91,5.91,0,0,1,.7,1.83,12,12,0,0,1,.26,2.36,11.05,11.05,0,0,1-.2,2.36,6.17,6.17,0,0,1-.66,1.86,1.51,1.51,0,0,1-1.09.85,23,23,0,0,1-2.45.13q-1.92,0-4.37.07l-5.09,0h-4.61v0a12,12,0,0,1-2.25-.2,6.27,6.27,0,0,1-1.55-.46q-.09-1-.15-2.53t-.09-3.54q0-2,0-4.19t0-4.46q0-2.23,0-4.46t0-4.17q0-1.94.09-3.52t.15-2.53a4.77,4.77,0,0,1,1.55-.48,17.13,17.13,0,0,1,2.25-.22h4.61l5.09,0,4.37.07q1.92,0,2.45.09a1.51,1.51,0,0,1,1.09.85,6.19,6.19,0,0,1,.66,1.88,11.35,11.35,0,0,1,.2,2.38,12,12,0,0,1-.26,2.36,5.9,5.9,0,0,1-.7,1.83,1.31,1.31,0,0,1-1.11.74q-1.84,0-4.61.07l-5.75,0v1.31q.87,0,1.86,0h2q.44.22.68,1.35a14.08,14.08,0,0,1,.28,2.45,15,15,0,0,1-.11,2.47,2.26,2.26,0,0,1-.5,1.42l-2.18,0-2.1,0v1.18l5.81,0Q256,56.34,257.86,56.38Z"/><path class="cls-2" d="M288.75,58.69q.3.26,0,1a8.17,8.17,0,0,1-.85,1.66,18.44,18.44,0,0,1-1.42,1.9A19,19,0,0,1,284.88,65a9.26,9.26,0,0,1-1.51,1.16q-.7.42-1,.2-1-.79-2.21-1.92t-2.42-2.36l-2.38-2.4q-1.16-1.18-2.08-2.05.09,1.88.07,4.13t.07,4.08a5.34,5.34,0,0,1-1.9.55,24.33,24.33,0,0,1-2.82.24,19.52,19.52,0,0,1-2.82-.11,6.17,6.17,0,0,1-1.94-.46q-.09-.87-.13-2.82t-.09-4.54q0-2.6-.07-5.57t0-5.88v-5.5q0-2.6,0-4.44a3.6,3.6,0,0,1,2.21-1,45.67,45.67,0,0,1,4.61-.37,45.16,45.16,0,0,1,6.49.11,22.24,22.24,0,0,1,5.29,1.09A10.55,10.55,0,0,1,286,39.34a6.77,6.77,0,0,1,2,3.5A7.61,7.61,0,0,1,288,46a8.66,8.66,0,0,1-1.16,2.84,9.3,9.3,0,0,1-2.1,2.32A10.36,10.36,0,0,1,282,52.75q.61.48,1.62,1.38l2,1.84q1,.94,1.9,1.7T288.75,58.69ZM273.68,48.16a10.3,10.3,0,0,0,3.93-1q1.31-.74,1.33-1.55t-1.27-1.44a9.78,9.78,0,0,0-4-.68v2.91Q273.72,47.68,273.68,48.16Z"/><g id="_11-Knife" data-name=" 11-Knife"><rect class="cls-3" x="52.91" y="52.19" width="5.94" height="15.6" transform="translate(-26.05 57.09) rotate(-45)"/><polygon class="cls-3" points="42.49 49.75 48.27 43.98 51.42 47.13 50.37 48.18 44.07 54.48 43.02 55.53 39.87 52.38 42.49 49.75"/><rect class="cls-3" x="59.74" y="64.96" width="5.94" height="3.71" transform="translate(-28.88 63.92) rotate(-45)"/><polygon class="cls-3" points="53.52 51.33 52.47 52.38 48.27 56.58 47.22 57.63 44.07 54.48 50.37 48.18 53.52 51.33"/><rect class="cls-3" x="53.35" y="53.25" width="2.97" height="15.6" transform="translate(-27.1 56.65) rotate(-45)"/><rect class="cls-3" x="60.18" y="66.01" width="2.97" height="3.71" transform="translate(-29.93 63.48) rotate(-45)"/><polygon class="cls-3" points="44.07 54.48 47.22 57.63 48.27 56.58 49.32 55.53 46.17 52.38 44.07 54.48"/><polygon class="cls-3" points="24.63 49.75 27.26 52.38 24.11 55.53 23.06 54.48 16.76 48.18 15.71 47.13 18.86 43.98 24.63 49.75"/><rect class="cls-3" x="3.44" y="57.02" width="15.6" height="5.94" transform="translate(-39.13 25.52) rotate(-45)"/><rect class="cls-3" x="2.56" y="63.85" width="3.71" height="5.94" transform="translate(-45.96 22.69) rotate(-45)"/><polygon class="cls-3" points="23.06 54.48 19.91 57.63 18.86 56.58 14.65 52.38 13.61 51.33 16.76 48.18 23.06 54.48"/><rect class="cls-3" x="4.49" y="59.56" width="15.6" height="2.97" transform="translate(-39.57 26.57) rotate(-45)"/><rect class="cls-3" x="3.61" y="66.39" width="3.71" height="2.97" transform="translate(-46.39 23.74) rotate(-45)"/><polygon class="cls-3" points="20.96 52.38 17.81 55.53 18.86 56.58 19.91 57.63 23.06 54.48 20.96 52.38"/><polygon class="cls-3" points="57.72 16.66 57.72 21.92 41.97 37.67 39.34 35.05 57.72 16.66"/><polygon class="cls-3" points="57.72 5.11 57.72 16.66 39.34 35.05 33.56 29.27 57.72 5.11"/><polygon class="cls-3" points="39.34 35.05 41.97 37.67 48.27 43.98 42.49 49.75 9.4 16.66 9.4 5.11 33.56 29.27 39.34 35.05"/><polygon class="cls-3" points="41.97 37.67 39.34 35.05 33.56 29.27 9.4 5.11 9.4 10.36 30.94 31.9 36.71 37.67 39.34 40.3 45.64 46.6 48.27 43.98 41.97 37.67"/><path class="cls-3" d="M30.94,43.45l-5.78-5.78-6.3-6.3a2.11,2.11,0,0,1-2.1,2.1H15.71V36.1a1.58,1.58,0,0,1-3.15,0v-11L9.4,21.92V16.67L42.49,49.75l-2.63,2.63-6.3-6.3Z"/><polygon class="cls-3" points="12.55 22.97 9.4 19.82 9.4 21.92 12.55 25.07 12.55 22.97"/><path class="cls-3" d="M14.13,35.57A1.58,1.58,0,0,1,12.55,34v2.1a1.58,1.58,0,0,0,3.15,0V34A1.58,1.58,0,0,1,14.13,35.57Z"/><path class="cls-3" d="M39.86,50.28,33.56,44l-2.63-2.63-5.78-5.78-6.3-6.3a2.11,2.11,0,0,1-2.1,2.1H15.71v2.1h1.05a2.11,2.11,0,0,0,2.1-2.1l6.3,6.3,5.78,5.78,2.63,2.63,6.3,6.3,2.63-2.63L41.44,48.7Z"/><rect class="cls-3" x="24.64" y="46.06" width="8.91" height="3.71" transform="translate(-25.36 34.61) rotate(-45)"/><rect class="cls-3" x="20.44" y="39.63" width="8.91" height="8.17" transform="translate(-23.62 30.41) rotate(-45)"/><rect class="cls-3" x="30.35" y="43.69" width="2.23" height="3.71" transform="translate(-22.99 35.59) rotate(-45)"/><rect class="cls-3" x="26.15" y="37.26" width="2.23" height="8.17" transform="translate(-21.25 31.39) rotate(-45)"/><polyline class="cls-3" points="44.07 54.48 47.22 57.63 48.27 56.58 52.47 52.38 53.52 51.33 50.37 48.18"/><polyline class="cls-3" points="48.27 56.58 59.3 67.61 61.92 70.23 66.12 66.03 63.5 63.41 52.47 52.38"/><polyline class="cls-3" points="48.27 43.98 42.49 49.75 39.87 52.38"/><polyline class="cls-3" points="33.56 46.08 27.26 52.38 24.11 55.53 23.06 54.48 16.76 48.18 15.71 47.13 18.86 43.98 25.16 37.67"/><polyline class="cls-3" points="33.56 29.27 57.72 5.11 57.72 16.66 57.72 21.92 41.97 37.67"/><polyline class="cls-3" points="23.06 54.48 19.91 57.63 18.86 56.58 14.65 52.38 13.61 51.33 16.76 48.18"/><polyline class="cls-3" points="18.86 56.58 7.83 67.61 5.2 70.23 1 66.03 3.63 63.41 14.65 52.38"/><polyline class="cls-3" points="18.86 43.98 24.63 49.75 27.26 52.38"/><path class="cls-3" d="M33.56,29.27,9.4,5.11V21.92l3.15,3.15v11a1.58,1.58,0,0,0,3.15,0V33.47h1.05a2.11,2.11,0,0,0,2.1-2.1l6.3,6.3,5.78,5.78,2.63,2.63,6.3,6.3L43,55.53l1.05-1.05,6.3-6.3,1.05-1.05L48.27,44,42,37.67,39.34,35Z"/><polyline class="cls-3" points="9.4 16.66 42.49 49.75 43.02 50.28"/><line class="cls-3" x1="15.71" y1="33.47" x2="15.71" y2="29.27"/><polyline class="cls-3" points="31.46 42.92 30.94 43.45 24.63 49.75 24.11 50.28"/><polyline class="cls-3" points="57.72 16.66 39.34 35.05 38.81 35.57"/><polyline class="cls-3" points="3.1 62.88 3.63 63.41 7.83 67.61 8.35 68.13"/><polyline class="cls-3" points="64.02 62.88 63.5 63.41 59.3 67.61 58.77 68.13"/></g><g id="_11-Knife-2" data-name=" 11-Knife"><rect class="cls-2" x="52.91" y="49.72" width="5.94" height="15.6" transform="translate(-24.31 56.36) rotate(-45)"/><polygon class="cls-2" points="42.49 47.28 48.27 41.5 51.42 44.65 50.37 45.7 44.07 52.01 43.02 53.06 39.87 49.91 42.49 47.28"/><rect class="cls-2" x="59.74" y="62.49" width="5.94" height="3.71" transform="translate(-27.13 63.19) rotate(-45)"/><polygon class="cls-2" points="53.52 48.85 52.47 49.91 48.27 54.11 47.22 55.16 44.07 52.01 50.37 45.7 53.52 48.85"/><rect class="cls-2" x="53.35" y="50.77" width="2.97" height="15.6" transform="translate(-25.36 55.93) rotate(-45)"/><rect class="cls-2" x="60.18" y="63.54" width="2.97" height="3.71" transform="translate(-28.18 62.76) rotate(-45)"/><polygon class="cls-2" points="44.07 52.01 47.22 55.16 48.27 54.11 49.32 53.06 46.17 49.91 44.07 52.01"/><polygon class="cls-2" points="24.63 47.28 27.26 49.91 24.11 53.06 23.06 52.01 16.76 45.7 15.71 44.65 18.86 41.5 24.63 47.28"/><rect class="cls-2" x="3.44" y="54.55" width="15.6" height="5.94" transform="translate(-37.38 24.8) rotate(-45)"/><rect class="cls-2" x="2.56" y="61.38" width="3.71" height="5.94" transform="translate(-44.21 21.97) rotate(-45)"/><polygon class="cls-2" points="23.06 52.01 19.91 55.16 18.86 54.11 14.65 49.91 13.61 48.85 16.76 45.7 23.06 52.01"/><rect class="cls-2" x="4.49" y="57.09" width="15.6" height="2.97" transform="translate(-37.82 25.85) rotate(-45)"/><rect class="cls-2" x="3.61" y="63.91" width="3.71" height="2.97" transform="translate(-44.64 23.02) rotate(-45)"/><polygon class="cls-2" points="20.96 49.91 17.81 53.06 18.86 54.11 19.91 55.16 23.06 52.01 20.96 49.91"/><polygon class="cls-2" points="57.72 14.19 57.72 19.44 41.97 35.2 39.34 32.57 57.72 14.19"/><polygon class="cls-2" points="57.72 2.64 57.72 14.19 39.34 32.57 33.56 26.8 57.72 2.64"/><polygon class="cls-2" points="39.34 32.57 41.97 35.2 48.27 41.5 42.49 47.28 9.4 14.19 9.4 2.64 33.56 26.8 39.34 32.57"/><polygon class="cls-2" points="41.97 35.2 39.34 32.57 33.56 26.8 9.4 2.64 9.4 7.89 30.94 29.42 36.71 35.2 39.34 37.83 45.64 44.13 48.27 41.5 41.97 35.2"/><path class="cls-2" d="M30.94,41,25.16,35.2l-6.3-6.3a2.11,2.11,0,0,1-2.1,2.1H15.71v2.63a1.58,1.58,0,0,1-3.15,0v-11L9.4,19.44V14.19L42.49,47.28l-2.63,2.63-6.3-6.3Z"/><polygon class="cls-2" points="12.55 20.49 9.4 17.34 9.4 19.44 12.55 22.59 12.55 20.49"/><path class="cls-2" d="M14.13,33.1a1.58,1.58,0,0,1-1.58-1.58v2.1a1.58,1.58,0,0,0,3.15,0v-2.1A1.58,1.58,0,0,1,14.13,33.1Z"/><path class="cls-2" d="M39.86,47.8l-6.3-6.3-2.63-2.63L25.16,33.1l-6.3-6.3a2.11,2.11,0,0,1-2.1,2.1H15.71V31h1.05a2.11,2.11,0,0,0,2.1-2.1l6.3,6.3L30.94,41l2.63,2.63,6.3,6.3,2.63-2.63-1.05-1.05Z"/><rect class="cls-2" x="24.64" y="43.59" width="8.91" height="3.71" transform="translate(-23.61 33.88) rotate(-45)"/><rect class="cls-2" x="20.44" y="37.16" width="8.91" height="8.17" transform="translate(-21.87 29.68) rotate(-45)"/><rect class="cls-2" x="30.35" y="41.22" width="2.23" height="3.71" transform="translate(-21.25 34.86) rotate(-45)"/><rect class="cls-2" x="26.15" y="34.79" width="2.23" height="8.17" transform="translate(-19.51 30.66) rotate(-45)"/><polyline class="cls-4" points="44.07 52.01 47.22 55.16 48.27 54.11 52.47 49.91 53.52 48.85 50.37 45.7"/><polyline class="cls-4" points="48.27 54.11 59.3 65.14 61.92 67.76 66.12 63.56 63.5 60.94 52.47 49.91"/><polyline class="cls-4" points="48.27 41.5 42.49 47.28 39.87 49.91"/><polyline class="cls-4" points="33.56 43.6 27.26 49.91 24.11 53.06 23.06 52.01 16.76 45.7 15.71 44.65 18.86 41.5 25.16 35.2"/><polyline class="cls-5" points="33.56 26.8 57.72 2.64 57.72 14.19 57.72 19.44 41.97 35.2"/><polyline class="cls-4" points="23.06 52.01 19.91 55.16 18.86 54.11 14.65 49.91 13.61 48.85 16.76 45.7"/><polyline class="cls-4" points="18.86 54.11 7.83 65.14 5.2 67.76 1 63.56 3.63 60.94 14.65 49.91"/><polyline class="cls-4" points="18.86 41.5 24.63 47.28 27.26 49.91"/><path class="cls-6" d="M33.56,26.8,9.4,2.64V19.44l3.15,3.15v11a1.58,1.58,0,0,0,3.15,0V31h1.05a2.11,2.11,0,0,0,2.1-2.1l6.3,6.3L30.94,41l2.63,2.63,6.3,6.3L43,53.06,44.07,52l6.3-6.3,1.05-1.05L48.27,41.5,42,35.2l-2.63-2.63Z"/><polyline class="cls-4" points="9.4 14.19 42.49 47.28 43.02 47.8"/><line class="cls-4" x1="15.71" y1="31" x2="15.71" y2="26.8"/><polyline class="cls-4" points="31.46 40.45 30.94 40.98 24.63 47.28 24.11 47.8"/><polyline class="cls-4" points="57.72 14.19 39.34 32.57 38.81 33.1"/><polyline class="cls-4" points="3.1 60.41 3.63 60.94 7.83 65.14 8.35 65.66"/><polyline class="cls-4" points="64.02 60.41 63.5 60.94 59.3 65.14 58.77 65.66"/></g></g></g></svg>