<svg xmlns="http://www.w3.org/2000/svg" viewBox="0 -0.5 480 600" shape-rendering="crispEdges">
<metadata>Made with Pixels to Svg https://codepen.io/shshaw/pen/XbxvNj</metadata>
<path stroke="#ad8c52" d="M195 0h30M255 0h30M195 1h30M255 1h30M195 2h30M255 2h30M195 3h30M255 3h30M195 4h30M255 4h30M195 5h30M255 5h30M195 6h30M255 6h30M195 7h30M255 7h30M195 8h30M255 8h30M195 9h30M255 9h30M195 10h30M255 10h30M195 11h30M255 11h30M195 12h30M255 12h30M195 13h30M255 13h30M195 14h30M255 14h30M195 15h90M195 16h90M195 17h90M195 18h90M195 19h90M195 20h90M195 21h90M195 22h90M195 23h90M195 24h90M195 25h90M195 26h90M195 27h90M195 28h90M195 29h90M195 30h15M270 30h15M195 31h15M270 31h15M195 32h15M270 32h15M195 33h15M270 33h15M195 34h15M270 34h15M195 35h15M270 35h15M195 36h15M270 36h15M195 37h15M270 37h15M195 38h15M270 38h15M195 39h15M270 39h15M195 40h15M270 40h15M195 41h15M270 41h15M195 42h15M270 42h15M195 43h15M270 43h15M195 44h15M270 44h15M180 45h30M270 45h30M180 46h30M270 46h30M180 47h30M270 47h30M180 48h30M270 48h30M180 49h30M270 49h30M180 50h30M270 50h30M180 51h30M270 51h30M180 52h30M270 52h30M180 53h30M270 53h30M180 54h30M270 54h30M180 55h30M270 55h30M180 56h30M270 56h30M180 57h30M270 57h30M180 58h30M270 58h30M180 59h30M270 59h30" />
<path stroke="#ba9759" d="M210 30h60M210 31h60M210 32h60M210 33h60M210 34h60M210 35h60M210 36h60M210 37h60M210 38h60M210 39h60M210 40h60M210 41h60M210 42h60M210 43h60M210 44h60M210 45h60M210 46h60M210 47h60M210 48h60M210 49h60M210 50h60M210 51h60M210 52h60M210 53h60M210 54h60M210 55h60M210 56h60M210 57h60M210 58h60M210 59h60" />
<path stroke="#9b7c48" d="M120 60h30M330 60h30M120 61h30M330 61h30M120 62h30M330 62h30M120 63h30M330 63h30M120 64h30M330 64h30M120 65h30M330 65h30M120 66h30M330 66h30M120 67h30M330 67h30M120 68h30M330 68h30M120 69h30M330 69h30M120 70h30M330 70h30M120 71h30M330 71h30M120 72h30M330 72h30M120 73h30M330 73h30M120 74h30M330 74h30M120 75h60M300 75h60M120 76h60M300 76h60M120 77h60M300 77h60M120 78h60M300 78h60M120 79h60M300 79h60M120 80h60M300 80h60M120 81h60M300 81h60M120 82h60M300 82h60M120 83h60M300 83h60M120 84h60M300 84h60M120 85h60M300 85h60M120 86h60M300 86h60M120 87h60M300 87h60M120 88h60M300 88h60M120 89h60M300 89h60M150 90h30M300 90h45M150 91h30M300 91h45M150 92h30M300 92h45M150 93h30M300 93h45M150 94h30M300 94h45M150 95h30M300 95h45M150 96h30M300 96h45M150 97h30M300 97h45M150 98h30M300 98h45M150 99h30M300 99h45M150 100h30M300 100h45M150 101h30M300 101h45M150 102h30M300 102h45M150 103h30M300 103h45M150 104h30M300 104h45M165 105h150M165 106h150M165 107h150M165 108h150M165 109h150M165 110h150M165 111h150M165 112h150M165 113h150M165 114h150M165 115h150M165 116h150M165 117h150M165 118h150M165 119h150" />
<path stroke="#5e4128" d="M180 60h120M180 61h120M180 62h120M180 63h120M180 64h120M180 65h120M180 66h120M180 67h120M180 68h120M180 69h120M180 70h120M180 71h120M180 72h120M180 73h120M180 74h120M180 75h120M180 76h120M180 77h120M180 78h120M180 79h120M180 80h120M180 81h120M180 82h120M180 83h120M180 84h120M180 85h120M180 86h120M180 87h120M180 88h120M180 89h120" />
<path stroke="#ad8b50" d="M180 90h120M180 91h120M180 92h120M180 93h120M180 94h120M180 95h120M180 96h120M180 97h120M180 98h120M180 99h120M180 100h120M180 101h120M180 102h120M180 103h120M180 104h120" />
<path stroke="#407e97" d="M315 105h15M315 106h15M315 107h15M315 108h15M315 109h15M315 110h15M315 111h15M315 112h15M315 113h15M315 114h15M315 115h15M315 116h15M315 117h15M315 118h15M315 119h15M165 120h30M240 120h30M315 120h15M165 121h30M240 121h30M315 121h15M165 122h30M240 122h30M315 122h15M165 123h30M240 123h30M315 123h15M165 124h30M240 124h30M315 124h15M165 125h30M240 125h30M315 125h15M165 126h30M240 126h30M315 126h15M165 127h30M240 127h30M315 127h15M165 128h30M240 128h30M315 128h15M165 129h30M240 129h30M315 129h15M165 130h30M240 130h30M315 130h15M165 131h30M240 131h30M315 131h15M165 132h30M240 132h30M315 132h15M165 133h30M240 133h30M315 133h15M165 134h30M240 134h30M315 134h15M165 135h30M165 136h30M165 137h30M165 138h30M165 139h30M165 140h30M165 141h30M165 142h30M165 143h30M165 144h30M165 145h30M165 146h30M165 147h30M165 148h30M165 149h30" />
<path stroke="#d4b89d" d="M195 120h45M270 120h45M195 121h45M270 121h45M195 122h45M270 122h45M195 123h45M270 123h45M195 124h45M270 124h45M195 125h45M270 125h45M195 126h45M270 126h45M195 127h45M270 127h45M195 128h45M270 128h45M195 129h45M270 129h45M195 130h45M270 130h45M195 131h45M270 131h45M195 132h45M270 132h45M195 133h45M270 133h45M195 134h45M270 134h45M195 135h15M240 135h15M195 136h15M240 136h15M195 137h15M240 137h15M195 138h15M240 138h15M195 139h15M240 139h15M195 140h15M240 140h15M195 141h15M240 141h15M195 142h15M240 142h15M195 143h15M240 143h15M195 144h15M240 144h15M195 145h15M240 145h15M195 146h15M240 146h15M195 147h15M240 147h15M195 148h15M240 148h15M195 149h15M240 149h15M195 210h15M195 211h15M195 212h15M195 213h15M195 214h15M195 215h15M195 216h15M195 217h15M195 218h15M195 219h15M195 220h15M195 221h15M195 222h15M195 223h15M195 224h15M210 225h45M210 226h45M210 227h45M210 228h45M210 229h45M210 230h45M210 231h45M210 232h45M210 233h45M210 234h45M210 235h45M210 236h45M210 237h45M210 238h45M210 239h45M210 240h45M210 241h45M210 242h45M210 243h45M210 244h45M210 245h45M210 246h45M210 247h45M210 248h45M210 249h45M210 250h45M210 251h45M210 252h45M210 253h45M210 254h45" />
<path stroke="#c43950" d="M135 135h15M135 136h15M135 137h15M135 138h15M135 139h15M135 140h15M135 141h15M135 142h15M135 143h15M135 144h15M135 145h15M135 146h15M135 147h15M135 148h15M135 149h15M135 150h45M135 151h45M135 152h45M135 153h45M135 154h45M135 155h45M135 156h45M135 157h45M135 158h45M135 159h45M135 160h45M135 161h45M135 162h45M135 163h45M135 164h45M150 165h165M150 166h165M150 167h165M150 168h165M150 169h165M150 170h165M150 171h165M150 172h165M150 173h165M150 174h165M150 175h165M150 176h165M150 177h165M150 178h165M150 179h165M135 180h60M255 180h60M135 181h60M255 181h60M135 182h60M255 182h60M135 183h60M255 183h60M135 184h60M255 184h60M135 185h60M255 185h60M135 186h60M255 186h60M135 187h60M255 187h60M135 188h60M255 188h60M135 189h60M255 189h60M135 190h60M255 190h60M135 191h60M255 191h60M135 192h60M255 192h60M135 193h60M255 193h60M135 194h60M255 194h60M135 195h15M180 195h45M285 195h30M135 196h15M180 196h45M285 196h30M135 197h15M180 197h45M285 197h30M135 198h15M180 198h45M285 198h30M135 199h15M180 199h45M285 199h30M135 200h15M180 200h45M285 200h30M135 201h15M180 201h45M285 201h30M135 202h15M180 202h45M285 202h30M135 203h15M180 203h45M285 203h30M135 204h15M180 204h45M285 204h30M135 205h15M180 205h45M285 205h30M135 206h15M180 206h45M285 206h30M135 207h15M180 207h45M285 207h30M135 208h15M180 208h45M285 208h30M135 209h15M180 209h45M285 209h30M210 210h105M210 211h105M210 212h105M210 213h105M210 214h105M210 215h105M210 216h105M210 217h105M210 218h105M210 219h105M210 220h105M210 221h105M210 222h105M210 223h105M210 224h105" />
<path stroke="#000000" d="M210 135h15M270 135h15M210 136h15M270 136h15M210 137h15M270 137h15M210 138h15M270 138h15M210 139h15M270 139h15M210 140h15M270 140h15M210 141h15M270 141h15M210 142h15M270 142h15M210 143h15M270 143h15M210 144h15M270 144h15M210 145h15M270 145h15M210 146h15M270 146h15M210 147h15M270 147h15M210 148h15M270 148h15M210 149h15M270 149h15" />
<path stroke="#977ce8" d="M225 135h15M285 135h15M225 136h15M285 136h15M225 137h15M285 137h15M225 138h15M285 138h15M225 139h15M285 139h15M225 140h15M285 140h15M225 141h15M285 141h15M225 142h15M285 142h15M225 143h15M285 143h15M225 144h15M285 144h15M225 145h15M285 145h15M225 146h15M285 146h15M225 147h15M285 147h15M225 148h15M285 148h15M225 149h15M285 149h15" />
<path stroke="#44859f" d="M255 135h15M255 136h15M255 137h15M255 138h15M255 139h15M255 140h15M255 141h15M255 142h15M255 143h15M255 144h15M255 145h15M255 146h15M255 147h15M255 148h15M255 149h15M180 150h15M180 151h15M180 152h15M180 153h15M180 154h15M180 155h15M180 156h15M180 157h15M180 158h15M180 159h15M180 160h15M180 161h15M180 162h15M180 163h15M180 164h15" />
<path stroke="#ffdbb7" d="M300 135h15M300 136h15M300 137h15M300 138h15M300 139h15M300 140h15M300 141h15M300 142h15M300 143h15M300 144h15M300 145h15M300 146h15M300 147h15M300 148h15M300 149h15M195 150h120M195 151h120M195 152h120M195 153h120M195 154h120M195 155h120M195 156h120M195 157h120M195 158h120M195 159h120M195 160h120M195 161h120M195 162h120M195 163h120M195 164h120" />
<path stroke="#cf3b54" d="M195 180h60M195 181h60M195 182h60M195 183h60M195 184h60M195 185h60M195 186h60M195 187h60M195 188h60M195 189h60M195 190h60M195 191h60M195 192h60M195 193h60M195 194h60M225 195h60M225 196h60M225 197h60M225 198h60M225 199h60M225 200h60M225 201h60M225 202h60M225 203h60M225 204h60M225 205h60M225 206h60M225 207h60M225 208h60M225 209h60" />
<path stroke="#465849" d="M180 210h15M180 211h15M180 212h15M180 213h15M180 214h15M180 215h15M180 216h15M180 217h15M180 218h15M180 219h15M180 220h15M180 221h15M180 222h15M180 223h15M180 224h15M165 225h45M255 225h15M165 226h45M255 226h15M165 227h45M255 227h15M165 228h45M255 228h15M165 229h45M255 229h15M165 230h45M255 230h15M165 231h45M255 231h15M165 232h45M255 232h15M165 233h45M255 233h15M165 234h45M255 234h15M165 235h45M255 235h15M165 236h45M255 236h15M165 237h45M255 237h15M165 238h45M255 238h15M165 239h45M255 239h15M195 240h15M255 240h15M195 241h15M255 241h15M195 242h15M255 242h15M195 243h15M255 243h15M195 244h15M255 244h15M195 245h15M255 245h15M195 246h15M255 246h15M195 247h15M255 247h15M195 248h15M255 248h15M195 249h15M255 249h15M195 250h15M255 250h15M195 251h15M255 251h15M195 252h15M255 252h15M195 253h15M255 253h15M195 254h15M255 254h15M210 255h45M210 256h45M210 257h45M210 258h45M210 259h45M210 260h45M210 261h45M210 262h45M210 263h45M210 264h45M210 265h45M210 266h45M210 267h45M210 268h45M210 269h45" />
<path stroke="#59715e" d="M270 225h15M270 226h15M270 227h15M270 228h15M270 229h15M270 230h15M270 231h15M270 232h15M270 233h15M270 234h15M270 235h15M270 236h15M270 237h15M270 238h15M270 239h15M165 240h15M270 240h30M165 241h15M270 241h30M165 242h15M270 242h30M165 243h15M270 243h30M165 244h15M270 244h30M165 245h15M270 245h30M165 246h15M270 246h30M165 247h15M270 247h30M165 248h15M270 248h30M165 249h15M270 249h30M165 250h15M270 250h30M165 251h15M270 251h30M165 252h15M270 252h30M165 253h15M270 253h30M165 254h15M270 254h30" />
<path stroke="#9a9a9a" d="M105 240h15M345 240h15M105 241h15M345 241h15M105 242h15M345 242h15M105 243h15M345 243h15M105 244h15M345 244h15M105 245h15M345 245h15M105 246h15M345 246h15M105 247h15M345 247h15M105 248h15M345 248h15M105 249h15M345 249h15M105 250h15M345 250h15M105 251h15M345 251h15M105 252h15M345 252h15M105 253h15M345 253h15M105 254h15M345 254h15M90 255h15M360 255h15M90 256h15M360 256h15M90 257h15M360 257h15M90 258h15M360 258h15M90 259h15M360 259h15M90 260h15M360 260h15M90 261h15M360 261h15M90 262h15M360 262h15M90 263h15M360 263h15M90 264h15M360 264h15M90 265h15M360 265h15M90 266h15M360 266h15M90 267h15M360 267h15M90 268h15M360 268h15M90 269h15M360 269h15" />
<path stroke="#936d4b" d="M120 240h15M330 240h15M120 241h15M330 241h15M120 242h15M330 242h15M120 243h15M330 243h15M120 244h15M330 244h15M120 245h15M330 245h15M120 246h15M330 246h15M120 247h15M330 247h15M120 248h15M330 248h15M120 249h15M330 249h15M120 250h15M330 250h15M120 251h15M330 251h15M120 252h15M330 252h15M120 253h15M330 253h15M120 254h15M330 254h15M105 255h15M345 255h15M105 256h15M345 256h15M105 257h15M345 257h15M105 258h15M345 258h15M105 259h15M345 259h15M105 260h15M345 260h15M105 261h15M345 261h15M105 262h15M345 262h15M105 263h15M345 263h15M105 264h15M345 264h15M105 265h15M345 265h15M105 266h15M345 266h15M105 267h15M345 267h15M105 268h15M345 268h15M105 269h15M345 269h15M90 270h15M360 270h15M90 271h15M360 271h15M90 272h15M360 272h15M90 273h15M360 273h15M90 274h15M360 274h15M90 275h15M360 275h15M90 276h15M360 276h15M90 277h15M360 277h15M90 278h15M360 278h15M90 279h15M360 279h15M90 280h15M360 280h15M90 281h15M360 281h15M90 282h15M360 282h15M90 283h15M360 283h15M90 284h15M360 284h15" />
<path stroke="#bababa" d="M135 240h15M315 240h15M135 241h15M315 241h15M135 242h15M315 242h15M135 243h15M315 243h15M135 244h15M315 244h15M135 245h15M315 245h15M135 246h15M315 246h15M135 247h15M315 247h15M135 248h15M315 248h15M135 249h15M315 249h15M135 250h15M315 250h15M135 251h15M315 251h15M135 252h15M315 252h15M135 253h15M315 253h15M135 254h15M315 254h15M120 255h15M330 255h15M120 256h15M330 256h15M120 257h15M330 257h15M120 258h15M330 258h15M120 259h15M330 259h15M120 260h15M330 260h15M120 261h15M330 261h15M120 262h15M330 262h15M120 263h15M330 263h15M120 264h15M330 264h15M120 265h15M330 265h15M120 266h15M330 266h15M120 267h15M330 267h15M120 268h15M330 268h15M120 269h15M330 269h15M105 270h15M345 270h15M105 271h15M345 271h15M105 272h15M345 272h15M105 273h15M345 273h15M105 274h15M345 274h15M105 275h15M345 275h15M105 276h15M345 276h15M105 277h15M345 277h15M105 278h15M345 278h15M105 279h15M345 279h15M105 280h15M345 280h15M105 281h15M345 281h15M105 282h15M345 282h15M105 283h15M345 283h15M105 284h15M345 284h15M90 285h15M360 285h15M90 286h15M360 286h15M90 287h15M360 287h15M90 288h15M360 288h15M90 289h15M360 289h15M90 290h15M360 290h15M90 291h15M360 291h15M90 292h15M360 292h15M90 293h15M360 293h15M90 294h15M360 294h15M90 295h15M360 295h15M90 296h15M360 296h15M90 297h15M360 297h15M90 298h15M360 298h15M90 299h15M360 299h15M210 375h45M210 376h45M210 377h45M210 378h45M210 379h45M210 380h45M210 381h45M210 382h45M210 383h45M210 384h45M210 385h45M210 386h45M210 387h45M210 388h45M210 389h45M150 390h15M195 390h30M240 390h30M300 390h15M150 391h15M195 391h30M240 391h30M300 391h15M150 392h15M195 392h30M240 392h30M300 392h15M150 393h15M195 393h30M240 393h30M300 393h15M150 394h15M195 394h30M240 394h30M300 394h15M150 395h15M195 395h30M240 395h30M300 395h15M150 396h15M195 396h30M240 396h30M300 396h15M150 397h15M195 397h30M240 397h30M300 397h15M150 398h15M195 398h30M240 398h30M300 398h15M150 399h15M195 399h30M240 399h30M300 399h15M150 400h15M195 400h30M240 400h30M300 400h15M150 401h15M195 401h30M240 401h30M300 401h15M150 402h15M195 402h30M240 402h30M300 402h15M150 403h15M195 403h30M240 403h30M300 403h15M150 404h15M195 404h30M240 404h30M300 404h15M210 405h45M210 406h45M210 407h45M210 408h45M210 409h45M210 410h45M210 411h45M210 412h45M210 413h45M210 414h45M210 415h45M210 416h45M210 417h45M210 418h45M210 419h45M135 570h15M240 570h15M135 571h15M240 571h15M135 572h15M240 572h15M135 573h15M240 573h15M135 574h15M240 574h15M135 575h15M240 575h15M135 576h15M240 576h15M135 577h15M240 577h15M135 578h15M240 578h15M135 579h15M240 579h15M135 580h15M240 580h15M135 581h15M240 581h15M135 582h15M240 582h15M135 583h15M240 583h15M135 584h15M240 584h15" />
<path stroke="#607a65" d="M150 240h15M300 240h15M150 241h15M300 241h15M150 242h15M300 242h15M150 243h15M300 243h15M150 244h15M300 244h15M150 245h15M300 245h15M150 246h15M300 246h15M150 247h15M300 247h15M150 248h15M300 248h15M150 249h15M300 249h15M150 250h15M300 250h15M150 251h15M300 251h15M150 252h15M300 252h15M150 253h15M300 253h15M150 254h15M300 254h15M150 255h15M270 255h45M150 256h15M270 256h45M150 257h15M270 257h45M150 258h15M270 258h45M150 259h15M270 259h45M150 260h15M270 260h45M150 261h15M270 261h45M150 262h15M270 262h45M150 263h15M270 263h45M150 264h15M270 264h45M150 265h15M270 265h45M150 266h15M270 266h45M150 267h15M270 267h45M150 268h15M270 268h45M150 269h15M270 269h45M150 270h15M270 270h15M300 270h15M150 271h15M270 271h15M300 271h15M150 272h15M270 272h15M300 272h15M150 273h15M270 273h15M300 273h15M150 274h15M270 274h15M300 274h15M150 275h15M270 275h15M300 275h15M150 276h15M270 276h15M300 276h15M150 277h15M270 277h15M300 277h15M150 278h15M270 278h15M300 278h15M150 279h15M270 279h15M300 279h15M150 280h15M270 280h15M300 280h15M150 281h15M270 281h15M300 281h15M150 282h15M270 282h15M300 282h15M150 283h15M270 283h15M300 283h15M150 284h15M270 284h15M300 284h15M150 285h15M240 285h45M300 285h15M150 286h15M240 286h45M300 286h15M150 287h15M240 287h45M300 287h15M150 288h15M240 288h45M300 288h15M150 289h15M240 289h45M300 289h15M150 290h15M240 290h45M300 290h15M150 291h15M240 291h45M300 291h15M150 292h15M240 292h45M300 292h15M150 293h15M240 293h45M300 293h15M150 294h15M240 294h45M300 294h15M150 295h15M240 295h45M300 295h15M150 296h15M240 296h45M300 296h15M150 297h15M240 297h45M300 297h15M150 298h15M240 298h45M300 298h15M150 299h15M240 299h45M300 299h15M135 300h30M210 300h60M135 301h30M210 301h60M135 302h30M210 302h60M135 303h30M210 303h60M135 304h30M210 304h60M135 305h30M210 305h60M135 306h30M210 306h60M135 307h30M210 307h60M135 308h30M210 308h60M135 309h30M210 309h60M135 310h30M210 310h60M135 311h30M210 311h60M135 312h30M210 312h60M135 313h30M210 313h60M135 314h30M210 314h60M120 315h30M195 315h45M120 316h30M195 316h45M120 317h30M195 317h45M120 318h30M195 318h45M120 319h30M195 319h45M120 320h30M195 320h45M120 321h30M195 321h45M120 322h30M195 322h45M120 323h30M195 323h45M120 324h30M195 324h45M120 325h30M195 325h45M120 326h30M195 326h45M120 327h30M195 327h45M120 328h30M195 328h45M120 329h30M195 329h45M135 330h15M180 330h30M135 331h15M180 331h30M135 332h15M180 332h30M135 333h15M180 333h30M135 334h15M180 334h30M135 335h15M180 335h30M135 336h15M180 336h30M135 337h15M180 337h30M135 338h15M180 338h30M135 339h15M180 339h30M135 340h15M180 340h30M135 341h15M180 341h30M135 342h15M180 342h30M135 343h15M180 343h30M135 344h15M180 344h30M135 345h15M165 345h30M135 346h15M165 346h30M135 347h15M165 347h30M135 348h15M165 348h30M135 349h15M165 349h30M135 350h15M165 350h30M135 351h15M165 351h30M135 352h15M165 352h30M135 353h15M165 353h30M135 354h15M165 354h30M135 355h15M165 355h30M135 356h15M165 356h30M135 357h15M165 357h30M135 358h15M165 358h30M135 359h15M165 359h30M135 360h45M135 361h45M135 362h45M135 363h45M135 364h45M135 365h45M135 366h45M135 367h45M135 368h45M135 369h45M135 370h45M135 371h45M135 372h45M135 373h45M135 374h45M255 405h30M255 406h30M255 407h30M255 408h30M255 409h30M255 410h30M255 411h30M255 412h30M255 413h30M255 414h30M255 415h30M255 416h30M255 417h30M255 418h30M255 419h30M255 420h30M255 421h30M255 422h30M255 423h30M255 424h30M255 425h30M255 426h30M255 427h30M255 428h30M255 429h30M255 430h30M255 431h30M255 432h30M255 433h30M255 434h30" />
<path stroke="#4d6251" d="M180 240h15M180 241h15M180 242h15M180 243h15M180 244h15M180 245h15M180 246h15M180 247h15M180 248h15M180 249h15M180 250h15M180 251h15M180 252h15M180 253h15M180 254h15M165 255h45M255 255h15M165 256h45M255 256h15M165 257h45M255 257h15M165 258h45M255 258h15M165 259h45M255 259h15M165 260h45M255 260h15M165 261h45M255 261h15M165 262h45M255 262h15M165 263h45M255 263h15M165 264h45M255 264h15M165 265h45M255 265h15M165 266h45M255 266h15M165 267h45M255 267h15M165 268h45M255 268h15M165 269h45M255 269h15M165 270h105M285 270h15M165 271h105M285 271h15M165 272h105M285 272h15M165 273h105M285 273h15M165 274h105M285 274h15M165 275h105M285 275h15M165 276h105M285 276h15M165 277h105M285 277h15M165 278h105M285 278h15M165 279h105M285 279h15M165 280h105M285 280h15M165 281h105M285 281h15M165 282h105M285 282h15M165 283h105M285 283h15M165 284h105M285 284h15M165 285h75M285 285h15M165 286h75M285 286h15M165 287h75M285 287h15M165 288h75M285 288h15M165 289h75M285 289h15M165 290h75M285 290h15M165 291h75M285 291h15M165 292h75M285 292h15M165 293h75M285 293h15M165 294h75M285 294h15M165 295h75M285 295h15M165 296h75M285 296h15M165 297h75M285 297h15M165 298h75M285 298h15M165 299h75M285 299h15M165 300h45M285 300h30M165 301h45M285 301h30M165 302h45M285 302h30M165 303h45M285 303h30M165 304h45M285 304h30M165 305h45M285 305h30M165 306h45M285 306h30M165 307h45M285 307h30M165 308h45M285 308h30M165 309h45M285 309h30M165 310h45M285 310h30M165 311h45M285 311h30M165 312h45M285 312h30M165 313h45M285 313h30M165 314h45M285 314h30M150 315h45M300 315h45M150 316h45M300 316h45M150 317h45M300 317h45M150 318h45M300 318h45M150 319h45M300 319h45M150 320h45M300 320h45M150 321h45M300 321h45M150 322h45M300 322h45M150 323h45M300 323h45M150 324h45M300 324h45M150 325h45M300 325h45M150 326h45M300 326h45M150 327h45M300 327h45M150 328h45M300 328h45M150 329h45M300 329h45M150 330h30M300 330h30M150 331h30M300 331h30M150 332h30M300 332h30M150 333h30M300 333h30M150 334h30M300 334h30M150 335h30M300 335h30M150 336h30M300 336h30M150 337h30M300 337h30M150 338h30M300 338h30M150 339h30M300 339h30M150 340h30M300 340h30M150 341h30M300 341h30M150 342h30M300 342h30M150 343h30M300 343h30M150 344h30M300 344h30M150 345h15M300 345h30M150 346h15M300 346h30M150 347h15M300 347h30M150 348h15M300 348h30M150 349h15M300 349h30M150 350h15M300 350h30M150 351h15M300 351h30M150 352h15M300 352h30M150 353h15M300 353h30M150 354h15M300 354h30M150 355h15M300 355h30M150 356h15M300 356h30M150 357h15M300 357h30M150 358h15M300 358h30M150 359h15M300 359h30M300 360h30M300 361h30M300 362h30M300 363h30M300 364h30M300 365h30M300 366h30M300 367h30M300 368h30M300 369h30M300 370h30M300 371h30M300 372h30M300 373h30M300 374h30M150 375h30M285 375h30M150 376h30M285 376h30M150 377h30M285 377h30M150 378h30M285 378h30M150 379h30M285 379h30M150 380h30M285 380h30M150 381h30M285 381h30M150 382h30M285 382h30M150 383h30M285 383h30M150 384h30M285 384h30M150 385h30M285 385h30M150 386h30M285 386h30M150 387h30M285 387h30M150 388h30M285 388h30M150 389h30M285 389h30" />
<path stroke="#9f7753" d="M135 255h15M315 255h15M135 256h15M315 256h15M135 257h15M315 257h15M135 258h15M315 258h15M135 259h15M315 259h15M135 260h15M315 260h15M135 261h15M315 261h15M135 262h15M315 262h15M135 263h15M315 263h15M135 264h15M315 264h15M135 265h15M315 265h15M135 266h15M315 266h15M135 267h15M315 267h15M135 268h15M315 268h15M135 269h15M315 269h15M120 270h30M315 270h30M120 271h30M315 271h30M120 272h30M315 272h30M120 273h30M315 273h30M120 274h30M315 274h30M120 275h30M315 275h30M120 276h30M315 276h30M120 277h30M315 277h30M120 278h30M315 278h30M120 279h30M315 279h30M120 280h30M315 280h30M120 281h30M315 281h30M120 282h30M315 282h30M120 283h30M315 283h30M120 284h30M315 284h30M105 285h45M315 285h45M105 286h45M315 286h45M105 287h45M315 287h45M105 288h45M315 288h45M105 289h45M315 289h45M105 290h45M315 290h45M105 291h45M315 291h45M105 292h45M315 292h45M105 293h45M315 293h45M105 294h45M315 294h45M105 295h45M315 295h45M105 296h45M315 296h45M105 297h45M315 297h45M105 298h45M315 298h45M105 299h45M315 299h45M90 300h45M330 300h45M90 301h45M330 301h45M90 302h45M330 302h45M90 303h45M330 303h45M90 304h45M330 304h45M90 305h45M330 305h45M90 306h45M330 306h45M90 307h45M330 307h45M90 308h45M330 308h45M90 309h45M330 309h45M90 310h45M330 310h45M90 311h45M330 311h45M90 312h45M330 312h45M90 313h45M330 313h45M90 314h45M330 314h45" />
<path stroke="#578748" d="M75 285h15M375 285h15M75 286h15M375 286h15M75 287h15M375 287h15M75 288h15M375 288h15M75 289h15M375 289h15M75 290h15M375 290h15M75 291h15M375 291h15M75 292h15M375 292h15M75 293h15M375 293h15M75 294h15M375 294h15M75 295h15M375 295h15M75 296h15M375 296h15M75 297h15M375 297h15M75 298h15M375 298h15M75 299h15M375 299h15M75 300h15M375 300h15M75 301h15M375 301h15M75 302h15M375 302h15M75 303h15M375 303h15M75 304h15M375 304h15M75 305h15M375 305h15M75 306h15M375 306h15M75 307h15M375 307h15M75 308h15M375 308h15M75 309h15M375 309h15M75 310h15M375 310h15M75 311h15M375 311h15M75 312h15M375 312h15M75 313h15M375 313h15M75 314h15M375 314h15M75 315h15M375 315h15M75 316h15M375 316h15M75 317h15M375 317h15M75 318h15M375 318h15M75 319h15M375 319h15M75 320h15M375 320h15M75 321h15M375 321h15M75 322h15M375 322h15M75 323h15M375 323h15M75 324h15M375 324h15M75 325h15M375 325h15M75 326h15M375 326h15M75 327h15M375 327h15M75 328h15M375 328h15M75 329h15M375 329h15M75 330h15M375 330h15M75 331h15M375 331h15M75 332h15M375 332h15M75 333h15M375 333h15M75 334h15M375 334h15M75 335h15M375 335h15M75 336h15M375 336h15M75 337h15M375 337h15M75 338h15M375 338h15M75 339h15M375 339h15M75 340h15M375 340h15M75 341h15M375 341h15M75 342h15M375 342h15M75 343h15M375 343h15M75 344h15M375 344h15M60 345h30M375 345h30M60 346h30M375 346h30M60 347h30M375 347h30M60 348h30M375 348h30M60 349h30M375 349h30M60 350h30M375 350h30M60 351h30M375 351h30M60 352h30M375 352h30M60 353h30M375 353h30M60 354h30M375 354h30M60 355h30M375 355h30M60 356h30M375 356h30M60 357h30M375 357h30M60 358h30M375 358h30M60 359h30M375 359h30M60 360h15M390 360h15M60 361h15M390 361h15M60 362h15M390 362h15M60 363h15M390 363h15M60 364h15M390 364h15M60 365h15M390 365h15M60 366h15M390 366h15M60 367h15M390 367h15M60 368h15M390 368h15M60 369h15M390 369h15M60 370h15M390 370h15M60 371h15M390 371h15M60 372h15M390 372h15M60 373h15M390 373h15M60 374h15M390 374h15M60 375h15M390 375h15M60 376h15M390 376h15M60 377h15M390 377h15M60 378h15M390 378h15M60 379h15M390 379h15M60 380h15M390 380h15M60 381h15M390 381h15M60 382h15M390 382h15M60 383h15M390 383h15M60 384h15M390 384h15M60 385h15M390 385h15M60 386h15M390 386h15M60 387h15M390 387h15M60 388h15M390 388h15M60 389h15M390 389h15M60 390h15M390 390h15M60 391h15M390 391h15M60 392h15M390 392h15M60 393h15M390 393h15M60 394h15M390 394h15M60 395h15M390 395h15M60 396h15M390 396h15M60 397h15M390 397h15M60 398h15M390 398h15M60 399h15M390 399h15M60 400h15M390 400h15M60 401h15M390 401h15M60 402h15M390 402h15M60 403h15M390 403h15M60 404h15M390 404h15" />
<path stroke="#66946e" d="M270 300h15M270 301h15M270 302h15M270 303h15M270 304h15M270 305h15M270 306h15M270 307h15M270 308h15M270 309h15M270 310h15M270 311h15M270 312h15M270 313h15M270 314h15M240 315h60M240 316h60M240 317h60M240 318h60M240 319h60M240 320h60M240 321h60M240 322h60M240 323h60M240 324h60M240 325h60M240 326h60M240 327h60M240 328h60M240 329h60M210 330h45M210 331h45M210 332h45M210 333h45M210 334h45M210 335h45M210 336h45M210 337h45M210 338h45M210 339h45M210 340h45M210 341h45M210 342h45M210 343h45M210 344h45M195 345h30M195 346h30M195 347h30M195 348h30M195 349h30M195 350h30M195 351h30M195 352h30M195 353h30M195 354h30M195 355h30M195 356h30M195 357h30M195 358h30M195 359h30M180 360h30M180 361h30M180 362h30M180 363h30M180 364h30M180 365h30M180 366h30M180 367h30M180 368h30M180 369h30M180 370h30M180 371h30M180 372h30M180 373h30M180 374h30M180 375h15M180 376h15M180 377h15M180 378h15M180 379h15M180 380h15M180 381h15M180 382h15M180 383h15M180 384h15M180 385h15M180 386h15M180 387h15M180 388h15M180 389h15" />
<path stroke="#657a64" d="M315 300h15M315 301h15M315 302h15M315 303h15M315 304h15M315 305h15M315 306h15M315 307h15M315 308h15M315 309h15M315 310h15M315 311h15M315 312h15M315 313h15M315 314h15" />
<path stroke="#559342" d="M90 315h30M345 315h30M90 316h30M345 316h30M90 317h30M345 317h30M90 318h30M345 318h30M90 319h30M345 319h30M90 320h30M345 320h30M90 321h30M345 321h30M90 322h30M345 322h30M90 323h30M345 323h30M90 324h30M345 324h30M90 325h30M345 325h30M90 326h30M345 326h30M90 327h30M345 327h30M90 328h30M345 328h30M90 329h30M345 329h30M90 330h30M345 330h30M90 331h30M345 331h30M90 332h30M345 332h30M90 333h30M345 333h30M90 334h30M345 334h30M90 335h30M345 335h30M90 336h30M345 336h30M90 337h30M345 337h30M90 338h30M345 338h30M90 339h30M345 339h30M90 340h30M345 340h30M90 341h30M345 341h30M90 342h30M345 342h30M90 343h30M345 343h30M90 344h30M345 344h30M90 345h30M345 345h30M90 346h30M345 346h30M90 347h30M345 347h30M90 348h30M345 348h30M90 349h30M345 349h30M90 350h30M345 350h30M90 351h30M345 351h30M90 352h30M345 352h30M90 353h30M345 353h30M90 354h30M345 354h30M90 355h30M345 355h30M90 356h30M345 356h30M90 357h30M345 357h30M90 358h30M345 358h30M90 359h30M345 359h30M75 360h45M345 360h45M75 361h45M345 361h45M75 362h45M345 362h45M75 363h45M345 363h45M75 364h45M345 364h45M75 365h45M345 365h45M75 366h45M345 366h45M75 367h45M345 367h45M75 368h45M345 368h45M75 369h45M345 369h45M75 370h45M345 370h45M75 371h45M345 371h45M75 372h45M345 372h45M75 373h45M345 373h45M75 374h45M345 374h45" />
<path stroke="#6d9e76" d="M255 330h45M255 331h45M255 332h45M255 333h45M255 334h45M255 335h45M255 336h45M255 337h45M255 338h45M255 339h45M255 340h45M255 341h45M255 342h45M255 343h45M255 344h45M225 345h75M225 346h75M225 347h75M225 348h75M225 349h75M225 350h75M225 351h75M225 352h75M225 353h75M225 354h75M225 355h75M225 356h75M225 357h75M225 358h75M225 359h75M210 360h90M210 361h90M210 362h90M210 363h90M210 364h90M210 365h90M210 366h90M210 367h90M210 368h90M210 369h90M210 370h90M210 371h90M210 372h90M210 373h90M210 374h90M195 375h15M255 375h30M195 376h15M255 376h30M195 377h15M255 377h30M195 378h15M255 378h30M195 379h15M255 379h30M195 380h15M255 380h30M195 381h15M255 381h30M195 382h15M255 382h30M195 383h15M255 383h30M195 384h15M255 384h30M195 385h15M255 385h30M195 386h15M255 386h30M195 387h15M255 387h30M195 388h15M255 388h30M195 389h15M255 389h30" />
<path stroke="#5da148" d="M75 375h30M360 375h30M75 376h30M360 376h30M75 377h30M360 377h30M75 378h30M360 378h30M75 379h30M360 379h30M75 380h30M360 380h30M75 381h30M360 381h30M75 382h30M360 382h30M75 383h30M360 383h30M75 384h30M360 384h30M75 385h30M360 385h30M75 386h30M360 386h30M75 387h30M360 387h30M75 388h30M360 388h30M75 389h30M360 389h30M75 390h30M360 390h30M75 391h30M360 391h30M75 392h30M360 392h30M75 393h30M360 393h30M75 394h30M360 394h30M75 395h30M360 395h30M75 396h30M360 396h30M75 397h30M360 397h30M75 398h30M360 398h30M75 399h30M360 399h30M75 400h30M360 400h30M75 401h30M360 401h30M75 402h30M360 402h30M75 403h30M360 403h30M75 404h30M360 404h30" />
<path stroke="#a19488" d="M165 390h30M225 390h15M270 390h30M165 391h30M225 391h15M270 391h30M165 392h30M225 392h15M270 392h30M165 393h30M225 393h15M270 393h30M165 394h30M225 394h15M270 394h30M165 395h30M225 395h15M270 395h30M165 396h30M225 396h15M270 396h30M165 397h30M225 397h15M270 397h30M165 398h30M225 398h15M270 398h30M165 399h30M225 399h15M270 399h30M165 400h30M225 400h15M270 400h30M165 401h30M225 401h15M270 401h30M165 402h30M225 402h15M270 402h30M165 403h30M225 403h15M270 403h30M165 404h30M225 404h15M270 404h30" />
<path stroke="#73563d" d="M60 405h45M360 405h45M60 406h45M360 406h45M60 407h45M360 407h45M60 408h45M360 408h45M60 409h45M360 409h45M60 410h45M360 410h45M60 411h45M360 411h45M60 412h45M360 412h45M60 413h45M360 413h45M60 414h45M360 414h45M60 415h45M360 415h45M60 416h45M360 416h45M60 417h45M360 417h45M60 418h45M360 418h45M60 419h45M360 419h45M60 420h60M345 420h60M60 421h60M345 421h60M60 422h60M345 422h60M60 423h60M345 423h60M60 424h60M345 424h60M60 425h60M345 425h60M60 426h60M345 426h60M60 427h60M345 427h60M60 428h60M345 428h60M60 429h60M345 429h60M60 430h60M345 430h60M60 431h60M345 431h60M60 432h60M345 432h60M60 433h60M345 433h60M60 434h60M345 434h60M105 435h15M345 435h15M105 436h15M345 436h15M105 437h15M345 437h15M105 438h15M345 438h15M105 439h15M345 439h15M105 440h15M345 440h15M105 441h15M345 441h15M105 442h15M345 442h15M105 443h15M345 443h15M105 444h15M345 444h15M105 445h15M345 445h15M105 446h15M345 446h15M105 447h15M345 447h15M105 448h15M345 448h15M105 449h15M345 449h15M60 450h45M360 450h45M60 451h45M360 451h45M60 452h45M360 452h45M60 453h45M360 453h45M60 454h45M360 454h45M60 455h45M360 455h45M60 456h45M360 456h45M60 457h45M360 457h45M60 458h45M360 458h45M60 459h45M360 459h45M60 460h45M360 460h45M60 461h45M360 461h45M60 462h45M360 462h45M60 463h45M360 463h45M60 464h45M360 464h45M195 465h15M255 465h15M195 466h15M255 466h15M195 467h15M255 467h15M195 468h15M255 468h15M195 469h15M255 469h15M195 470h15M255 470h15M195 471h15M255 471h15M195 472h15M255 472h15M195 473h15M255 473h15M195 474h15M255 474h15M195 475h15M255 475h15M195 476h15M255 476h15M195 477h15M255 477h15M195 478h15M255 478h15M195 479h15M255 479h15M150 480h15M195 480h15M255 480h15M300 480h15M150 481h15M195 481h15M255 481h15M300 481h15M150 482h15M195 482h15M255 482h15M300 482h15M150 483h15M195 483h15M255 483h15M300 483h15M150 484h15M195 484h15M255 484h15M300 484h15M150 485h15M195 485h15M255 485h15M300 485h15M150 486h15M195 486h15M255 486h15M300 486h15M150 487h15M195 487h15M255 487h15M300 487h15M150 488h15M195 488h15M255 488h15M300 488h15M150 489h15M195 489h15M255 489h15M300 489h15M150 490h15M195 490h15M255 490h15M300 490h15M150 491h15M195 491h15M255 491h15M300 491h15M150 492h15M195 492h15M255 492h15M300 492h15M150 493h15M195 493h15M255 493h15M300 493h15M150 494h15M195 494h15M255 494h15M300 494h15M150 495h15M195 495h15M255 495h15M300 495h15M150 496h15M195 496h15M255 496h15M300 496h15M150 497h15M195 497h15M255 497h15M300 497h15M150 498h15M195 498h15M255 498h15M300 498h15M150 499h15M195 499h15M255 499h15M300 499h15M150 500h15M195 500h15M255 500h15M300 500h15M150 501h15M195 501h15M255 501h15M300 501h15M150 502h15M195 502h15M255 502h15M300 502h15M150 503h15M195 503h15M255 503h15M300 503h15M150 504h15M195 504h15M255 504h15M300 504h15M150 505h15M195 505h15M255 505h15M300 505h15M150 506h15M195 506h15M255 506h15M300 506h15M150 507h15M195 507h15M255 507h15M300 507h15M150 508h15M195 508h15M255 508h15M300 508h15M150 509h15M195 509h15M255 509h15M300 509h15M150 510h15M195 510h15M255 510h15M300 510h15M150 511h15M195 511h15M255 511h15M300 511h15M150 512h15M195 512h15M255 512h15M300 512h15M150 513h15M195 513h15M255 513h15M300 513h15M150 514h15M195 514h15M255 514h15M300 514h15M150 515h15M195 515h15M255 515h15M300 515h15M150 516h15M195 516h15M255 516h15M300 516h15M150 517h15M195 517h15M255 517h15M300 517h15M150 518h15M195 518h15M255 518h15M300 518h15M150 519h15M195 519h15M255 519h15M300 519h15M150 520h15M195 520h15M255 520h15M300 520h15M150 521h15M195 521h15M255 521h15M300 521h15M150 522h15M195 522h15M255 522h15M300 522h15M150 523h15M195 523h15M255 523h15M300 523h15M150 524h15M195 524h15M255 524h15M300 524h15M150 525h15M195 525h15M255 525h15M300 525h15M150 526h15M195 526h15M255 526h15M300 526h15M150 527h15M195 527h15M255 527h15M300 527h15M150 528h15M195 528h15M255 528h15M300 528h15M150 529h15M195 529h15M255 529h15M300 529h15M150 530h15M195 530h15M255 530h15M300 530h15M150 531h15M195 531h15M255 531h15M300 531h15M150 532h15M195 532h15M255 532h15M300 532h15M150 533h15M195 533h15M255 533h15M300 533h15M150 534h15M195 534h15M255 534h15M300 534h15M150 535h15M195 535h15M255 535h15M300 535h15M150 536h15M195 536h15M255 536h15M300 536h15M150 537h15M195 537h15M255 537h15M300 537h15M150 538h15M195 538h15M255 538h15M300 538h15M150 539h15M195 539h15M255 539h15M300 539h15M150 540h15M195 540h15M255 540h15M300 540h15M150 541h15M195 541h15M255 541h15M300 541h15M150 542h15M195 542h15M255 542h15M300 542h15M150 543h15M195 543h15M255 543h15M300 543h15M150 544h15M195 544h15M255 544h15M300 544h15M150 545h15M195 545h15M255 545h15M300 545h15M150 546h15M195 546h15M255 546h15M300 546h15M150 547h15M195 547h15M255 547h15M300 547h15M150 548h15M195 548h15M255 548h15M300 548h15M150 549h15M195 549h15M255 549h15M300 549h15M150 550h15M195 550h15M255 550h15M300 550h15M150 551h15M195 551h15M255 551h15M300 551h15M150 552h15M195 552h15M255 552h15M300 552h15M150 553h15M195 553h15M255 553h15M300 553h15M150 554h15M195 554h15M255 554h15M300 554h15M150 555h15M195 555h15M255 555h15M300 555h15M150 556h15M195 556h15M255 556h15M300 556h15M150 557h15M195 557h15M255 557h15M300 557h15M150 558h15M195 558h15M255 558h15M300 558h15M150 559h15M195 559h15M255 559h15M300 559h15M150 560h15M195 560h15M255 560h15M300 560h15M150 561h15M195 561h15M255 561h15M300 561h15M150 562h15M195 562h15M255 562h15M300 562h15M150 563h15M195 563h15M255 563h15M300 563h15M150 564h15M195 564h15M255 564h15M300 564h15M150 565h15M195 565h15M255 565h15M300 565h15M150 566h15M195 566h15M255 566h15M300 566h15M150 567h15M195 567h15M255 567h15M300 567h15M150 568h15M195 568h15M255 568h15M300 568h15M150 569h15M195 569h15M255 569h15M300 569h15" />
<path stroke="#424037" d="M135 405h15M315 405h15M135 406h15M315 406h15M135 407h15M315 407h15M135 408h15M315 408h15M135 409h15M315 409h15M135 410h15M315 410h15M135 411h15M315 411h15M135 412h15M315 412h15M135 413h15M315 413h15M135 414h15M315 414h15M135 415h15M315 415h15M135 416h15M315 416h15M135 417h15M315 417h15M135 418h15M315 418h15M135 419h15M315 419h15M135 420h15M210 420h15M240 420h15M315 420h15M135 421h15M210 421h15M240 421h15M315 421h15M135 422h15M210 422h15M240 422h15M315 422h15M135 423h15M210 423h15M240 423h15M315 423h15M135 424h15M210 424h15M240 424h15M315 424h15M135 425h15M210 425h15M240 425h15M315 425h15M135 426h15M210 426h15M240 426h15M315 426h15M135 427h15M210 427h15M240 427h15M315 427h15M135 428h15M210 428h15M240 428h15M315 428h15M135 429h15M210 429h15M240 429h15M315 429h15M135 430h15M210 430h15M240 430h15M315 430h15M135 431h15M210 431h15M240 431h15M315 431h15M135 432h15M210 432h15M240 432h15M315 432h15M135 433h15M210 433h15M240 433h15M315 433h15M135 434h15M210 434h15M240 434h15M315 434h15M135 435h15M210 435h15M240 435h15M315 435h15M135 436h15M210 436h15M240 436h15M315 436h15M135 437h15M210 437h15M240 437h15M315 437h15M135 438h15M210 438h15M240 438h15M315 438h15M135 439h15M210 439h15M240 439h15M315 439h15M135 440h15M210 440h15M240 440h15M315 440h15M135 441h15M210 441h15M240 441h15M315 441h15M135 442h15M210 442h15M240 442h15M315 442h15M135 443h15M210 443h15M240 443h15M315 443h15M135 444h15M210 444h15M240 444h15M315 444h15M135 445h15M210 445h15M240 445h15M315 445h15M135 446h15M210 446h15M240 446h15M315 446h15M135 447h15M210 447h15M240 447h15M315 447h15M135 448h15M210 448h15M240 448h15M315 448h15M135 449h15M210 449h15M240 449h15M315 449h15M135 450h15M315 450h15M135 451h15M315 451h15M135 452h15M315 452h15M135 453h15M315 453h15M135 454h15M315 454h15M135 455h15M315 455h15M135 456h15M315 456h15M135 457h15M315 457h15M135 458h15M315 458h15M135 459h15M315 459h15M135 460h15M315 460h15M135 461h15M315 461h15M135 462h15M315 462h15M135 463h15M315 463h15M135 464h15M315 464h15M135 465h15M315 465h15M135 466h15M315 466h15M135 467h15M315 467h15M135 468h15M315 468h15M135 469h15M315 469h15M135 470h15M315 470h15M135 471h15M315 471h15M135 472h15M315 472h15M135 473h15M315 473h15M135 474h15M315 474h15M135 475h15M315 475h15M135 476h15M315 476h15M135 477h15M315 477h15M135 478h15M315 478h15M135 479h15M315 479h15M135 480h15M315 480h15M135 481h15M315 481h15M135 482h15M315 482h15M135 483h15M315 483h15M135 484h15M315 484h15M135 485h15M315 485h15M135 486h15M315 486h15M135 487h15M315 487h15M135 488h15M315 488h15M135 489h15M315 489h15M135 490h15M315 490h15M135 491h15M315 491h15M135 492h15M315 492h15M135 493h15M315 493h15M135 494h15M315 494h15" />
<path stroke="#674d36" d="M150 405h15M150 406h15M150 407h15M150 408h15M150 409h15M150 410h15M150 411h15M150 412h15M150 413h15M150 414h15M150 415h15M150 416h15M150 417h15M150 418h15M150 419h15M150 420h15M195 420h15M300 420h15M150 421h15M195 421h15M300 421h15M150 422h15M195 422h15M300 422h15M150 423h15M195 423h15M300 423h15M150 424h15M195 424h15M300 424h15M150 425h15M195 425h15M300 425h15M150 426h15M195 426h15M300 426h15M150 427h15M195 427h15M300 427h15M150 428h15M195 428h15M300 428h15M150 429h15M195 429h15M300 429h15M150 430h15M195 430h15M300 430h15M150 431h15M195 431h15M300 431h15M150 432h15M195 432h15M300 432h15M150 433h15M195 433h15M300 433h15M150 434h15M195 434h15M300 434h15M150 435h30M195 435h15M255 435h30M300 435h15M150 436h30M195 436h15M255 436h30M300 436h15M150 437h30M195 437h15M255 437h30M300 437h15M150 438h30M195 438h15M255 438h30M300 438h15M150 439h30M195 439h15M255 439h30M300 439h15M150 440h30M195 440h15M255 440h30M300 440h15M150 441h30M195 441h15M255 441h30M300 441h15M150 442h30M195 442h15M255 442h30M300 442h15M150 443h30M195 443h15M255 443h30M300 443h15M150 444h30M195 444h15M255 444h30M300 444h15M150 445h30M195 445h15M255 445h30M300 445h15M150 446h30M195 446h15M255 446h30M300 446h15M150 447h30M195 447h15M255 447h30M300 447h15M150 448h30M195 448h15M255 448h30M300 448h15M150 449h30M195 449h15M255 449h30M300 449h15M150 450h30M195 450h15M255 450h30M300 450h15M150 451h30M195 451h15M255 451h30M300 451h15M150 452h30M195 452h15M255 452h30M300 452h15M150 453h30M195 453h15M255 453h30M300 453h15M150 454h30M195 454h15M255 454h30M300 454h15M150 455h30M195 455h15M255 455h30M300 455h15M150 456h30M195 456h15M255 456h30M300 456h15M150 457h30M195 457h15M255 457h30M300 457h15M150 458h30M195 458h15M255 458h30M300 458h15M150 459h30M195 459h15M255 459h30M300 459h15M150 460h30M195 460h15M255 460h30M300 460h15M150 461h30M195 461h15M255 461h30M300 461h15M150 462h30M195 462h15M255 462h30M300 462h15M150 463h30M195 463h15M255 463h30M300 463h15M150 464h30M195 464h15M255 464h30M300 464h15M150 465h15M300 465h15M150 466h15M300 466h15M150 467h15M300 467h15M150 468h15M300 468h15M150 469h15M300 469h15M150 470h15M300 470h15M150 471h15M300 471h15M150 472h15M300 472h15M150 473h15M300 473h15M150 474h15M300 474h15M150 475h15M300 475h15M150 476h15M300 476h15M150 477h15M300 477h15M150 478h15M300 478h15M150 479h15M300 479h15" />
<path stroke="#2d2c26" d="M165 405h45M285 405h30M165 406h45M285 406h30M165 407h45M285 407h30M165 408h45M285 408h30M165 409h45M285 409h30M165 410h45M285 410h30M165 411h45M285 411h30M165 412h45M285 412h30M165 413h45M285 413h30M165 414h45M285 414h30M165 415h45M285 415h30M165 416h45M285 416h30M165 417h45M285 417h30M165 418h45M285 418h30M165 419h45M285 419h30M165 420h30M285 420h15M165 421h30M285 421h15M165 422h30M285 422h15M165 423h30M285 423h15M165 424h30M285 424h15M165 425h30M285 425h15M165 426h30M285 426h15M165 427h30M285 427h15M165 428h30M285 428h15M165 429h30M285 429h15M165 430h30M285 430h15M165 431h30M285 431h15M165 432h30M285 432h15M165 433h30M285 433h15M165 434h30M285 434h15M180 435h15M285 435h15M180 436h15M285 436h15M180 437h15M285 437h15M180 438h15M285 438h15M180 439h15M285 439h15M180 440h15M285 440h15M180 441h15M285 441h15M180 442h15M285 442h15M180 443h15M285 443h15M180 444h15M285 444h15M180 445h15M285 445h15M180 446h15M285 446h15M180 447h15M285 447h15M180 448h15M285 448h15M180 449h15M285 449h15M180 450h15M285 450h15M180 451h15M285 451h15M180 452h15M285 452h15M180 453h15M285 453h15M180 454h15M285 454h15M180 455h15M285 455h15M180 456h15M285 456h15M180 457h15M285 457h15M180 458h15M285 458h15M180 459h15M285 459h15M180 460h15M285 460h15M180 461h15M285 461h15M180 462h15M285 462h15M180 463h15M285 463h15M180 464h15M285 464h15M165 465h30M270 465h30M165 466h30M270 466h30M165 467h30M270 467h30M165 468h30M270 468h30M165 469h30M270 469h30M165 470h30M270 470h30M165 471h30M270 471h30M165 472h30M270 472h30M165 473h30M270 473h30M165 474h30M270 474h30M165 475h30M270 475h30M165 476h30M270 476h30M165 477h30M270 477h30M165 478h30M270 478h30M165 479h30M270 479h30M165 480h30M270 480h30M165 481h30M270 481h30M165 482h30M270 482h30M165 483h30M270 483h30M165 484h30M270 484h30M165 485h30M270 485h30M165 486h30M270 486h30M165 487h30M270 487h30M165 488h30M270 488h30M165 489h30M270 489h30M165 490h30M270 490h30M165 491h30M270 491h30M165 492h30M270 492h30M165 493h30M270 493h30M165 494h30M270 494h30M165 495h30M270 495h30M165 496h30M270 496h30M165 497h30M270 497h30M165 498h30M270 498h30M165 499h30M270 499h30M165 500h30M270 500h30M165 501h30M270 501h30M165 502h30M270 502h30M165 503h30M270 503h30M165 504h30M270 504h30M165 505h30M270 505h30M165 506h30M270 506h30M165 507h30M270 507h30M165 508h30M270 508h30M165 509h30M270 509h30M165 510h30M270 510h30M165 511h30M270 511h30M165 512h30M270 512h30M165 513h30M270 513h30M165 514h30M270 514h30M165 515h30M270 515h30M165 516h30M270 516h30M165 517h30M270 517h30M165 518h30M270 518h30M165 519h30M270 519h30M165 520h30M270 520h30M165 521h30M270 521h30M165 522h30M270 522h30M165 523h30M270 523h30M165 524h30M270 524h30M165 525h30M270 525h30M165 526h30M270 526h30M165 527h30M270 527h30M165 528h30M270 528h30M165 529h30M270 529h30M165 530h30M270 530h30M165 531h30M270 531h30M165 532h30M270 532h30M165 533h30M270 533h30M165 534h30M270 534h30M165 535h30M270 535h30M165 536h30M270 536h30M165 537h30M270 537h30M165 538h30M270 538h30M165 539h30M270 539h30M165 540h30M270 540h30M165 541h30M270 541h30M165 542h30M270 542h30M165 543h30M270 543h30M165 544h30M270 544h30M165 545h30M270 545h30M165 546h30M270 546h30M165 547h30M270 547h30M165 548h30M270 548h30M165 549h30M270 549h30M165 550h30M270 550h30M165 551h30M270 551h30M165 552h30M270 552h30M165 553h30M270 553h30M165 554h30M270 554h30" />
<path stroke="#816044" d="M60 435h45M360 435h45M60 436h45M360 436h45M60 437h45M360 437h45M60 438h45M360 438h45M60 439h45M360 439h45M60 440h45M360 440h45M60 441h45M360 441h45M60 442h45M360 442h45M60 443h45M360 443h45M60 444h45M360 444h45M60 445h45M360 445h45M60 446h45M360 446h45M60 447h45M360 447h45M60 448h45M360 448h45M60 449h45M360 449h45" />
<path stroke="#0a0a0a" d="M165 555h30M270 555h30M165 556h30M270 556h30M165 557h30M270 557h30M165 558h30M270 558h30M165 559h30M270 559h30M165 560h30M270 560h30M165 561h30M270 561h30M165 562h30M270 562h30M165 563h30M270 563h30M165 564h30M270 564h30M165 565h30M270 565h30M165 566h30M270 566h30M165 567h30M270 567h30M165 568h30M270 568h30M165 569h30M270 569h30M150 570h15M195 570h15M255 570h15M300 570h15M150 571h15M195 571h15M255 571h15M300 571h15M150 572h15M195 572h15M255 572h15M300 572h15M150 573h15M195 573h15M255 573h15M300 573h15M150 574h15M195 574h15M255 574h15M300 574h15M150 575h15M195 575h15M255 575h15M300 575h15M150 576h15M195 576h15M255 576h15M300 576h15M150 577h15M195 577h15M255 577h15M300 577h15M150 578h15M195 578h15M255 578h15M300 578h15M150 579h15M195 579h15M255 579h15M300 579h15M150 580h15M195 580h15M255 580h15M300 580h15M150 581h15M195 581h15M255 581h15M300 581h15M150 582h15M195 582h15M255 582h15M300 582h15M150 583h15M195 583h15M255 583h15M300 583h15M150 584h15M195 584h15M255 584h15M300 584h15M150 585h45M210 585h15M255 585h45M315 585h15M150 586h45M210 586h15M255 586h45M315 586h15M150 587h45M210 587h15M255 587h45M315 587h15M150 588h45M210 588h15M255 588h45M315 588h15M150 589h45M210 589h15M255 589h45M315 589h15M150 590h45M210 590h15M255 590h45M315 590h15M150 591h45M210 591h15M255 591h45M315 591h15M150 592h45M210 592h15M255 592h45M315 592h15M150 593h45M210 593h15M255 593h45M315 593h15M150 594h45M210 594h15M255 594h45M315 594h15M150 595h45M210 595h15M255 595h45M315 595h15M150 596h45M210 596h15M255 596h45M315 596h15M150 597h45M210 597h15M255 597h45M315 597h15M150 598h45M210 598h15M255 598h45M315 598h15M150 599h45M210 599h15M255 599h45M315 599h15" />
<path stroke="#181818" d="M165 570h30M270 570h30M165 571h30M270 571h30M165 572h30M270 572h30M165 573h30M270 573h30M165 574h30M270 574h30M165 575h30M270 575h30M165 576h30M270 576h30M165 577h30M270 577h30M165 578h30M270 578h30M165 579h30M270 579h30M165 580h30M270 580h30M165 581h30M270 581h30M165 582h30M270 582h30M165 583h30M270 583h30M165 584h30M270 584h30M195 585h15M300 585h15M195 586h15M300 586h15M195 587h15M300 587h15M195 588h15M300 588h15M195 589h15M300 589h15M195 590h15M300 590h15M195 591h15M300 591h15M195 592h15M300 592h15M195 593h15M300 593h15M195 594h15M300 594h15M195 595h15M300 595h15M195 596h15M300 596h15M195 597h15M300 597h15M195 598h15M300 598h15M195 599h15M300 599h15" />
</svg>