<svg xmlns="http://www.w3.org/2000/svg" viewBox="0 0 105 105" style="shape-rendering: crispedges;"><path fill="#858585" d="M90 0h1v1h-1zM91 0h1v1h-1zM92 0h1v1h-1zM93 0h1v1h-1zM94 0h1v1h-1zM95 0h1v1h-1zM96 0h1v1h-1zM97 0h1v1h-1zM98 0h1v1h-1zM99 0h1v1h-1zM100 0h1v1h-1zM101 0h1v1h-1zM102 0h1v1h-1zM103 0h1v1h-1zM104 0h1v1h-1zM90 1h1v1h-1zM91 1h1v1h-1zM92 1h1v1h-1zM93 1h1v1h-1zM94 1h1v1h-1zM95 1h1v1h-1zM96 1h1v1h-1zM97 1h1v1h-1zM98 1h1v1h-1zM99 1h1v1h-1zM100 1h1v1h-1zM101 1h1v1h-1zM102 1h1v1h-1zM103 1h1v1h-1zM104 1h1v1h-1zM90 2h1v1h-1zM91 2h1v1h-1zM92 2h1v1h-1zM93 2h1v1h-1zM94 2h1v1h-1zM95 2h1v1h-1zM96 2h1v1h-1zM97 2h1v1h-1zM98 2h1v1h-1zM99 2h1v1h-1zM100 2h1v1h-1zM101 2h1v1h-1zM102 2h1v1h-1zM103 2h1v1h-1zM104 2h1v1h-1zM90 3h1v1h-1zM91 3h1v1h-1zM92 3h1v1h-1zM93 3h1v1h-1zM94 3h1v1h-1zM95 3h1v1h-1zM96 3h1v1h-1zM97 3h1v1h-1zM98 3h1v1h-1zM99 3h1v1h-1zM100 3h1v1h-1zM101 3h1v1h-1zM102 3h1v1h-1zM103 3h1v1h-1zM104 3h1v1h-1zM90 4h1v1h-1zM91 4h1v1h-1zM92 4h1v1h-1zM93 4h1v1h-1zM94 4h1v1h-1zM95 4h1v1h-1zM96 4h1v1h-1zM97 4h1v1h-1zM98 4h1v1h-1zM99 4h1v1h-1zM100 4h1v1h-1zM101 4h1v1h-1zM102 4h1v1h-1zM103 4h1v1h-1zM104 4h1v1h-1zM85 5h1v1h-1zM86 5h1v1h-1zM87 5h1v1h-1zM88 5h1v1h-1zM89 5h1v1h-1z"/><path fill="#BCBCBC" d="M90 5h1v1h-1zM91 5h1v1h-1zM92 5h1v1h-1zM93 5h1v1h-1zM94 5h1v1h-1z"/><path fill="#A7A7A7" d="M95 5h1v1h-1zM96 5h1v1h-1zM97 5h1v1h-1zM98 5h1v1h-1zM99 5h1v1h-1z"/><path fill="#858585" d="M100 5h1v1h-1zM101 5h1v1h-1zM102 5h1v1h-1zM103 5h1v1h-1zM104 5h1v1h-1zM85 6h1v1h-1zM86 6h1v1h-1zM87 6h1v1h-1zM88 6h1v1h-1zM89 6h1v1h-1z"/><path fill="#BCBCBC" d="M90 6h1v1h-1zM91 6h1v1h-1zM92 6h1v1h-1zM93 6h1v1h-1zM94 6h1v1h-1z"/><path fill="#A7A7A7" d="M95 6h1v1h-1zM96 6h1v1h-1zM97 6h1v1h-1zM98 6h1v1h-1zM99 6h1v1h-1z"/><path fill="#858585" d="M100 6h1v1h-1zM101 6h1v1h-1zM102 6h1v1h-1zM103 6h1v1h-1zM104 6h1v1h-1zM85 7h1v1h-1zM86 7h1v1h-1zM87 7h1v1h-1zM88 7h1v1h-1zM89 7h1v1h-1z"/><path fill="#BCBCBC" d="M90 7h1v1h-1zM91 7h1v1h-1zM92 7h1v1h-1zM93 7h1v1h-1zM94 7h1v1h-1z"/><path fill="#A7A7A7" d="M95 7h1v1h-1zM96 7h1v1h-1zM97 7h1v1h-1zM98 7h1v1h-1zM99 7h1v1h-1z"/><path fill="#858585" d="M100 7h1v1h-1zM101 7h1v1h-1zM102 7h1v1h-1zM103 7h1v1h-1zM104 7h1v1h-1zM85 8h1v1h-1zM86 8h1v1h-1zM87 8h1v1h-1zM88 8h1v1h-1zM89 8h1v1h-1z"/><path fill="#BCBCBC" d="M90 8h1v1h-1zM91 8h1v1h-1zM92 8h1v1h-1zM93 8h1v1h-1zM94 8h1v1h-1z"/><path fill="#A7A7A7" d="M95 8h1v1h-1zM96 8h1v1h-1zM97 8h1v1h-1zM98 8h1v1h-1zM99 8h1v1h-1z"/><path fill="#858585" d="M100 8h1v1h-1zM101 8h1v1h-1zM102 8h1v1h-1zM103 8h1v1h-1zM104 8h1v1h-1zM85 9h1v1h-1zM86 9h1v1h-1zM87 9h1v1h-1zM88 9h1v1h-1zM89 9h1v1h-1z"/><path fill="#BCBCBC" d="M90 9h1v1h-1zM91 9h1v1h-1zM92 9h1v1h-1zM93 9h1v1h-1zM94 9h1v1h-1z"/><path fill="#A7A7A7" d="M95 9h1v1h-1zM96 9h1v1h-1zM97 9h1v1h-1zM98 9h1v1h-1zM99 9h1v1h-1z"/><path fill="#858585" d="M100 9h1v1h-1zM101 9h1v1h-1zM102 9h1v1h-1zM103 9h1v1h-1zM104 9h1v1h-1zM80 10h1v1h-1zM81 10h1v1h-1zM82 10h1v1h-1zM83 10h1v1h-1zM84 10h1v1h-1z"/><path fill="#BCBCBC" d="M85 10h1v1h-1zM86 10h1v1h-1zM87 10h1v1h-1zM88 10h1v1h-1zM89 10h1v1h-1z"/><path fill="#A7A7A7" d="M90 10h1v1h-1zM91 10h1v1h-1zM92 10h1v1h-1zM93 10h1v1h-1zM94 10h1v1h-1z"/><path fill="#BCBCBC" d="M95 10h1v1h-1zM96 10h1v1h-1zM97 10h1v1h-1zM98 10h1v1h-1zM99 10h1v1h-1z"/><path fill="#858585" d="M100 10h1v1h-1zM101 10h1v1h-1zM102 10h1v1h-1zM103 10h1v1h-1zM104 10h1v1h-1zM80 11h1v1h-1zM81 11h1v1h-1zM82 11h1v1h-1zM83 11h1v1h-1zM84 11h1v1h-1z"/><path fill="#BCBCBC" d="M85 11h1v1h-1zM86 11h1v1h-1zM87 11h1v1h-1zM88 11h1v1h-1zM89 11h1v1h-1z"/><path fill="#A7A7A7" d="M90 11h1v1h-1zM91 11h1v1h-1zM92 11h1v1h-1zM93 11h1v1h-1zM94 11h1v1h-1z"/><path fill="#BCBCBC" d="M95 11h1v1h-1zM96 11h1v1h-1zM97 11h1v1h-1zM98 11h1v1h-1zM99 11h1v1h-1z"/><path fill="#858585" d="M100 11h1v1h-1zM101 11h1v1h-1zM102 11h1v1h-1zM103 11h1v1h-1zM104 11h1v1h-1zM80 12h1v1h-1zM81 12h1v1h-1zM82 12h1v1h-1zM83 12h1v1h-1zM84 12h1v1h-1z"/><path fill="#BCBCBC" d="M85 12h1v1h-1zM86 12h1v1h-1zM87 12h1v1h-1zM88 12h1v1h-1zM89 12h1v1h-1z"/><path fill="#A7A7A7" d="M90 12h1v1h-1zM91 12h1v1h-1zM92 12h1v1h-1zM93 12h1v1h-1zM94 12h1v1h-1z"/><path fill="#BCBCBC" d="M95 12h1v1h-1zM96 12h1v1h-1zM97 12h1v1h-1zM98 12h1v1h-1zM99 12h1v1h-1z"/><path fill="#858585" d="M100 12h1v1h-1zM101 12h1v1h-1zM102 12h1v1h-1zM103 12h1v1h-1zM104 12h1v1h-1zM80 13h1v1h-1zM81 13h1v1h-1zM82 13h1v1h-1zM83 13h1v1h-1zM84 13h1v1h-1z"/><path fill="#BCBCBC" d="M85 13h1v1h-1zM86 13h1v1h-1zM87 13h1v1h-1zM88 13h1v1h-1zM89 13h1v1h-1z"/><path fill="#A7A7A7" d="M90 13h1v1h-1zM91 13h1v1h-1zM92 13h1v1h-1zM93 13h1v1h-1zM94 13h1v1h-1z"/><path fill="#BCBCBC" d="M95 13h1v1h-1zM96 13h1v1h-1zM97 13h1v1h-1zM98 13h1v1h-1zM99 13h1v1h-1z"/><path fill="#858585" d="M100 13h1v1h-1zM101 13h1v1h-1zM102 13h1v1h-1zM103 13h1v1h-1zM104 13h1v1h-1zM80 14h1v1h-1zM81 14h1v1h-1zM82 14h1v1h-1zM83 14h1v1h-1zM84 14h1v1h-1z"/><path fill="#BCBCBC" d="M85 14h1v1h-1zM86 14h1v1h-1zM87 14h1v1h-1zM88 14h1v1h-1zM89 14h1v1h-1z"/><path fill="#A7A7A7" d="M90 14h1v1h-1zM91 14h1v1h-1zM92 14h1v1h-1zM93 14h1v1h-1zM94 14h1v1h-1z"/><path fill="#BCBCBC" d="M95 14h1v1h-1zM96 14h1v1h-1zM97 14h1v1h-1zM98 14h1v1h-1zM99 14h1v1h-1z"/><path fill="#858585" d="M100 14h1v1h-1zM101 14h1v1h-1zM102 14h1v1h-1zM103 14h1v1h-1zM104 14h1v1h-1zM75 15h1v1h-1zM76 15h1v1h-1zM77 15h1v1h-1zM78 15h1v1h-1zM79 15h1v1h-1z"/><path fill="#BCBCBC" d="M80 15h1v1h-1zM81 15h1v1h-1zM82 15h1v1h-1zM83 15h1v1h-1zM84 15h1v1h-1z"/><path fill="#A7A7A7" d="M85 15h1v1h-1zM86 15h1v1h-1zM87 15h1v1h-1zM88 15h1v1h-1zM89 15h1v1h-1z"/><path fill="#BCBCBC" d="M90 15h1v1h-1zM91 15h1v1h-1zM92 15h1v1h-1zM93 15h1v1h-1zM94 15h1v1h-1z"/><path fill="#858585" d="M95 15h1v1h-1zM96 15h1v1h-1zM97 15h1v1h-1zM98 15h1v1h-1zM99 15h1v1h-1zM75 16h1v1h-1zM76 16h1v1h-1zM77 16h1v1h-1zM78 16h1v1h-1zM79 16h1v1h-1z"/><path fill="#BCBCBC" d="M80 16h1v1h-1zM81 16h1v1h-1zM82 16h1v1h-1zM83 16h1v1h-1zM84 16h1v1h-1z"/><path fill="#A7A7A7" d="M85 16h1v1h-1zM86 16h1v1h-1zM87 16h1v1h-1zM88 16h1v1h-1zM89 16h1v1h-1z"/><path fill="#BCBCBC" d="M90 16h1v1h-1zM91 16h1v1h-1zM92 16h1v1h-1zM93 16h1v1h-1zM94 16h1v1h-1z"/><path fill="#858585" d="M95 16h1v1h-1zM96 16h1v1h-1zM97 16h1v1h-1zM98 16h1v1h-1zM99 16h1v1h-1zM75 17h1v1h-1zM76 17h1v1h-1zM77 17h1v1h-1zM78 17h1v1h-1zM79 17h1v1h-1z"/><path fill="#BCBCBC" d="M80 17h1v1h-1zM81 17h1v1h-1zM82 17h1v1h-1zM83 17h1v1h-1zM84 17h1v1h-1z"/><path fill="#A7A7A7" d="M85 17h1v1h-1zM86 17h1v1h-1zM87 17h1v1h-1zM88 17h1v1h-1zM89 17h1v1h-1z"/><path fill="#BCBCBC" d="M90 17h1v1h-1zM91 17h1v1h-1zM92 17h1v1h-1zM93 17h1v1h-1zM94 17h1v1h-1z"/><path fill="#858585" d="M95 17h1v1h-1zM96 17h1v1h-1zM97 17h1v1h-1zM98 17h1v1h-1zM99 17h1v1h-1zM75 18h1v1h-1zM76 18h1v1h-1zM77 18h1v1h-1zM78 18h1v1h-1zM79 18h1v1h-1z"/><path fill="#BCBCBC" d="M80 18h1v1h-1zM81 18h1v1h-1zM82 18h1v1h-1zM83 18h1v1h-1zM84 18h1v1h-1z"/><path fill="#A7A7A7" d="M85 18h1v1h-1zM86 18h1v1h-1zM87 18h1v1h-1zM88 18h1v1h-1zM89 18h1v1h-1z"/><path fill="#BCBCBC" d="M90 18h1v1h-1zM91 18h1v1h-1zM92 18h1v1h-1zM93 18h1v1h-1zM94 18h1v1h-1z"/><path fill="#858585" d="M95 18h1v1h-1zM96 18h1v1h-1zM97 18h1v1h-1zM98 18h1v1h-1zM99 18h1v1h-1zM75 19h1v1h-1zM76 19h1v1h-1zM77 19h1v1h-1zM78 19h1v1h-1zM79 19h1v1h-1z"/><path fill="#BCBCBC" d="M80 19h1v1h-1zM81 19h1v1h-1zM82 19h1v1h-1zM83 19h1v1h-1zM84 19h1v1h-1z"/><path fill="#A7A7A7" d="M85 19h1v1h-1zM86 19h1v1h-1zM87 19h1v1h-1zM88 19h1v1h-1zM89 19h1v1h-1z"/><path fill="#BCBCBC" d="M90 19h1v1h-1zM91 19h1v1h-1zM92 19h1v1h-1zM93 19h1v1h-1zM94 19h1v1h-1z"/><path fill="#858585" d="M95 19h1v1h-1zM96 19h1v1h-1zM97 19h1v1h-1zM98 19h1v1h-1zM99 19h1v1h-1zM70 20h1v1h-1zM71 20h1v1h-1zM72 20h1v1h-1zM73 20h1v1h-1zM74 20h1v1h-1z"/><path fill="#BCBCBC" d="M75 20h1v1h-1zM76 20h1v1h-1zM77 20h1v1h-1zM78 20h1v1h-1zM79 20h1v1h-1z"/><path fill="#A7A7A7" d="M80 20h1v1h-1zM81 20h1v1h-1zM82 20h1v1h-1zM83 20h1v1h-1zM84 20h1v1h-1z"/><path fill="#BCBCBC" d="M85 20h1v1h-1zM86 20h1v1h-1zM87 20h1v1h-1zM88 20h1v1h-1zM89 20h1v1h-1z"/><path fill="#858585" d="M90 20h1v1h-1zM91 20h1v1h-1zM92 20h1v1h-1zM93 20h1v1h-1zM94 20h1v1h-1zM70 21h1v1h-1zM71 21h1v1h-1zM72 21h1v1h-1zM73 21h1v1h-1zM74 21h1v1h-1z"/><path fill="#BCBCBC" d="M75 21h1v1h-1zM76 21h1v1h-1zM77 21h1v1h-1zM78 21h1v1h-1zM79 21h1v1h-1z"/><path fill="#A7A7A7" d="M80 21h1v1h-1zM81 21h1v1h-1zM82 21h1v1h-1zM83 21h1v1h-1zM84 21h1v1h-1z"/><path fill="#BCBCBC" d="M85 21h1v1h-1zM86 21h1v1h-1zM87 21h1v1h-1zM88 21h1v1h-1zM89 21h1v1h-1z"/><path fill="#858585" d="M90 21h1v1h-1zM91 21h1v1h-1zM92 21h1v1h-1zM93 21h1v1h-1zM94 21h1v1h-1zM70 22h1v1h-1zM71 22h1v1h-1zM72 22h1v1h-1zM73 22h1v1h-1zM74 22h1v1h-1z"/><path fill="#BCBCBC" d="M75 22h1v1h-1zM76 22h1v1h-1zM77 22h1v1h-1zM78 22h1v1h-1zM79 22h1v1h-1z"/><path fill="#A7A7A7" d="M80 22h1v1h-1zM81 22h1v1h-1zM82 22h1v1h-1zM83 22h1v1h-1zM84 22h1v1h-1z"/><path fill="#BCBCBC" d="M85 22h1v1h-1zM86 22h1v1h-1zM87 22h1v1h-1zM88 22h1v1h-1zM89 22h1v1h-1z"/><path fill="#858585" d="M90 22h1v1h-1zM91 22h1v1h-1zM92 22h1v1h-1zM93 22h1v1h-1zM94 22h1v1h-1zM70 23h1v1h-1zM71 23h1v1h-1zM72 23h1v1h-1zM73 23h1v1h-1zM74 23h1v1h-1z"/><path fill="#BCBCBC" d="M75 23h1v1h-1zM76 23h1v1h-1zM77 23h1v1h-1zM78 23h1v1h-1zM79 23h1v1h-1z"/><path fill="#A7A7A7" d="M80 23h1v1h-1zM81 23h1v1h-1zM82 23h1v1h-1zM83 23h1v1h-1zM84 23h1v1h-1z"/><path fill="#BCBCBC" d="M85 23h1v1h-1zM86 23h1v1h-1zM87 23h1v1h-1zM88 23h1v1h-1zM89 23h1v1h-1z"/><path fill="#858585" d="M90 23h1v1h-1zM91 23h1v1h-1zM92 23h1v1h-1zM93 23h1v1h-1zM94 23h1v1h-1zM70 24h1v1h-1zM71 24h1v1h-1zM72 24h1v1h-1zM73 24h1v1h-1zM74 24h1v1h-1z"/><path fill="#BCBCBC" d="M75 24h1v1h-1zM76 24h1v1h-1zM77 24h1v1h-1zM78 24h1v1h-1zM79 24h1v1h-1z"/><path fill="#A7A7A7" d="M80 24h1v1h-1zM81 24h1v1h-1zM82 24h1v1h-1zM83 24h1v1h-1zM84 24h1v1h-1z"/><path fill="#BCBCBC" d="M85 24h1v1h-1zM86 24h1v1h-1zM87 24h1v1h-1zM88 24h1v1h-1zM89 24h1v1h-1z"/><path fill="#858585" d="M90 24h1v1h-1zM91 24h1v1h-1zM92 24h1v1h-1zM93 24h1v1h-1zM94 24h1v1h-1zM65 25h1v1h-1zM66 25h1v1h-1zM67 25h1v1h-1zM68 25h1v1h-1zM69 25h1v1h-1z"/><path fill="#BCBCBC" d="M70 25h1v1h-1zM71 25h1v1h-1zM72 25h1v1h-1zM73 25h1v1h-1zM74 25h1v1h-1z"/><path fill="#A7A7A7" d="M75 25h1v1h-1zM76 25h1v1h-1zM77 25h1v1h-1zM78 25h1v1h-1zM79 25h1v1h-1z"/><path fill="#BCBCBC" d="M80 25h1v1h-1zM81 25h1v1h-1zM82 25h1v1h-1zM83 25h1v1h-1zM84 25h1v1h-1z"/><path fill="#858585" d="M85 25h1v1h-1zM86 25h1v1h-1zM87 25h1v1h-1zM88 25h1v1h-1zM89 25h1v1h-1zM65 26h1v1h-1zM66 26h1v1h-1zM67 26h1v1h-1zM68 26h1v1h-1zM69 26h1v1h-1z"/><path fill="#BCBCBC" d="M70 26h1v1h-1zM71 26h1v1h-1zM72 26h1v1h-1zM73 26h1v1h-1zM74 26h1v1h-1z"/><path fill="#A7A7A7" d="M75 26h1v1h-1zM76 26h1v1h-1zM77 26h1v1h-1zM78 26h1v1h-1zM79 26h1v1h-1z"/><path fill="#BCBCBC" d="M80 26h1v1h-1zM81 26h1v1h-1zM82 26h1v1h-1zM83 26h1v1h-1zM84 26h1v1h-1z"/><path fill="#858585" d="M85 26h1v1h-1zM86 26h1v1h-1zM87 26h1v1h-1zM88 26h1v1h-1zM89 26h1v1h-1zM65 27h1v1h-1zM66 27h1v1h-1zM67 27h1v1h-1zM68 27h1v1h-1zM69 27h1v1h-1z"/><path fill="#BCBCBC" d="M70 27h1v1h-1zM71 27h1v1h-1zM72 27h1v1h-1zM73 27h1v1h-1zM74 27h1v1h-1z"/><path fill="#A7A7A7" d="M75 27h1v1h-1zM76 27h1v1h-1zM77 27h1v1h-1zM78 27h1v1h-1zM79 27h1v1h-1z"/><path fill="#BCBCBC" d="M80 27h1v1h-1zM81 27h1v1h-1zM82 27h1v1h-1zM83 27h1v1h-1zM84 27h1v1h-1z"/><path fill="#858585" d="M85 27h1v1h-1zM86 27h1v1h-1zM87 27h1v1h-1zM88 27h1v1h-1zM89 27h1v1h-1zM65 28h1v1h-1zM66 28h1v1h-1zM67 28h1v1h-1zM68 28h1v1h-1zM69 28h1v1h-1z"/><path fill="#BCBCBC" d="M70 28h1v1h-1zM71 28h1v1h-1zM72 28h1v1h-1zM73 28h1v1h-1zM74 28h1v1h-1z"/><path fill="#A7A7A7" d="M75 28h1v1h-1zM76 28h1v1h-1zM77 28h1v1h-1zM78 28h1v1h-1zM79 28h1v1h-1z"/><path fill="#BCBCBC" d="M80 28h1v1h-1zM81 28h1v1h-1zM82 28h1v1h-1zM83 28h1v1h-1zM84 28h1v1h-1z"/><path fill="#858585" d="M85 28h1v1h-1zM86 28h1v1h-1zM87 28h1v1h-1zM88 28h1v1h-1zM89 28h1v1h-1zM65 29h1v1h-1zM66 29h1v1h-1zM67 29h1v1h-1zM68 29h1v1h-1zM69 29h1v1h-1z"/><path fill="#BCBCBC" d="M70 29h1v1h-1zM71 29h1v1h-1zM72 29h1v1h-1zM73 29h1v1h-1zM74 29h1v1h-1z"/><path fill="#A7A7A7" d="M75 29h1v1h-1zM76 29h1v1h-1zM77 29h1v1h-1zM78 29h1v1h-1zM79 29h1v1h-1z"/><path fill="#BCBCBC" d="M80 29h1v1h-1zM81 29h1v1h-1zM82 29h1v1h-1zM83 29h1v1h-1zM84 29h1v1h-1z"/><path fill="#858585" d="M85 29h1v1h-1zM86 29h1v1h-1zM87 29h1v1h-1zM88 29h1v1h-1zM89 29h1v1h-1zM60 30h1v1h-1zM61 30h1v1h-1zM62 30h1v1h-1zM63 30h1v1h-1zM64 30h1v1h-1z"/><path fill="#BCBCBC" d="M65 30h1v1h-1zM66 30h1v1h-1zM67 30h1v1h-1zM68 30h1v1h-1zM69 30h1v1h-1z"/><path fill="#A7A7A7" d="M70 30h1v1h-1zM71 30h1v1h-1zM72 30h1v1h-1zM73 30h1v1h-1zM74 30h1v1h-1z"/><path fill="#BCBCBC" d="M75 30h1v1h-1zM76 30h1v1h-1zM77 30h1v1h-1zM78 30h1v1h-1zM79 30h1v1h-1z"/><path fill="#858585" d="M80 30h1v1h-1zM81 30h1v1h-1zM82 30h1v1h-1zM83 30h1v1h-1zM84 30h1v1h-1zM60 31h1v1h-1zM61 31h1v1h-1zM62 31h1v1h-1zM63 31h1v1h-1zM64 31h1v1h-1z"/><path fill="#BCBCBC" d="M65 31h1v1h-1zM66 31h1v1h-1zM67 31h1v1h-1zM68 31h1v1h-1zM69 31h1v1h-1z"/><path fill="#A7A7A7" d="M70 31h1v1h-1zM71 31h1v1h-1zM72 31h1v1h-1zM73 31h1v1h-1zM74 31h1v1h-1z"/><path fill="#BCBCBC" d="M75 31h1v1h-1zM76 31h1v1h-1zM77 31h1v1h-1zM78 31h1v1h-1zM79 31h1v1h-1z"/><path fill="#858585" d="M80 31h1v1h-1zM81 31h1v1h-1zM82 31h1v1h-1zM83 31h1v1h-1zM84 31h1v1h-1zM60 32h1v1h-1zM61 32h1v1h-1zM62 32h1v1h-1zM63 32h1v1h-1zM64 32h1v1h-1z"/><path fill="#BCBCBC" d="M65 32h1v1h-1zM66 32h1v1h-1zM67 32h1v1h-1zM68 32h1v1h-1zM69 32h1v1h-1z"/><path fill="#A7A7A7" d="M70 32h1v1h-1zM71 32h1v1h-1zM72 32h1v1h-1zM73 32h1v1h-1zM74 32h1v1h-1z"/><path fill="#BCBCBC" d="M75 32h1v1h-1zM76 32h1v1h-1zM77 32h1v1h-1zM78 32h1v1h-1zM79 32h1v1h-1z"/><path fill="#858585" d="M80 32h1v1h-1zM81 32h1v1h-1zM82 32h1v1h-1zM83 32h1v1h-1zM84 32h1v1h-1zM60 33h1v1h-1zM61 33h1v1h-1zM62 33h1v1h-1zM63 33h1v1h-1zM64 33h1v1h-1z"/><path fill="#BCBCBC" d="M65 33h1v1h-1zM66 33h1v1h-1zM67 33h1v1h-1zM68 33h1v1h-1zM69 33h1v1h-1z"/><path fill="#A7A7A7" d="M70 33h1v1h-1zM71 33h1v1h-1zM72 33h1v1h-1zM73 33h1v1h-1zM74 33h1v1h-1z"/><path fill="#BCBCBC" d="M75 33h1v1h-1zM76 33h1v1h-1zM77 33h1v1h-1zM78 33h1v1h-1zM79 33h1v1h-1z"/><path fill="#858585" d="M80 33h1v1h-1zM81 33h1v1h-1zM82 33h1v1h-1zM83 33h1v1h-1zM84 33h1v1h-1zM60 34h1v1h-1zM61 34h1v1h-1zM62 34h1v1h-1zM63 34h1v1h-1zM64 34h1v1h-1z"/><path fill="#BCBCBC" d="M65 34h1v1h-1zM66 34h1v1h-1zM67 34h1v1h-1zM68 34h1v1h-1zM69 34h1v1h-1z"/><path fill="#A7A7A7" d="M70 34h1v1h-1zM71 34h1v1h-1zM72 34h1v1h-1zM73 34h1v1h-1zM74 34h1v1h-1z"/><path fill="#BCBCBC" d="M75 34h1v1h-1zM76 34h1v1h-1zM77 34h1v1h-1zM78 34h1v1h-1zM79 34h1v1h-1z"/><path fill="#858585" d="M80 34h1v1h-1zM81 34h1v1h-1zM82 34h1v1h-1zM83 34h1v1h-1zM84 34h1v1h-1zM55 35h1v1h-1zM56 35h1v1h-1zM57 35h1v1h-1zM58 35h1v1h-1zM59 35h1v1h-1z"/><path fill="#BCBCBC" d="M60 35h1v1h-1zM61 35h1v1h-1zM62 35h1v1h-1zM63 35h1v1h-1zM64 35h1v1h-1z"/><path fill="#A7A7A7" d="M65 35h1v1h-1zM66 35h1v1h-1zM67 35h1v1h-1zM68 35h1v1h-1zM69 35h1v1h-1z"/><path fill="#BCBCBC" d="M70 35h1v1h-1zM71 35h1v1h-1zM72 35h1v1h-1zM73 35h1v1h-1zM74 35h1v1h-1z"/><path fill="#858585" d="M75 35h1v1h-1zM76 35h1v1h-1zM77 35h1v1h-1zM78 35h1v1h-1zM79 35h1v1h-1zM55 36h1v1h-1zM56 36h1v1h-1zM57 36h1v1h-1zM58 36h1v1h-1zM59 36h1v1h-1z"/><path fill="#BCBCBC" d="M60 36h1v1h-1zM61 36h1v1h-1zM62 36h1v1h-1zM63 36h1v1h-1zM64 36h1v1h-1z"/><path fill="#A7A7A7" d="M65 36h1v1h-1zM66 36h1v1h-1zM67 36h1v1h-1zM68 36h1v1h-1zM69 36h1v1h-1z"/><path fill="#BCBCBC" d="M70 36h1v1h-1zM71 36h1v1h-1zM72 36h1v1h-1zM73 36h1v1h-1zM74 36h1v1h-1z"/><path fill="#858585" d="M75 36h1v1h-1zM76 36h1v1h-1zM77 36h1v1h-1zM78 36h1v1h-1zM79 36h1v1h-1zM55 37h1v1h-1zM56 37h1v1h-1zM57 37h1v1h-1zM58 37h1v1h-1zM59 37h1v1h-1z"/><path fill="#BCBCBC" d="M60 37h1v1h-1zM61 37h1v1h-1zM62 37h1v1h-1zM63 37h1v1h-1zM64 37h1v1h-1z"/><path fill="#A7A7A7" d="M65 37h1v1h-1zM66 37h1v1h-1zM67 37h1v1h-1zM68 37h1v1h-1zM69 37h1v1h-1z"/><path fill="#BCBCBC" d="M70 37h1v1h-1zM71 37h1v1h-1zM72 37h1v1h-1zM73 37h1v1h-1zM74 37h1v1h-1z"/><path fill="#858585" d="M75 37h1v1h-1zM76 37h1v1h-1zM77 37h1v1h-1zM78 37h1v1h-1zM79 37h1v1h-1zM55 38h1v1h-1zM56 38h1v1h-1zM57 38h1v1h-1zM58 38h1v1h-1zM59 38h1v1h-1z"/><path fill="#BCBCBC" d="M60 38h1v1h-1zM61 38h1v1h-1zM62 38h1v1h-1zM63 38h1v1h-1zM64 38h1v1h-1z"/><path fill="#A7A7A7" d="M65 38h1v1h-1zM66 38h1v1h-1zM67 38h1v1h-1zM68 38h1v1h-1zM69 38h1v1h-1z"/><path fill="#BCBCBC" d="M70 38h1v1h-1zM71 38h1v1h-1zM72 38h1v1h-1zM73 38h1v1h-1zM74 38h1v1h-1z"/><path fill="#858585" d="M75 38h1v1h-1zM76 38h1v1h-1zM77 38h1v1h-1zM78 38h1v1h-1zM79 38h1v1h-1zM55 39h1v1h-1zM56 39h1v1h-1zM57 39h1v1h-1zM58 39h1v1h-1zM59 39h1v1h-1z"/><path fill="#BCBCBC" d="M60 39h1v1h-1zM61 39h1v1h-1zM62 39h1v1h-1zM63 39h1v1h-1zM64 39h1v1h-1z"/><path fill="#A7A7A7" d="M65 39h1v1h-1zM66 39h1v1h-1zM67 39h1v1h-1zM68 39h1v1h-1zM69 39h1v1h-1z"/><path fill="#BCBCBC" d="M70 39h1v1h-1zM71 39h1v1h-1zM72 39h1v1h-1zM73 39h1v1h-1zM74 39h1v1h-1z"/><path fill="#858585" d="M75 39h1v1h-1zM76 39h1v1h-1zM77 39h1v1h-1zM78 39h1v1h-1zM79 39h1v1h-1zM50 40h1v1h-1zM51 40h1v1h-1zM52 40h1v1h-1zM53 40h1v1h-1zM54 40h1v1h-1z"/><path fill="#BCBCBC" d="M55 40h1v1h-1zM56 40h1v1h-1zM57 40h1v1h-1zM58 40h1v1h-1zM59 40h1v1h-1z"/><path fill="#A7A7A7" d="M60 40h1v1h-1zM61 40h1v1h-1zM62 40h1v1h-1zM63 40h1v1h-1zM64 40h1v1h-1z"/><path fill="#BCBCBC" d="M65 40h1v1h-1zM66 40h1v1h-1zM67 40h1v1h-1zM68 40h1v1h-1zM69 40h1v1h-1z"/><path fill="#858585" d="M70 40h1v1h-1zM71 40h1v1h-1zM72 40h1v1h-1zM73 40h1v1h-1zM74 40h1v1h-1zM50 41h1v1h-1zM51 41h1v1h-1zM52 41h1v1h-1zM53 41h1v1h-1zM54 41h1v1h-1z"/><path fill="#BCBCBC" d="M55 41h1v1h-1zM56 41h1v1h-1zM57 41h1v1h-1zM58 41h1v1h-1zM59 41h1v1h-1z"/><path fill="#A7A7A7" d="M60 41h1v1h-1zM61 41h1v1h-1zM62 41h1v1h-1zM63 41h1v1h-1zM64 41h1v1h-1z"/><path fill="#BCBCBC" d="M65 41h1v1h-1zM66 41h1v1h-1zM67 41h1v1h-1zM68 41h1v1h-1zM69 41h1v1h-1z"/><path fill="#858585" d="M70 41h1v1h-1zM71 41h1v1h-1zM72 41h1v1h-1zM73 41h1v1h-1zM74 41h1v1h-1zM50 42h1v1h-1zM51 42h1v1h-1zM52 42h1v1h-1zM53 42h1v1h-1zM54 42h1v1h-1z"/><path fill="#BCBCBC" d="M55 42h1v1h-1zM56 42h1v1h-1zM57 42h1v1h-1zM58 42h1v1h-1zM59 42h1v1h-1z"/><path fill="#A7A7A7" d="M60 42h1v1h-1zM61 42h1v1h-1zM62 42h1v1h-1zM63 42h1v1h-1zM64 42h1v1h-1z"/><path fill="#BCBCBC" d="M65 42h1v1h-1zM66 42h1v1h-1zM67 42h1v1h-1zM68 42h1v1h-1zM69 42h1v1h-1z"/><path fill="#858585" d="M70 42h1v1h-1zM71 42h1v1h-1zM72 42h1v1h-1zM73 42h1v1h-1zM74 42h1v1h-1zM50 43h1v1h-1zM51 43h1v1h-1zM52 43h1v1h-1zM53 43h1v1h-1zM54 43h1v1h-1z"/><path fill="#BCBCBC" d="M55 43h1v1h-1zM56 43h1v1h-1zM57 43h1v1h-1zM58 43h1v1h-1zM59 43h1v1h-1z"/><path fill="#A7A7A7" d="M60 43h1v1h-1zM61 43h1v1h-1zM62 43h1v1h-1zM63 43h1v1h-1zM64 43h1v1h-1z"/><path fill="#BCBCBC" d="M65 43h1v1h-1zM66 43h1v1h-1zM67 43h1v1h-1zM68 43h1v1h-1zM69 43h1v1h-1z"/><path fill="#858585" d="M70 43h1v1h-1zM71 43h1v1h-1zM72 43h1v1h-1zM73 43h1v1h-1zM74 43h1v1h-1zM50 44h1v1h-1zM51 44h1v1h-1zM52 44h1v1h-1zM53 44h1v1h-1zM54 44h1v1h-1z"/><path fill="#BCBCBC" d="M55 44h1v1h-1zM56 44h1v1h-1zM57 44h1v1h-1zM58 44h1v1h-1zM59 44h1v1h-1z"/><path fill="#A7A7A7" d="M60 44h1v1h-1zM61 44h1v1h-1zM62 44h1v1h-1zM63 44h1v1h-1zM64 44h1v1h-1z"/><path fill="#BCBCBC" d="M65 44h1v1h-1zM66 44h1v1h-1zM67 44h1v1h-1zM68 44h1v1h-1zM69 44h1v1h-1z"/><path fill="#858585" d="M70 44h1v1h-1zM71 44h1v1h-1zM72 44h1v1h-1zM73 44h1v1h-1zM74 44h1v1h-1zM45 45h1v1h-1zM46 45h1v1h-1zM47 45h1v1h-1zM48 45h1v1h-1zM49 45h1v1h-1z"/><path fill="#BCBCBC" d="M50 45h1v1h-1zM51 45h1v1h-1zM52 45h1v1h-1zM53 45h1v1h-1zM54 45h1v1h-1z"/><path fill="#A7A7A7" d="M55 45h1v1h-1zM56 45h1v1h-1zM57 45h1v1h-1zM58 45h1v1h-1zM59 45h1v1h-1z"/><path fill="#BCBCBC" d="M60 45h1v1h-1zM61 45h1v1h-1zM62 45h1v1h-1zM63 45h1v1h-1zM64 45h1v1h-1z"/><path fill="#858585" d="M65 45h1v1h-1zM66 45h1v1h-1zM67 45h1v1h-1zM68 45h1v1h-1zM69 45h1v1h-1zM45 46h1v1h-1zM46 46h1v1h-1zM47 46h1v1h-1zM48 46h1v1h-1zM49 46h1v1h-1z"/><path fill="#BCBCBC" d="M50 46h1v1h-1zM51 46h1v1h-1zM52 46h1v1h-1zM53 46h1v1h-1zM54 46h1v1h-1z"/><path fill="#A7A7A7" d="M55 46h1v1h-1zM56 46h1v1h-1zM57 46h1v1h-1zM58 46h1v1h-1zM59 46h1v1h-1z"/><path fill="#BCBCBC" d="M60 46h1v1h-1zM61 46h1v1h-1zM62 46h1v1h-1zM63 46h1v1h-1zM64 46h1v1h-1z"/><path fill="#858585" d="M65 46h1v1h-1zM66 46h1v1h-1zM67 46h1v1h-1zM68 46h1v1h-1zM69 46h1v1h-1zM45 47h1v1h-1zM46 47h1v1h-1zM47 47h1v1h-1zM48 47h1v1h-1zM49 47h1v1h-1z"/><path fill="#BCBCBC" d="M50 47h1v1h-1zM51 47h1v1h-1zM52 47h1v1h-1zM53 47h1v1h-1zM54 47h1v1h-1z"/><path fill="#A7A7A7" d="M55 47h1v1h-1zM56 47h1v1h-1zM57 47h1v1h-1zM58 47h1v1h-1zM59 47h1v1h-1z"/><path fill="#BCBCBC" d="M60 47h1v1h-1zM61 47h1v1h-1zM62 47h1v1h-1zM63 47h1v1h-1zM64 47h1v1h-1z"/><path fill="#858585" d="M65 47h1v1h-1zM66 47h1v1h-1zM67 47h1v1h-1zM68 47h1v1h-1zM69 47h1v1h-1zM45 48h1v1h-1zM46 48h1v1h-1zM47 48h1v1h-1zM48 48h1v1h-1zM49 48h1v1h-1z"/><path fill="#BCBCBC" d="M50 48h1v1h-1zM51 48h1v1h-1zM52 48h1v1h-1zM53 48h1v1h-1zM54 48h1v1h-1z"/><path fill="#A7A7A7" d="M55 48h1v1h-1zM56 48h1v1h-1zM57 48h1v1h-1zM58 48h1v1h-1zM59 48h1v1h-1z"/><path fill="#BCBCBC" d="M60 48h1v1h-1zM61 48h1v1h-1zM62 48h1v1h-1zM63 48h1v1h-1zM64 48h1v1h-1z"/><path fill="#858585" d="M65 48h1v1h-1zM66 48h1v1h-1zM67 48h1v1h-1zM68 48h1v1h-1zM69 48h1v1h-1zM45 49h1v1h-1zM46 49h1v1h-1zM47 49h1v1h-1zM48 49h1v1h-1zM49 49h1v1h-1z"/><path fill="#BCBCBC" d="M50 49h1v1h-1zM51 49h1v1h-1zM52 49h1v1h-1zM53 49h1v1h-1zM54 49h1v1h-1z"/><path fill="#A7A7A7" d="M55 49h1v1h-1zM56 49h1v1h-1zM57 49h1v1h-1zM58 49h1v1h-1zM59 49h1v1h-1z"/><path fill="#BCBCBC" d="M60 49h1v1h-1zM61 49h1v1h-1zM62 49h1v1h-1zM63 49h1v1h-1zM64 49h1v1h-1z"/><path fill="#858585" d="M65 49h1v1h-1zM66 49h1v1h-1zM67 49h1v1h-1zM68 49h1v1h-1zM69 49h1v1h-1z"/><path fill="#626055" d="M15 50h1v1h-1zM16 50h1v1h-1zM17 50h1v1h-1zM18 50h1v1h-1zM19 50h1v1h-1zM20 50h1v1h-1zM21 50h1v1h-1zM22 50h1v1h-1zM23 50h1v1h-1zM24 50h1v1h-1z"/><path fill="#858585" d="M40 50h1v1h-1zM41 50h1v1h-1zM42 50h1v1h-1zM43 50h1v1h-1zM44 50h1v1h-1z"/><path fill="#BCBCBC" d="M45 50h1v1h-1zM46 50h1v1h-1zM47 50h1v1h-1zM48 50h1v1h-1zM49 50h1v1h-1z"/><path fill="#A7A7A7" d="M50 50h1v1h-1zM51 50h1v1h-1zM52 50h1v1h-1zM53 50h1v1h-1zM54 50h1v1h-1z"/><path fill="#BCBCBC" d="M55 50h1v1h-1zM56 50h1v1h-1zM57 50h1v1h-1zM58 50h1v1h-1zM59 50h1v1h-1z"/><path fill="#858585" d="M60 50h1v1h-1zM61 50h1v1h-1zM62 50h1v1h-1zM63 50h1v1h-1zM64 50h1v1h-1z"/><path fill="#626055" d="M15 51h1v1h-1zM16 51h1v1h-1zM17 51h1v1h-1zM18 51h1v1h-1zM19 51h1v1h-1zM20 51h1v1h-1zM21 51h1v1h-1zM22 51h1v1h-1zM23 51h1v1h-1zM24 51h1v1h-1z"/><path fill="#858585" d="M40 51h1v1h-1zM41 51h1v1h-1zM42 51h1v1h-1zM43 51h1v1h-1zM44 51h1v1h-1z"/><path fill="#BCBCBC" d="M45 51h1v1h-1zM46 51h1v1h-1zM47 51h1v1h-1zM48 51h1v1h-1zM49 51h1v1h-1z"/><path fill="#A7A7A7" d="M50 51h1v1h-1zM51 51h1v1h-1zM52 51h1v1h-1zM53 51h1v1h-1zM54 51h1v1h-1z"/><path fill="#BCBCBC" d="M55 51h1v1h-1zM56 51h1v1h-1zM57 51h1v1h-1zM58 51h1v1h-1zM59 51h1v1h-1z"/><path fill="#858585" d="M60 51h1v1h-1zM61 51h1v1h-1zM62 51h1v1h-1zM63 51h1v1h-1zM64 51h1v1h-1z"/><path fill="#626055" d="M15 52h1v1h-1zM16 52h1v1h-1zM17 52h1v1h-1zM18 52h1v1h-1zM19 52h1v1h-1zM20 52h1v1h-1zM21 52h1v1h-1zM22 52h1v1h-1zM23 52h1v1h-1zM24 52h1v1h-1z"/><path fill="#858585" d="M40 52h1v1h-1zM41 52h1v1h-1zM42 52h1v1h-1zM43 52h1v1h-1zM44 52h1v1h-1z"/><path fill="#BCBCBC" d="M45 52h1v1h-1zM46 52h1v1h-1zM47 52h1v1h-1zM48 52h1v1h-1zM49 52h1v1h-1z"/><path fill="#A7A7A7" d="M50 52h1v1h-1zM51 52h1v1h-1zM52 52h1v1h-1zM53 52h1v1h-1zM54 52h1v1h-1z"/><path fill="#BCBCBC" d="M55 52h1v1h-1zM56 52h1v1h-1zM57 52h1v1h-1zM58 52h1v1h-1zM59 52h1v1h-1z"/><path fill="#858585" d="M60 52h1v1h-1zM61 52h1v1h-1zM62 52h1v1h-1zM63 52h1v1h-1zM64 52h1v1h-1z"/><path fill="#626055" d="M15 53h1v1h-1zM16 53h1v1h-1zM17 53h1v1h-1zM18 53h1v1h-1zM19 53h1v1h-1zM20 53h1v1h-1zM21 53h1v1h-1zM22 53h1v1h-1zM23 53h1v1h-1zM24 53h1v1h-1z"/><path fill="#858585" d="M40 53h1v1h-1zM41 53h1v1h-1zM42 53h1v1h-1zM43 53h1v1h-1zM44 53h1v1h-1z"/><path fill="#BCBCBC" d="M45 53h1v1h-1zM46 53h1v1h-1zM47 53h1v1h-1zM48 53h1v1h-1zM49 53h1v1h-1z"/><path fill="#A7A7A7" d="M50 53h1v1h-1zM51 53h1v1h-1zM52 53h1v1h-1zM53 53h1v1h-1zM54 53h1v1h-1z"/><path fill="#BCBCBC" d="M55 53h1v1h-1zM56 53h1v1h-1zM57 53h1v1h-1zM58 53h1v1h-1zM59 53h1v1h-1z"/><path fill="#858585" d="M60 53h1v1h-1zM61 53h1v1h-1zM62 53h1v1h-1zM63 53h1v1h-1zM64 53h1v1h-1z"/><path fill="#626055" d="M15 54h1v1h-1zM16 54h1v1h-1zM17 54h1v1h-1zM18 54h1v1h-1zM19 54h1v1h-1zM20 54h1v1h-1zM21 54h1v1h-1zM22 54h1v1h-1zM23 54h1v1h-1zM24 54h1v1h-1z"/><path fill="#858585" d="M40 54h1v1h-1zM41 54h1v1h-1zM42 54h1v1h-1zM43 54h1v1h-1zM44 54h1v1h-1z"/><path fill="#BCBCBC" d="M45 54h1v1h-1zM46 54h1v1h-1zM47 54h1v1h-1zM48 54h1v1h-1zM49 54h1v1h-1z"/><path fill="#A7A7A7" d="M50 54h1v1h-1zM51 54h1v1h-1zM52 54h1v1h-1zM53 54h1v1h-1zM54 54h1v1h-1z"/><path fill="#BCBCBC" d="M55 54h1v1h-1zM56 54h1v1h-1zM57 54h1v1h-1zM58 54h1v1h-1zM59 54h1v1h-1z"/><path fill="#858585" d="M60 54h1v1h-1zM61 54h1v1h-1zM62 54h1v1h-1zM63 54h1v1h-1zM64 54h1v1h-1z"/><path fill="#626055" d="M15 55h1v1h-1zM16 55h1v1h-1zM17 55h1v1h-1zM18 55h1v1h-1zM19 55h1v1h-1z"/><path fill="#CBBE03" d="M20 55h1v1h-1zM21 55h1v1h-1zM22 55h1v1h-1zM23 55h1v1h-1zM24 55h1v1h-1z"/><path fill="#858585" d="M35 55h1v1h-1zM36 55h1v1h-1zM37 55h1v1h-1zM38 55h1v1h-1zM39 55h1v1h-1z"/><path fill="#BCBCBC" d="M40 55h1v1h-1zM41 55h1v1h-1zM42 55h1v1h-1zM43 55h1v1h-1zM44 55h1v1h-1z"/><path fill="#A7A7A7" d="M45 55h1v1h-1zM46 55h1v1h-1zM47 55h1v1h-1zM48 55h1v1h-1zM49 55h1v1h-1z"/><path fill="#BCBCBC" d="M50 55h1v1h-1zM51 55h1v1h-1zM52 55h1v1h-1zM53 55h1v1h-1zM54 55h1v1h-1z"/><path fill="#858585" d="M55 55h1v1h-1zM56 55h1v1h-1zM57 55h1v1h-1zM58 55h1v1h-1zM59 55h1v1h-1z"/><path fill="#626055" d="M15 56h1v1h-1zM16 56h1v1h-1zM17 56h1v1h-1zM18 56h1v1h-1zM19 56h1v1h-1z"/><path fill="#CBBE03" d="M20 56h1v1h-1zM21 56h1v1h-1zM22 56h1v1h-1zM23 56h1v1h-1zM24 56h1v1h-1z"/><path fill="#858585" d="M35 56h1v1h-1zM36 56h1v1h-1zM37 56h1v1h-1zM38 56h1v1h-1zM39 56h1v1h-1z"/><path fill="#BCBCBC" d="M40 56h1v1h-1zM41 56h1v1h-1zM42 56h1v1h-1zM43 56h1v1h-1zM44 56h1v1h-1z"/><path fill="#A7A7A7" d="M45 56h1v1h-1zM46 56h1v1h-1zM47 56h1v1h-1zM48 56h1v1h-1zM49 56h1v1h-1z"/><path fill="#BCBCBC" d="M50 56h1v1h-1zM51 56h1v1h-1zM52 56h1v1h-1zM53 56h1v1h-1zM54 56h1v1h-1z"/><path fill="#858585" d="M55 56h1v1h-1zM56 56h1v1h-1zM57 56h1v1h-1zM58 56h1v1h-1zM59 56h1v1h-1z"/><path fill="#626055" d="M15 57h1v1h-1zM16 57h1v1h-1zM17 57h1v1h-1zM18 57h1v1h-1zM19 57h1v1h-1z"/><path fill="#CBBE03" d="M20 57h1v1h-1zM21 57h1v1h-1zM22 57h1v1h-1zM23 57h1v1h-1zM24 57h1v1h-1z"/><path fill="#858585" d="M35 57h1v1h-1zM36 57h1v1h-1zM37 57h1v1h-1zM38 57h1v1h-1zM39 57h1v1h-1z"/><path fill="#BCBCBC" d="M40 57h1v1h-1zM41 57h1v1h-1zM42 57h1v1h-1zM43 57h1v1h-1zM44 57h1v1h-1z"/><path fill="#A7A7A7" d="M45 57h1v1h-1zM46 57h1v1h-1zM47 57h1v1h-1zM48 57h1v1h-1zM49 57h1v1h-1z"/><path fill="#BCBCBC" d="M50 57h1v1h-1zM51 57h1v1h-1zM52 57h1v1h-1zM53 57h1v1h-1zM54 57h1v1h-1z"/><path fill="#858585" d="M55 57h1v1h-1zM56 57h1v1h-1zM57 57h1v1h-1zM58 57h1v1h-1zM59 57h1v1h-1z"/><path fill="#626055" d="M15 58h1v1h-1zM16 58h1v1h-1zM17 58h1v1h-1zM18 58h1v1h-1zM19 58h1v1h-1z"/><path fill="#CBBE03" d="M20 58h1v1h-1zM21 58h1v1h-1zM22 58h1v1h-1zM23 58h1v1h-1zM24 58h1v1h-1z"/><path fill="#858585" d="M35 58h1v1h-1zM36 58h1v1h-1zM37 58h1v1h-1zM38 58h1v1h-1zM39 58h1v1h-1z"/><path fill="#BCBCBC" d="M40 58h1v1h-1zM41 58h1v1h-1zM42 58h1v1h-1zM43 58h1v1h-1zM44 58h1v1h-1z"/><path fill="#A7A7A7" d="M45 58h1v1h-1zM46 58h1v1h-1zM47 58h1v1h-1zM48 58h1v1h-1zM49 58h1v1h-1z"/><path fill="#BCBCBC" d="M50 58h1v1h-1zM51 58h1v1h-1zM52 58h1v1h-1zM53 58h1v1h-1zM54 58h1v1h-1z"/><path fill="#858585" d="M55 58h1v1h-1zM56 58h1v1h-1zM57 58h1v1h-1zM58 58h1v1h-1zM59 58h1v1h-1z"/><path fill="#626055" d="M15 59h1v1h-1zM16 59h1v1h-1zM17 59h1v1h-1zM18 59h1v1h-1zM19 59h1v1h-1z"/><path fill="#CBBE03" d="M20 59h1v1h-1zM21 59h1v1h-1zM22 59h1v1h-1zM23 59h1v1h-1zM24 59h1v1h-1z"/><path fill="#858585" d="M35 59h1v1h-1zM36 59h1v1h-1zM37 59h1v1h-1zM38 59h1v1h-1zM39 59h1v1h-1z"/><path fill="#BCBCBC" d="M40 59h1v1h-1zM41 59h1v1h-1zM42 59h1v1h-1zM43 59h1v1h-1zM44 59h1v1h-1z"/><path fill="#A7A7A7" d="M45 59h1v1h-1zM46 59h1v1h-1zM47 59h1v1h-1zM48 59h1v1h-1zM49 59h1v1h-1z"/><path fill="#BCBCBC" d="M50 59h1v1h-1zM51 59h1v1h-1zM52 59h1v1h-1zM53 59h1v1h-1zM54 59h1v1h-1z"/><path fill="#858585" d="M55 59h1v1h-1zM56 59h1v1h-1zM57 59h1v1h-1zM58 59h1v1h-1zM59 59h1v1h-1z"/><path fill="#626055" d="M10 60h1v1h-1zM11 60h1v1h-1zM12 60h1v1h-1zM13 60h1v1h-1zM14 60h1v1h-1z"/><path fill="#CBBE03" d="M15 60h1v1h-1zM16 60h1v1h-1zM17 60h1v1h-1zM18 60h1v1h-1zM19 60h1v1h-1zM20 60h1v1h-1zM21 60h1v1h-1zM22 60h1v1h-1zM23 60h1v1h-1zM24 60h1v1h-1z"/><path fill="#626055" d="M25 60h1v1h-1zM26 60h1v1h-1zM27 60h1v1h-1zM28 60h1v1h-1zM29 60h1v1h-1z"/><path fill="#858585" d="M30 60h1v1h-1zM31 60h1v1h-1zM32 60h1v1h-1zM33 60h1v1h-1zM34 60h1v1h-1z"/><path fill="#BCBCBC" d="M35 60h1v1h-1zM36 60h1v1h-1zM37 60h1v1h-1zM38 60h1v1h-1zM39 60h1v1h-1z"/><path fill="#A7A7A7" d="M40 60h1v1h-1zM41 60h1v1h-1zM42 60h1v1h-1zM43 60h1v1h-1zM44 60h1v1h-1z"/><path fill="#BCBCBC" d="M45 60h1v1h-1zM46 60h1v1h-1zM47 60h1v1h-1zM48 60h1v1h-1zM49 60h1v1h-1z"/><path fill="#858585" d="M50 60h1v1h-1zM51 60h1v1h-1zM52 60h1v1h-1zM53 60h1v1h-1zM54 60h1v1h-1z"/><path fill="#626055" d="M10 61h1v1h-1zM11 61h1v1h-1zM12 61h1v1h-1zM13 61h1v1h-1zM14 61h1v1h-1z"/><path fill="#CBBE03" d="M15 61h1v1h-1zM16 61h1v1h-1zM17 61h1v1h-1zM18 61h1v1h-1zM19 61h1v1h-1zM20 61h1v1h-1zM21 61h1v1h-1zM22 61h1v1h-1zM23 61h1v1h-1zM24 61h1v1h-1z"/><path fill="#626055" d="M25 61h1v1h-1zM26 61h1v1h-1zM27 61h1v1h-1zM28 61h1v1h-1zM29 61h1v1h-1z"/><path fill="#858585" d="M30 61h1v1h-1zM31 61h1v1h-1zM32 61h1v1h-1zM33 61h1v1h-1zM34 61h1v1h-1z"/><path fill="#BCBCBC" d="M35 61h1v1h-1zM36 61h1v1h-1zM37 61h1v1h-1zM38 61h1v1h-1zM39 61h1v1h-1z"/><path fill="#A7A7A7" d="M40 61h1v1h-1zM41 61h1v1h-1zM42 61h1v1h-1zM43 61h1v1h-1zM44 61h1v1h-1z"/><path fill="#BCBCBC" d="M45 61h1v1h-1zM46 61h1v1h-1zM47 61h1v1h-1zM48 61h1v1h-1zM49 61h1v1h-1z"/><path fill="#858585" d="M50 61h1v1h-1zM51 61h1v1h-1zM52 61h1v1h-1zM53 61h1v1h-1zM54 61h1v1h-1z"/><path fill="#626055" d="M10 62h1v1h-1zM11 62h1v1h-1zM12 62h1v1h-1zM13 62h1v1h-1zM14 62h1v1h-1z"/><path fill="#CBBE03" d="M15 62h1v1h-1zM16 62h1v1h-1zM17 62h1v1h-1zM18 62h1v1h-1zM19 62h1v1h-1zM20 62h1v1h-1zM21 62h1v1h-1zM22 62h1v1h-1zM23 62h1v1h-1zM24 62h1v1h-1z"/><path fill="#626055" d="M25 62h1v1h-1zM26 62h1v1h-1zM27 62h1v1h-1zM28 62h1v1h-1zM29 62h1v1h-1z"/><path fill="#858585" d="M30 62h1v1h-1zM31 62h1v1h-1zM32 62h1v1h-1zM33 62h1v1h-1zM34 62h1v1h-1z"/><path fill="#BCBCBC" d="M35 62h1v1h-1zM36 62h1v1h-1zM37 62h1v1h-1zM38 62h1v1h-1zM39 62h1v1h-1z"/><path fill="#A7A7A7" d="M40 62h1v1h-1zM41 62h1v1h-1zM42 62h1v1h-1zM43 62h1v1h-1zM44 62h1v1h-1z"/><path fill="#BCBCBC" d="M45 62h1v1h-1zM46 62h1v1h-1zM47 62h1v1h-1zM48 62h1v1h-1zM49 62h1v1h-1z"/><path fill="#858585" d="M50 62h1v1h-1zM51 62h1v1h-1zM52 62h1v1h-1zM53 62h1v1h-1zM54 62h1v1h-1z"/><path fill="#626055" d="M10 63h1v1h-1zM11 63h1v1h-1zM12 63h1v1h-1zM13 63h1v1h-1zM14 63h1v1h-1z"/><path fill="#CBBE03" d="M15 63h1v1h-1zM16 63h1v1h-1zM17 63h1v1h-1zM18 63h1v1h-1zM19 63h1v1h-1zM20 63h1v1h-1zM21 63h1v1h-1zM22 63h1v1h-1zM23 63h1v1h-1zM24 63h1v1h-1z"/><path fill="#626055" d="M25 63h1v1h-1zM26 63h1v1h-1zM27 63h1v1h-1zM28 63h1v1h-1zM29 63h1v1h-1z"/><path fill="#858585" d="M30 63h1v1h-1zM31 63h1v1h-1zM32 63h1v1h-1zM33 63h1v1h-1zM34 63h1v1h-1z"/><path fill="#BCBCBC" d="M35 63h1v1h-1zM36 63h1v1h-1zM37 63h1v1h-1zM38 63h1v1h-1zM39 63h1v1h-1z"/><path fill="#A7A7A7" d="M40 63h1v1h-1zM41 63h1v1h-1zM42 63h1v1h-1zM43 63h1v1h-1zM44 63h1v1h-1z"/><path fill="#BCBCBC" d="M45 63h1v1h-1zM46 63h1v1h-1zM47 63h1v1h-1zM48 63h1v1h-1zM49 63h1v1h-1z"/><path fill="#858585" d="M50 63h1v1h-1zM51 63h1v1h-1zM52 63h1v1h-1zM53 63h1v1h-1zM54 63h1v1h-1z"/><path fill="#626055" d="M10 64h1v1h-1zM11 64h1v1h-1zM12 64h1v1h-1zM13 64h1v1h-1zM14 64h1v1h-1z"/><path fill="#CBBE03" d="M15 64h1v1h-1zM16 64h1v1h-1zM17 64h1v1h-1zM18 64h1v1h-1zM19 64h1v1h-1zM20 64h1v1h-1zM21 64h1v1h-1zM22 64h1v1h-1zM23 64h1v1h-1zM24 64h1v1h-1z"/><path fill="#626055" d="M25 64h1v1h-1zM26 64h1v1h-1zM27 64h1v1h-1zM28 64h1v1h-1zM29 64h1v1h-1z"/><path fill="#858585" d="M30 64h1v1h-1zM31 64h1v1h-1zM32 64h1v1h-1zM33 64h1v1h-1zM34 64h1v1h-1z"/><path fill="#BCBCBC" d="M35 64h1v1h-1zM36 64h1v1h-1zM37 64h1v1h-1zM38 64h1v1h-1zM39 64h1v1h-1z"/><path fill="#A7A7A7" d="M40 64h1v1h-1zM41 64h1v1h-1zM42 64h1v1h-1zM43 64h1v1h-1zM44 64h1v1h-1z"/><path fill="#BCBCBC" d="M45 64h1v1h-1zM46 64h1v1h-1zM47 64h1v1h-1zM48 64h1v1h-1zM49 64h1v1h-1z"/><path fill="#858585" d="M50 64h1v1h-1zM51 64h1v1h-1zM52 64h1v1h-1zM53 64h1v1h-1zM54 64h1v1h-1z"/><path fill="#626055" d="M15 65h1v1h-1zM16 65h1v1h-1zM17 65h1v1h-1zM18 65h1v1h-1zM19 65h1v1h-1z"/><path fill="#CBBE03" d="M20 65h1v1h-1zM21 65h1v1h-1zM22 65h1v1h-1zM23 65h1v1h-1zM24 65h1v1h-1z"/><path fill="#B9AD04" d="M25 65h1v1h-1zM26 65h1v1h-1zM27 65h1v1h-1zM28 65h1v1h-1zM29 65h1v1h-1z"/><path fill="#427CEF" d="M30 65h1v1h-1zM31 65h1v1h-1zM32 65h1v1h-1zM33 65h1v1h-1zM34 65h1v1h-1z"/><path fill="#A7A7A7" d="M35 65h1v1h-1zM36 65h1v1h-1zM37 65h1v1h-1zM38 65h1v1h-1zM39 65h1v1h-1z"/><path fill="#BCBCBC" d="M40 65h1v1h-1zM41 65h1v1h-1zM42 65h1v1h-1zM43 65h1v1h-1zM44 65h1v1h-1z"/><path fill="#858585" d="M45 65h1v1h-1zM46 65h1v1h-1zM47 65h1v1h-1zM48 65h1v1h-1zM49 65h1v1h-1z"/><path fill="#626055" d="M15 66h1v1h-1zM16 66h1v1h-1zM17 66h1v1h-1zM18 66h1v1h-1zM19 66h1v1h-1z"/><path fill="#CBBE03" d="M20 66h1v1h-1zM21 66h1v1h-1zM22 66h1v1h-1zM23 66h1v1h-1zM24 66h1v1h-1z"/><path fill="#B9AD04" d="M25 66h1v1h-1zM26 66h1v1h-1zM27 66h1v1h-1zM28 66h1v1h-1zM29 66h1v1h-1z"/><path fill="#427CEF" d="M30 66h1v1h-1zM31 66h1v1h-1zM32 66h1v1h-1zM33 66h1v1h-1zM34 66h1v1h-1z"/><path fill="#A7A7A7" d="M35 66h1v1h-1zM36 66h1v1h-1zM37 66h1v1h-1zM38 66h1v1h-1zM39 66h1v1h-1z"/><path fill="#BCBCBC" d="M40 66h1v1h-1zM41 66h1v1h-1zM42 66h1v1h-1zM43 66h1v1h-1zM44 66h1v1h-1z"/><path fill="#858585" d="M45 66h1v1h-1zM46 66h1v1h-1zM47 66h1v1h-1zM48 66h1v1h-1zM49 66h1v1h-1z"/><path fill="#626055" d="M15 67h1v1h-1zM16 67h1v1h-1zM17 67h1v1h-1zM18 67h1v1h-1zM19 67h1v1h-1z"/><path fill="#CBBE03" d="M20 67h1v1h-1zM21 67h1v1h-1zM22 67h1v1h-1zM23 67h1v1h-1zM24 67h1v1h-1z"/><path fill="#B9AD04" d="M25 67h1v1h-1zM26 67h1v1h-1zM27 67h1v1h-1zM28 67h1v1h-1zM29 67h1v1h-1z"/><path fill="#427CEF" d="M30 67h1v1h-1zM31 67h1v1h-1zM32 67h1v1h-1zM33 67h1v1h-1zM34 67h1v1h-1z"/><path fill="#A7A7A7" d="M35 67h1v1h-1zM36 67h1v1h-1zM37 67h1v1h-1zM38 67h1v1h-1zM39 67h1v1h-1z"/><path fill="#BCBCBC" d="M40 67h1v1h-1zM41 67h1v1h-1zM42 67h1v1h-1zM43 67h1v1h-1zM44 67h1v1h-1z"/><path fill="#858585" d="M45 67h1v1h-1zM46 67h1v1h-1zM47 67h1v1h-1zM48 67h1v1h-1zM49 67h1v1h-1z"/><path fill="#626055" d="M15 68h1v1h-1zM16 68h1v1h-1zM17 68h1v1h-1zM18 68h1v1h-1zM19 68h1v1h-1z"/><path fill="#CBBE03" d="M20 68h1v1h-1zM21 68h1v1h-1zM22 68h1v1h-1zM23 68h1v1h-1zM24 68h1v1h-1z"/><path fill="#B9AD04" d="M25 68h1v1h-1zM26 68h1v1h-1zM27 68h1v1h-1zM28 68h1v1h-1zM29 68h1v1h-1z"/><path fill="#427CEF" d="M30 68h1v1h-1zM31 68h1v1h-1zM32 68h1v1h-1zM33 68h1v1h-1zM34 68h1v1h-1z"/><path fill="#A7A7A7" d="M35 68h1v1h-1zM36 68h1v1h-1zM37 68h1v1h-1zM38 68h1v1h-1zM39 68h1v1h-1z"/><path fill="#BCBCBC" d="M40 68h1v1h-1zM41 68h1v1h-1zM42 68h1v1h-1zM43 68h1v1h-1zM44 68h1v1h-1z"/><path fill="#858585" d="M45 68h1v1h-1zM46 68h1v1h-1zM47 68h1v1h-1zM48 68h1v1h-1zM49 68h1v1h-1z"/><path fill="#626055" d="M15 69h1v1h-1zM16 69h1v1h-1zM17 69h1v1h-1zM18 69h1v1h-1zM19 69h1v1h-1z"/><path fill="#CBBE03" d="M20 69h1v1h-1zM21 69h1v1h-1zM22 69h1v1h-1zM23 69h1v1h-1zM24 69h1v1h-1z"/><path fill="#B9AD04" d="M25 69h1v1h-1zM26 69h1v1h-1zM27 69h1v1h-1zM28 69h1v1h-1zM29 69h1v1h-1z"/><path fill="#427CEF" d="M30 69h1v1h-1zM31 69h1v1h-1zM32 69h1v1h-1zM33 69h1v1h-1zM34 69h1v1h-1z"/><path fill="#A7A7A7" d="M35 69h1v1h-1zM36 69h1v1h-1zM37 69h1v1h-1zM38 69h1v1h-1zM39 69h1v1h-1z"/><path fill="#BCBCBC" d="M40 69h1v1h-1zM41 69h1v1h-1zM42 69h1v1h-1zM43 69h1v1h-1zM44 69h1v1h-1z"/><path fill="#858585" d="M45 69h1v1h-1zM46 69h1v1h-1zM47 69h1v1h-1zM48 69h1v1h-1zM49 69h1v1h-1z"/><path fill="#626055" d="M15 70h1v1h-1zM16 70h1v1h-1zM17 70h1v1h-1zM18 70h1v1h-1zM19 70h1v1h-1z"/><path fill="#CBBE03" d="M20 70h1v1h-1zM21 70h1v1h-1zM22 70h1v1h-1zM23 70h1v1h-1zM24 70h1v1h-1z"/><path fill="#B9AD04" d="M25 70h1v1h-1zM26 70h1v1h-1zM27 70h1v1h-1zM28 70h1v1h-1zM29 70h1v1h-1z"/><path fill="#3668CD" d="M30 70h1v1h-1zM31 70h1v1h-1zM32 70h1v1h-1zM33 70h1v1h-1zM34 70h1v1h-1z"/><path fill="#427CEF" d="M35 70h1v1h-1zM36 70h1v1h-1zM37 70h1v1h-1zM38 70h1v1h-1zM39 70h1v1h-1z"/><path fill="#858585" d="M40 70h1v1h-1zM41 70h1v1h-1zM42 70h1v1h-1zM43 70h1v1h-1zM44 70h1v1h-1z"/><path fill="#626055" d="M15 71h1v1h-1zM16 71h1v1h-1zM17 71h1v1h-1zM18 71h1v1h-1zM19 71h1v1h-1z"/><path fill="#CBBE03" d="M20 71h1v1h-1zM21 71h1v1h-1zM22 71h1v1h-1zM23 71h1v1h-1zM24 71h1v1h-1z"/><path fill="#B9AD04" d="M25 71h1v1h-1zM26 71h1v1h-1zM27 71h1v1h-1zM28 71h1v1h-1zM29 71h1v1h-1z"/><path fill="#3668CD" d="M30 71h1v1h-1zM31 71h1v1h-1zM32 71h1v1h-1zM33 71h1v1h-1zM34 71h1v1h-1z"/><path fill="#427CEF" d="M35 71h1v1h-1zM36 71h1v1h-1zM37 71h1v1h-1zM38 71h1v1h-1zM39 71h1v1h-1z"/><path fill="#858585" d="M40 71h1v1h-1zM41 71h1v1h-1zM42 71h1v1h-1zM43 71h1v1h-1zM44 71h1v1h-1z"/><path fill="#626055" d="M15 72h1v1h-1zM16 72h1v1h-1zM17 72h1v1h-1zM18 72h1v1h-1zM19 72h1v1h-1z"/><path fill="#CBBE03" d="M20 72h1v1h-1zM21 72h1v1h-1zM22 72h1v1h-1zM23 72h1v1h-1zM24 72h1v1h-1z"/><path fill="#B9AD04" d="M25 72h1v1h-1zM26 72h1v1h-1zM27 72h1v1h-1zM28 72h1v1h-1zM29 72h1v1h-1z"/><path fill="#3668CD" d="M30 72h1v1h-1zM31 72h1v1h-1zM32 72h1v1h-1zM33 72h1v1h-1zM34 72h1v1h-1z"/><path fill="#427CEF" d="M35 72h1v1h-1zM36 72h1v1h-1zM37 72h1v1h-1zM38 72h1v1h-1zM39 72h1v1h-1z"/><path fill="#858585" d="M40 72h1v1h-1zM41 72h1v1h-1zM42 72h1v1h-1zM43 72h1v1h-1zM44 72h1v1h-1z"/><path fill="#626055" d="M15 73h1v1h-1zM16 73h1v1h-1zM17 73h1v1h-1zM18 73h1v1h-1zM19 73h1v1h-1z"/><path fill="#CBBE03" d="M20 73h1v1h-1zM21 73h1v1h-1zM22 73h1v1h-1zM23 73h1v1h-1zM24 73h1v1h-1z"/><path fill="#B9AD04" d="M25 73h1v1h-1zM26 73h1v1h-1zM27 73h1v1h-1zM28 73h1v1h-1zM29 73h1v1h-1z"/><path fill="#3668CD" d="M30 73h1v1h-1zM31 73h1v1h-1zM32 73h1v1h-1zM33 73h1v1h-1zM34 73h1v1h-1z"/><path fill="#427CEF" d="M35 73h1v1h-1zM36 73h1v1h-1zM37 73h1v1h-1zM38 73h1v1h-1zM39 73h1v1h-1z"/><path fill="#858585" d="M40 73h1v1h-1zM41 73h1v1h-1zM42 73h1v1h-1zM43 73h1v1h-1zM44 73h1v1h-1z"/><path fill="#626055" d="M15 74h1v1h-1zM16 74h1v1h-1zM17 74h1v1h-1zM18 74h1v1h-1zM19 74h1v1h-1z"/><path fill="#CBBE03" d="M20 74h1v1h-1zM21 74h1v1h-1zM22 74h1v1h-1zM23 74h1v1h-1zM24 74h1v1h-1z"/><path fill="#B9AD04" d="M25 74h1v1h-1zM26 74h1v1h-1zM27 74h1v1h-1zM28 74h1v1h-1zM29 74h1v1h-1z"/><path fill="#3668CD" d="M30 74h1v1h-1zM31 74h1v1h-1zM32 74h1v1h-1zM33 74h1v1h-1zM34 74h1v1h-1z"/><path fill="#427CEF" d="M35 74h1v1h-1zM36 74h1v1h-1zM37 74h1v1h-1zM38 74h1v1h-1zM39 74h1v1h-1z"/><path fill="#858585" d="M40 74h1v1h-1zM41 74h1v1h-1zM42 74h1v1h-1zM43 74h1v1h-1zM44 74h1v1h-1z"/><path fill="#282828" d="M20 75h1v1h-1zM21 75h1v1h-1zM22 75h1v1h-1zM23 75h1v1h-1zM24 75h1v1h-1z"/><path fill="#B9AD04" d="M25 75h1v1h-1zM26 75h1v1h-1zM27 75h1v1h-1zM28 75h1v1h-1zM29 75h1v1h-1zM30 75h1v1h-1zM31 75h1v1h-1zM32 75h1v1h-1zM33 75h1v1h-1zM34 75h1v1h-1zM35 75h1v1h-1zM36 75h1v1h-1zM37 75h1v1h-1zM38 75h1v1h-1zM39 75h1v1h-1z"/><path fill="#626055" d="M40 75h1v1h-1zM41 75h1v1h-1zM42 75h1v1h-1zM43 75h1v1h-1zM44 75h1v1h-1z"/><path fill="#282828" d="M20 76h1v1h-1zM21 76h1v1h-1zM22 76h1v1h-1zM23 76h1v1h-1zM24 76h1v1h-1z"/><path fill="#B9AD04" d="M25 76h1v1h-1zM26 76h1v1h-1zM27 76h1v1h-1zM28 76h1v1h-1zM29 76h1v1h-1zM30 76h1v1h-1zM31 76h1v1h-1zM32 76h1v1h-1zM33 76h1v1h-1zM34 76h1v1h-1zM35 76h1v1h-1zM36 76h1v1h-1zM37 76h1v1h-1zM38 76h1v1h-1zM39 76h1v1h-1z"/><path fill="#626055" d="M40 76h1v1h-1zM41 76h1v1h-1zM42 76h1v1h-1zM43 76h1v1h-1zM44 76h1v1h-1z"/><path fill="#282828" d="M20 77h1v1h-1zM21 77h1v1h-1zM22 77h1v1h-1zM23 77h1v1h-1zM24 77h1v1h-1z"/><path fill="#B9AD04" d="M25 77h1v1h-1zM26 77h1v1h-1zM27 77h1v1h-1zM28 77h1v1h-1zM29 77h1v1h-1zM30 77h1v1h-1zM31 77h1v1h-1zM32 77h1v1h-1zM33 77h1v1h-1zM34 77h1v1h-1zM35 77h1v1h-1zM36 77h1v1h-1zM37 77h1v1h-1zM38 77h1v1h-1zM39 77h1v1h-1z"/><path fill="#626055" d="M40 77h1v1h-1zM41 77h1v1h-1zM42 77h1v1h-1zM43 77h1v1h-1zM44 77h1v1h-1z"/><path fill="#282828" d="M20 78h1v1h-1zM21 78h1v1h-1zM22 78h1v1h-1zM23 78h1v1h-1zM24 78h1v1h-1z"/><path fill="#B9AD04" d="M25 78h1v1h-1zM26 78h1v1h-1zM27 78h1v1h-1zM28 78h1v1h-1zM29 78h1v1h-1zM30 78h1v1h-1zM31 78h1v1h-1zM32 78h1v1h-1zM33 78h1v1h-1zM34 78h1v1h-1zM35 78h1v1h-1zM36 78h1v1h-1zM37 78h1v1h-1zM38 78h1v1h-1zM39 78h1v1h-1z"/><path fill="#626055" d="M40 78h1v1h-1zM41 78h1v1h-1zM42 78h1v1h-1zM43 78h1v1h-1zM44 78h1v1h-1z"/><path fill="#282828" d="M20 79h1v1h-1zM21 79h1v1h-1zM22 79h1v1h-1zM23 79h1v1h-1zM24 79h1v1h-1z"/><path fill="#B9AD04" d="M25 79h1v1h-1zM26 79h1v1h-1zM27 79h1v1h-1zM28 79h1v1h-1zM29 79h1v1h-1zM30 79h1v1h-1zM31 79h1v1h-1zM32 79h1v1h-1zM33 79h1v1h-1zM34 79h1v1h-1zM35 79h1v1h-1zM36 79h1v1h-1zM37 79h1v1h-1zM38 79h1v1h-1zM39 79h1v1h-1z"/><path fill="#626055" d="M40 79h1v1h-1zM41 79h1v1h-1zM42 79h1v1h-1zM43 79h1v1h-1zM44 79h1v1h-1z"/><path fill="#282828" d="M15 80h1v1h-1zM16 80h1v1h-1zM17 80h1v1h-1zM18 80h1v1h-1zM19 80h1v1h-1z"/><path fill="#3668CD" d="M20 80h1v1h-1zM21 80h1v1h-1zM22 80h1v1h-1zM23 80h1v1h-1zM24 80h1v1h-1z"/><path fill="#282828" d="M25 80h1v1h-1zM26 80h1v1h-1zM27 80h1v1h-1zM28 80h1v1h-1zM29 80h1v1h-1z"/><path fill="#CBBE03" d="M30 80h1v1h-1zM31 80h1v1h-1zM32 80h1v1h-1zM33 80h1v1h-1zM34 80h1v1h-1zM35 80h1v1h-1zM36 80h1v1h-1zM37 80h1v1h-1zM38 80h1v1h-1zM39 80h1v1h-1zM40 80h1v1h-1zM41 80h1v1h-1zM42 80h1v1h-1zM43 80h1v1h-1zM44 80h1v1h-1zM45 80h1v1h-1zM46 80h1v1h-1zM47 80h1v1h-1zM48 80h1v1h-1zM49 80h1v1h-1z"/><path fill="#626055" d="M50 80h1v1h-1zM51 80h1v1h-1zM52 80h1v1h-1zM53 80h1v1h-1zM54 80h1v1h-1z"/><path fill="#282828" d="M15 81h1v1h-1zM16 81h1v1h-1zM17 81h1v1h-1zM18 81h1v1h-1zM19 81h1v1h-1z"/><path fill="#3668CD" d="M20 81h1v1h-1zM21 81h1v1h-1zM22 81h1v1h-1zM23 81h1v1h-1zM24 81h1v1h-1z"/><path fill="#282828" d="M25 81h1v1h-1zM26 81h1v1h-1zM27 81h1v1h-1zM28 81h1v1h-1zM29 81h1v1h-1z"/><path fill="#CBBE03" d="M30 81h1v1h-1zM31 81h1v1h-1zM32 81h1v1h-1zM33 81h1v1h-1zM34 81h1v1h-1zM35 81h1v1h-1zM36 81h1v1h-1zM37 81h1v1h-1zM38 81h1v1h-1zM39 81h1v1h-1zM40 81h1v1h-1zM41 81h1v1h-1zM42 81h1v1h-1zM43 81h1v1h-1zM44 81h1v1h-1zM45 81h1v1h-1zM46 81h1v1h-1zM47 81h1v1h-1zM48 81h1v1h-1zM49 81h1v1h-1z"/><path fill="#626055" d="M50 81h1v1h-1zM51 81h1v1h-1zM52 81h1v1h-1zM53 81h1v1h-1zM54 81h1v1h-1z"/><path fill="#282828" d="M15 82h1v1h-1zM16 82h1v1h-1zM17 82h1v1h-1zM18 82h1v1h-1zM19 82h1v1h-1z"/><path fill="#3668CD" d="M20 82h1v1h-1zM21 82h1v1h-1zM22 82h1v1h-1zM23 82h1v1h-1zM24 82h1v1h-1z"/><path fill="#282828" d="M25 82h1v1h-1zM26 82h1v1h-1zM27 82h1v1h-1zM28 82h1v1h-1zM29 82h1v1h-1z"/><path fill="#CBBE03" d="M30 82h1v1h-1zM31 82h1v1h-1zM32 82h1v1h-1zM33 82h1v1h-1zM34 82h1v1h-1zM35 82h1v1h-1zM36 82h1v1h-1zM37 82h1v1h-1zM38 82h1v1h-1zM39 82h1v1h-1zM40 82h1v1h-1zM41 82h1v1h-1zM42 82h1v1h-1zM43 82h1v1h-1zM44 82h1v1h-1zM45 82h1v1h-1zM46 82h1v1h-1zM47 82h1v1h-1zM48 82h1v1h-1zM49 82h1v1h-1z"/><path fill="#626055" d="M50 82h1v1h-1zM51 82h1v1h-1zM52 82h1v1h-1zM53 82h1v1h-1zM54 82h1v1h-1z"/><path fill="#282828" d="M15 83h1v1h-1zM16 83h1v1h-1zM17 83h1v1h-1zM18 83h1v1h-1zM19 83h1v1h-1z"/><path fill="#3668CD" d="M20 83h1v1h-1zM21 83h1v1h-1zM22 83h1v1h-1zM23 83h1v1h-1zM24 83h1v1h-1z"/><path fill="#282828" d="M25 83h1v1h-1zM26 83h1v1h-1zM27 83h1v1h-1zM28 83h1v1h-1zM29 83h1v1h-1z"/><path fill="#CBBE03" d="M30 83h1v1h-1zM31 83h1v1h-1zM32 83h1v1h-1zM33 83h1v1h-1zM34 83h1v1h-1zM35 83h1v1h-1zM36 83h1v1h-1zM37 83h1v1h-1zM38 83h1v1h-1zM39 83h1v1h-1zM40 83h1v1h-1zM41 83h1v1h-1zM42 83h1v1h-1zM43 83h1v1h-1zM44 83h1v1h-1zM45 83h1v1h-1zM46 83h1v1h-1zM47 83h1v1h-1zM48 83h1v1h-1zM49 83h1v1h-1z"/><path fill="#626055" d="M50 83h1v1h-1zM51 83h1v1h-1zM52 83h1v1h-1zM53 83h1v1h-1zM54 83h1v1h-1z"/><path fill="#282828" d="M15 84h1v1h-1zM16 84h1v1h-1zM17 84h1v1h-1zM18 84h1v1h-1zM19 84h1v1h-1z"/><path fill="#3668CD" d="M20 84h1v1h-1zM21 84h1v1h-1zM22 84h1v1h-1zM23 84h1v1h-1zM24 84h1v1h-1z"/><path fill="#282828" d="M25 84h1v1h-1zM26 84h1v1h-1zM27 84h1v1h-1zM28 84h1v1h-1zM29 84h1v1h-1z"/><path fill="#CBBE03" d="M30 84h1v1h-1zM31 84h1v1h-1zM32 84h1v1h-1zM33 84h1v1h-1zM34 84h1v1h-1zM35 84h1v1h-1zM36 84h1v1h-1zM37 84h1v1h-1zM38 84h1v1h-1zM39 84h1v1h-1zM40 84h1v1h-1zM41 84h1v1h-1zM42 84h1v1h-1zM43 84h1v1h-1zM44 84h1v1h-1zM45 84h1v1h-1zM46 84h1v1h-1zM47 84h1v1h-1zM48 84h1v1h-1zM49 84h1v1h-1z"/><path fill="#626055" d="M50 84h1v1h-1zM51 84h1v1h-1zM52 84h1v1h-1zM53 84h1v1h-1zM54 84h1v1h-1z"/><path fill="#282828" d="M10 85h1v1h-1zM11 85h1v1h-1zM12 85h1v1h-1zM13 85h1v1h-1zM14 85h1v1h-1z"/><path fill="#3668CD" d="M15 85h1v1h-1zM16 85h1v1h-1zM17 85h1v1h-1zM18 85h1v1h-1zM19 85h1v1h-1z"/><path fill="#282828" d="M20 85h1v1h-1zM21 85h1v1h-1zM22 85h1v1h-1zM23 85h1v1h-1zM24 85h1v1h-1z"/><path fill="#626055" d="M30 85h1v1h-1zM31 85h1v1h-1zM32 85h1v1h-1zM33 85h1v1h-1zM34 85h1v1h-1zM35 85h1v1h-1zM36 85h1v1h-1zM37 85h1v1h-1zM38 85h1v1h-1zM39 85h1v1h-1z"/><path fill="#CBBE03" d="M40 85h1v1h-1zM41 85h1v1h-1zM42 85h1v1h-1zM43 85h1v1h-1zM44 85h1v1h-1z"/><path fill="#626055" d="M45 85h1v1h-1zM46 85h1v1h-1zM47 85h1v1h-1zM48 85h1v1h-1zM49 85h1v1h-1zM50 85h1v1h-1zM51 85h1v1h-1zM52 85h1v1h-1zM53 85h1v1h-1zM54 85h1v1h-1z"/><path fill="#282828" d="M10 86h1v1h-1zM11 86h1v1h-1zM12 86h1v1h-1zM13 86h1v1h-1zM14 86h1v1h-1z"/><path fill="#3668CD" d="M15 86h1v1h-1zM16 86h1v1h-1zM17 86h1v1h-1zM18 86h1v1h-1zM19 86h1v1h-1z"/><path fill="#282828" d="M20 86h1v1h-1zM21 86h1v1h-1zM22 86h1v1h-1zM23 86h1v1h-1zM24 86h1v1h-1z"/><path fill="#626055" d="M30 86h1v1h-1zM31 86h1v1h-1zM32 86h1v1h-1zM33 86h1v1h-1zM34 86h1v1h-1zM35 86h1v1h-1zM36 86h1v1h-1zM37 86h1v1h-1zM38 86h1v1h-1zM39 86h1v1h-1z"/><path fill="#CBBE03" d="M40 86h1v1h-1zM41 86h1v1h-1zM42 86h1v1h-1zM43 86h1v1h-1zM44 86h1v1h-1z"/><path fill="#626055" d="M45 86h1v1h-1zM46 86h1v1h-1zM47 86h1v1h-1zM48 86h1v1h-1zM49 86h1v1h-1zM50 86h1v1h-1zM51 86h1v1h-1zM52 86h1v1h-1zM53 86h1v1h-1zM54 86h1v1h-1z"/><path fill="#282828" d="M10 87h1v1h-1zM11 87h1v1h-1zM12 87h1v1h-1zM13 87h1v1h-1zM14 87h1v1h-1z"/><path fill="#3668CD" d="M15 87h1v1h-1zM16 87h1v1h-1zM17 87h1v1h-1zM18 87h1v1h-1zM19 87h1v1h-1z"/><path fill="#282828" d="M20 87h1v1h-1zM21 87h1v1h-1zM22 87h1v1h-1zM23 87h1v1h-1zM24 87h1v1h-1z"/><path fill="#626055" d="M30 87h1v1h-1zM31 87h1v1h-1zM32 87h1v1h-1zM33 87h1v1h-1zM34 87h1v1h-1zM35 87h1v1h-1zM36 87h1v1h-1zM37 87h1v1h-1zM38 87h1v1h-1zM39 87h1v1h-1z"/><path fill="#CBBE03" d="M40 87h1v1h-1zM41 87h1v1h-1zM42 87h1v1h-1zM43 87h1v1h-1zM44 87h1v1h-1z"/><path fill="#626055" d="M45 87h1v1h-1zM46 87h1v1h-1zM47 87h1v1h-1zM48 87h1v1h-1zM49 87h1v1h-1zM50 87h1v1h-1zM51 87h1v1h-1zM52 87h1v1h-1zM53 87h1v1h-1zM54 87h1v1h-1z"/><path fill="#282828" d="M10 88h1v1h-1zM11 88h1v1h-1zM12 88h1v1h-1zM13 88h1v1h-1zM14 88h1v1h-1z"/><path fill="#3668CD" d="M15 88h1v1h-1zM16 88h1v1h-1zM17 88h1v1h-1zM18 88h1v1h-1zM19 88h1v1h-1z"/><path fill="#282828" d="M20 88h1v1h-1zM21 88h1v1h-1zM22 88h1v1h-1zM23 88h1v1h-1zM24 88h1v1h-1z"/><path fill="#626055" d="M30 88h1v1h-1zM31 88h1v1h-1zM32 88h1v1h-1zM33 88h1v1h-1zM34 88h1v1h-1zM35 88h1v1h-1zM36 88h1v1h-1zM37 88h1v1h-1zM38 88h1v1h-1zM39 88h1v1h-1z"/><path fill="#CBBE03" d="M40 88h1v1h-1zM41 88h1v1h-1zM42 88h1v1h-1zM43 88h1v1h-1zM44 88h1v1h-1z"/><path fill="#626055" d="M45 88h1v1h-1zM46 88h1v1h-1zM47 88h1v1h-1zM48 88h1v1h-1zM49 88h1v1h-1zM50 88h1v1h-1zM51 88h1v1h-1zM52 88h1v1h-1zM53 88h1v1h-1zM54 88h1v1h-1z"/><path fill="#282828" d="M10 89h1v1h-1zM11 89h1v1h-1zM12 89h1v1h-1zM13 89h1v1h-1zM14 89h1v1h-1z"/><path fill="#3668CD" d="M15 89h1v1h-1zM16 89h1v1h-1zM17 89h1v1h-1zM18 89h1v1h-1zM19 89h1v1h-1z"/><path fill="#282828" d="M20 89h1v1h-1zM21 89h1v1h-1zM22 89h1v1h-1zM23 89h1v1h-1zM24 89h1v1h-1z"/><path fill="#626055" d="M30 89h1v1h-1zM31 89h1v1h-1zM32 89h1v1h-1zM33 89h1v1h-1zM34 89h1v1h-1zM35 89h1v1h-1zM36 89h1v1h-1zM37 89h1v1h-1zM38 89h1v1h-1zM39 89h1v1h-1z"/><path fill="#CBBE03" d="M40 89h1v1h-1zM41 89h1v1h-1zM42 89h1v1h-1zM43 89h1v1h-1zM44 89h1v1h-1z"/><path fill="#626055" d="M45 89h1v1h-1zM46 89h1v1h-1zM47 89h1v1h-1zM48 89h1v1h-1zM49 89h1v1h-1zM50 89h1v1h-1zM51 89h1v1h-1zM52 89h1v1h-1zM53 89h1v1h-1zM54 89h1v1h-1z"/><path fill="#282828" d="M5 90h1v1H5zM6 90h1v1H6zM7 90h1v1H7zM8 90h1v1H8zM9 90h1v1H9z"/><path fill="#3668CD" d="M10 90h1v1h-1zM11 90h1v1h-1zM12 90h1v1h-1zM13 90h1v1h-1zM14 90h1v1h-1z"/><path fill="#282828" d="M15 90h1v1h-1zM16 90h1v1h-1zM17 90h1v1h-1zM18 90h1v1h-1zM19 90h1v1h-1z"/><path fill="#626055" d="M40 90h1v1h-1zM41 90h1v1h-1zM42 90h1v1h-1zM43 90h1v1h-1zM44 90h1v1h-1z"/><path fill="#282828" d="M5 91h1v1H5zM6 91h1v1H6zM7 91h1v1H7zM8 91h1v1H8zM9 91h1v1H9z"/><path fill="#3668CD" d="M10 91h1v1h-1zM11 91h1v1h-1zM12 91h1v1h-1zM13 91h1v1h-1zM14 91h1v1h-1z"/><path fill="#282828" d="M15 91h1v1h-1zM16 91h1v1h-1zM17 91h1v1h-1zM18 91h1v1h-1zM19 91h1v1h-1z"/><path fill="#626055" d="M40 91h1v1h-1zM41 91h1v1h-1zM42 91h1v1h-1zM43 91h1v1h-1zM44 91h1v1h-1z"/><path fill="#282828" d="M5 92h1v1H5zM6 92h1v1H6zM7 92h1v1H7zM8 92h1v1H8zM9 92h1v1H9z"/><path fill="#3668CD" d="M10 92h1v1h-1zM11 92h1v1h-1zM12 92h1v1h-1zM13 92h1v1h-1zM14 92h1v1h-1z"/><path fill="#282828" d="M15 92h1v1h-1zM16 92h1v1h-1zM17 92h1v1h-1zM18 92h1v1h-1zM19 92h1v1h-1z"/><path fill="#626055" d="M40 92h1v1h-1zM41 92h1v1h-1zM42 92h1v1h-1zM43 92h1v1h-1zM44 92h1v1h-1z"/><path fill="#282828" d="M5 93h1v1H5zM6 93h1v1H6zM7 93h1v1H7zM8 93h1v1H8zM9 93h1v1H9z"/><path fill="#3668CD" d="M10 93h1v1h-1zM11 93h1v1h-1zM12 93h1v1h-1zM13 93h1v1h-1zM14 93h1v1h-1z"/><path fill="#282828" d="M15 93h1v1h-1zM16 93h1v1h-1zM17 93h1v1h-1zM18 93h1v1h-1zM19 93h1v1h-1z"/><path fill="#626055" d="M40 93h1v1h-1zM41 93h1v1h-1zM42 93h1v1h-1zM43 93h1v1h-1zM44 93h1v1h-1z"/><path fill="#282828" d="M5 94h1v1H5zM6 94h1v1H6zM7 94h1v1H7zM8 94h1v1H8zM9 94h1v1H9z"/><path fill="#3668CD" d="M10 94h1v1h-1zM11 94h1v1h-1zM12 94h1v1h-1zM13 94h1v1h-1zM14 94h1v1h-1z"/><path fill="#282828" d="M15 94h1v1h-1zM16 94h1v1h-1zM17 94h1v1h-1zM18 94h1v1h-1zM19 94h1v1h-1z"/><path fill="#626055" d="M40 94h1v1h-1zM41 94h1v1h-1zM42 94h1v1h-1zM43 94h1v1h-1zM44 94h1v1h-1z"/><path fill="#282828" d="M0 95h1v1H0zM1 95h1v1H1zM2 95h1v1H2zM3 95h1v1H3zM4 95h1v1H4z"/><path fill="#CBBE03" d="M5 95h1v1H5zM6 95h1v1H6zM7 95h1v1H7zM8 95h1v1H8zM9 95h1v1H9z"/><path fill="#282828" d="M10 95h1v1h-1zM11 95h1v1h-1zM12 95h1v1h-1zM13 95h1v1h-1zM14 95h1v1h-1zM0 96h1v1H0zM1 96h1v1H1zM2 96h1v1H2zM3 96h1v1H3zM4 96h1v1H4z"/><path fill="#CBBE03" d="M5 96h1v1H5zM6 96h1v1H6zM7 96h1v1H7zM8 96h1v1H8zM9 96h1v1H9z"/><path fill="#282828" d="M10 96h1v1h-1zM11 96h1v1h-1zM12 96h1v1h-1zM13 96h1v1h-1zM14 96h1v1h-1zM0 97h1v1H0zM1 97h1v1H1zM2 97h1v1H2zM3 97h1v1H3zM4 97h1v1H4z"/><path fill="#CBBE03" d="M5 97h1v1H5zM6 97h1v1H6zM7 97h1v1H7zM8 97h1v1H8zM9 97h1v1H9z"/><path fill="#282828" d="M10 97h1v1h-1zM11 97h1v1h-1zM12 97h1v1h-1zM13 97h1v1h-1zM14 97h1v1h-1zM0 98h1v1H0zM1 98h1v1H1zM2 98h1v1H2zM3 98h1v1H3zM4 98h1v1H4z"/><path fill="#CBBE03" d="M5 98h1v1H5zM6 98h1v1H6zM7 98h1v1H7zM8 98h1v1H8zM9 98h1v1H9z"/><path fill="#282828" d="M10 98h1v1h-1zM11 98h1v1h-1zM12 98h1v1h-1zM13 98h1v1h-1zM14 98h1v1h-1zM0 99h1v1H0zM1 99h1v1H1zM2 99h1v1H2zM3 99h1v1H3zM4 99h1v1H4z"/><path fill="#CBBE03" d="M5 99h1v1H5zM6 99h1v1H6zM7 99h1v1H7zM8 99h1v1H8zM9 99h1v1H9z"/><path fill="#282828" d="M10 99h1v1h-1zM11 99h1v1h-1zM12 99h1v1h-1zM13 99h1v1h-1zM14 99h1v1h-1zM0 100h1v1H0zM1 100h1v1H1zM2 100h1v1H2zM3 100h1v1H3zM4 100h1v1H4zM5 100h1v1H5zM6 100h1v1H6zM7 100h1v1H7zM8 100h1v1H8zM9 100h1v1H9zM0 101h1v1H0zM1 101h1v1H1zM2 101h1v1H2zM3 101h1v1H3zM4 101h1v1H4zM5 101h1v1H5zM6 101h1v1H6zM7 101h1v1H7zM8 101h1v1H8zM9 101h1v1H9zM0 102h1v1H0zM1 102h1v1H1zM2 102h1v1H2zM3 102h1v1H3zM4 102h1v1H4zM5 102h1v1H5zM6 102h1v1H6zM7 102h1v1H7zM8 102h1v1H8zM9 102h1v1H9zM0 103h1v1H0zM1 103h1v1H1zM2 103h1v1H2zM3 103h1v1H3zM4 103h1v1H4zM5 103h1v1H5zM6 103h1v1H6zM7 103h1v1H7zM8 103h1v1H8zM9 103h1v1H9zM0 104h1v1H0zM1 104h1v1H1zM2 104h1v1H2zM3 104h1v1H3zM4 104h1v1H4zM5 104h1v1H5zM6 104h1v1H6zM7 104h1v1H7zM8 104h1v1H8zM9 104h1v1H9z"/></svg>