<svg xmlns="http://www.w3.org/2000/svg" viewBox="0 -0.5 640 416" shape-rendering="crispEdges">
<metadata>Made with Pixels to Svg https://codepen.io/shshaw/pen/XbxvNj</metadata>
<path stroke="#000000" d="M192 0h256M192 1h256M192 2h256M192 3h256M192 4h256M192 5h256M192 6h256M192 7h256M192 8h256M192 9h256M192 10h256M192 11h256M192 12h256M192 13h256M192 14h256M192 15h256M192 16h256M192 17h256M192 18h256M192 19h256M192 20h256M192 21h256M192 22h256M192 23h256M192 24h256M192 25h256M192 26h256M192 27h256M192 28h256M192 29h256M192 30h256M192 31h256M128 32h64M448 32h64M128 33h64M448 33h64M128 34h64M448 34h64M128 35h64M448 35h64M128 36h64M448 36h64M128 37h64M448 37h64M128 38h64M448 38h64M128 39h64M448 39h64M128 40h64M448 40h64M128 41h64M448 41h64M128 42h64M448 42h64M128 43h64M448 43h64M128 44h64M448 44h64M128 45h64M448 45h64M128 46h64M448 46h64M128 47h64M448 47h64M128 48h64M448 48h64M128 49h64M448 49h64M128 50h64M448 50h64M128 51h64M448 51h64M128 52h64M448 52h64M128 53h64M448 53h64M128 54h64M448 54h64M128 55h64M448 55h64M128 56h64M448 56h64M128 57h64M448 57h64M128 58h64M448 58h64M128 59h64M448 59h64M128 60h64M448 60h64M128 61h64M448 61h64M128 62h64M448 62h64M128 63h64M448 63h64M96 64h32M512 64h32M96 65h32M512 65h32M96 66h32M512 66h32M96 67h32M512 67h32M96 68h32M512 68h32M96 69h32M512 69h32M96 70h32M512 70h32M96 71h32M512 71h32M96 72h32M512 72h32M96 73h32M512 73h32M96 74h32M512 74h32M96 75h32M512 75h32M96 76h32M512 76h32M96 77h32M512 77h32M96 78h32M512 78h32M96 79h32M512 79h32M96 80h32M512 80h32M96 81h32M512 81h32M96 82h32M512 82h32M96 83h32M512 83h32M96 84h32M512 84h32M96 85h32M512 85h32M96 86h32M512 86h32M96 87h32M512 87h32M96 88h32M512 88h32M96 89h32M512 89h32M96 90h32M512 90h32M96 91h32M512 91h32M96 92h32M512 92h32M96 93h32M512 93h32M96 94h32M512 94h32M96 95h32M512 95h32M64 96h32M544 96h32M64 97h32M544 97h32M64 98h32M544 98h32M64 99h32M544 99h32M64 100h32M544 100h32M64 101h32M544 101h32M64 102h32M544 102h32M64 103h32M544 103h32M64 104h32M544 104h32M64 105h32M544 105h32M64 106h32M544 106h32M64 107h32M544 107h32M64 108h32M544 108h32M64 109h32M544 109h32M64 110h32M544 110h32M64 111h32M544 111h32M64 112h32M544 112h32M64 113h32M544 113h32M64 114h32M544 114h32M64 115h32M544 115h32M64 116h32M544 116h32M64 117h32M544 117h32M64 118h32M544 118h32M64 119h32M544 119h32M64 120h32M544 120h32M64 121h32M544 121h32M64 122h32M544 122h32M64 123h32M544 123h32M64 124h32M544 124h32M64 125h32M544 125h32M64 126h32M544 126h32M64 127h32M544 127h32M32 128h32M576 128h32M32 129h32M576 129h32M32 130h32M576 130h32M32 131h32M576 131h32M32 132h32M576 132h32M32 133h32M576 133h32M32 134h32M576 134h32M32 135h32M576 135h32M32 136h32M576 136h32M32 137h32M576 137h32M32 138h32M576 138h32M32 139h32M576 139h32M32 140h32M576 140h32M32 141h32M576 141h32M32 142h32M576 142h32M32 143h32M576 143h32M32 144h32M576 144h32M32 145h32M576 145h32M32 146h32M576 146h32M32 147h32M576 147h32M32 148h32M576 148h32M32 149h32M576 149h32M32 150h32M576 150h32M32 151h32M576 151h32M32 152h32M576 152h32M32 153h32M576 153h32M32 154h32M576 154h32M32 155h32M576 155h32M32 156h32M576 156h32M32 157h32M576 157h32M32 158h32M576 158h32M32 159h32M576 159h32M32 160h32M96 160h32M224 160h32M576 160h32M32 161h32M96 161h32M224 161h32M576 161h32M32 162h32M96 162h32M224 162h32M576 162h32M32 163h32M96 163h32M224 163h32M576 163h32M32 164h32M96 164h32M224 164h32M576 164h32M32 165h32M96 165h32M224 165h32M576 165h32M32 166h32M96 166h32M224 166h32M576 166h32M32 167h32M96 167h32M224 167h32M576 167h32M32 168h32M96 168h32M224 168h32M576 168h32M32 169h32M96 169h32M224 169h32M576 169h32M32 170h32M96 170h32M224 170h32M576 170h32M32 171h32M96 171h32M224 171h32M576 171h32M32 172h32M96 172h32M224 172h32M576 172h32M32 173h32M96 173h32M224 173h32M576 173h32M32 174h32M96 174h32M224 174h32M576 174h32M32 175h32M96 175h32M224 175h32M576 175h32M32 176h32M96 176h32M224 176h32M576 176h32M32 177h32M96 177h32M224 177h32M576 177h32M32 178h32M96 178h32M224 178h32M576 178h32M32 179h32M96 179h32M224 179h32M576 179h32M32 180h32M96 180h32M224 180h32M576 180h32M32 181h32M96 181h32M224 181h32M576 181h32M32 182h32M96 182h32M224 182h32M576 182h32M32 183h32M96 183h32M224 183h32M576 183h32M32 184h32M96 184h32M224 184h32M576 184h32M32 185h32M96 185h32M224 185h32M576 185h32M32 186h32M96 186h32M224 186h32M576 186h32M32 187h32M96 187h32M224 187h32M576 187h32M32 188h32M96 188h32M224 188h32M576 188h32M32 189h32M96 189h32M224 189h32M576 189h32M32 190h32M96 190h32M224 190h32M576 190h32M32 191h32M96 191h32M224 191h32M576 191h32M0 192h32M64 192h64M192 192h64M608 192h32M0 193h32M64 193h64M192 193h64M608 193h32M0 194h32M64 194h64M192 194h64M608 194h32M0 195h32M64 195h64M192 195h64M608 195h32M0 196h32M64 196h64M192 196h64M608 196h32M0 197h32M64 197h64M192 197h64M608 197h32M0 198h32M64 198h64M192 198h64M608 198h32M0 199h32M64 199h64M192 199h64M608 199h32M0 200h32M64 200h64M192 200h64M608 200h32M0 201h32M64 201h64M192 201h64M608 201h32M0 202h32M64 202h64M192 202h64M608 202h32M0 203h32M64 203h64M192 203h64M608 203h32M0 204h32M64 204h64M192 204h64M608 204h32M0 205h32M64 205h64M192 205h64M608 205h32M0 206h32M64 206h64M192 206h64M608 206h32M0 207h32M64 207h64M192 207h64M608 207h32M0 208h32M64 208h64M192 208h64M608 208h32M0 209h32M64 209h64M192 209h64M608 209h32M0 210h32M64 210h64M192 210h64M608 210h32M0 211h32M64 211h64M192 211h64M608 211h32M0 212h32M64 212h64M192 212h64M608 212h32M0 213h32M64 213h64M192 213h64M608 213h32M0 214h32M64 214h64M192 214h64M608 214h32M0 215h32M64 215h64M192 215h64M608 215h32M0 216h32M64 216h64M192 216h64M608 216h32M0 217h32M64 217h64M192 217h64M608 217h32M0 218h32M64 218h64M192 218h64M608 218h32M0 219h32M64 219h64M192 219h64M608 219h32M0 220h32M64 220h64M192 220h64M608 220h32M0 221h32M64 221h64M192 221h64M608 221h32M0 222h32M64 222h64M192 222h64M608 222h32M0 223h32M64 223h64M192 223h64M608 223h32M0 224h32M608 224h32M0 225h32M608 225h32M0 226h32M608 226h32M0 227h32M608 227h32M0 228h32M608 228h32M0 229h32M608 229h32M0 230h32M608 230h32M0 231h32M608 231h32M0 232h32M608 232h32M0 233h32M608 233h32M0 234h32M608 234h32M0 235h32M608 235h32M0 236h32M608 236h32M0 237h32M608 237h32M0 238h32M608 238h32M0 239h32M608 239h32M0 240h32M608 240h32M0 241h32M608 241h32M0 242h32M608 242h32M0 243h32M608 243h32M0 244h32M608 244h32M0 245h32M608 245h32M0 246h32M608 246h32M0 247h32M608 247h32M0 248h32M608 248h32M0 249h32M608 249h32M0 250h32M608 250h32M0 251h32M608 251h32M0 252h32M608 252h32M0 253h32M608 253h32M0 254h32M608 254h32M0 255h32M608 255h32M0 256h32M608 256h32M0 257h32M608 257h32M0 258h32M608 258h32M0 259h32M608 259h32M0 260h32M608 260h32M0 261h32M608 261h32M0 262h32M608 262h32M0 263h32M608 263h32M0 264h32M608 264h32M0 265h32M608 265h32M0 266h32M608 266h32M0 267h32M608 267h32M0 268h32M608 268h32M0 269h32M608 269h32M0 270h32M608 270h32M0 271h32M608 271h32M0 272h32M608 272h32M0 273h32M608 273h32M0 274h32M608 274h32M0 275h32M608 275h32M0 276h32M608 276h32M0 277h32M608 277h32M0 278h32M608 278h32M0 279h32M608 279h32M0 280h32M608 280h32M0 281h32M608 281h32M0 282h32M608 282h32M0 283h32M608 283h32M0 284h32M608 284h32M0 285h32M608 285h32M0 286h32M608 286h32M0 287h32M608 287h32M0 288h32M608 288h32M0 289h32M608 289h32M0 290h32M608 290h32M0 291h32M608 291h32M0 292h32M608 292h32M0 293h32M608 293h32M0 294h32M608 294h32M0 295h32M608 295h32M0 296h32M608 296h32M0 297h32M608 297h32M0 298h32M608 298h32M0 299h32M608 299h32M0 300h32M608 300h32M0 301h32M608 301h32M0 302h32M608 302h32M0 303h32M608 303h32M0 304h32M608 304h32M0 305h32M608 305h32M0 306h32M608 306h32M0 307h32M608 307h32M0 308h32M608 308h32M0 309h32M608 309h32M0 310h32M608 310h32M0 311h32M608 311h32M0 312h32M608 312h32M0 313h32M608 313h32M0 314h32M608 314h32M0 315h32M608 315h32M0 316h32M608 316h32M0 317h32M608 317h32M0 318h32M608 318h32M0 319h32M608 319h32M0 320h32M608 320h32M0 321h32M608 321h32M0 322h32M608 322h32M0 323h32M608 323h32M0 324h32M608 324h32M0 325h32M608 325h32M0 326h32M608 326h32M0 327h32M608 327h32M0 328h32M608 328h32M0 329h32M608 329h32M0 330h32M608 330h32M0 331h32M608 331h32M0 332h32M608 332h32M0 333h32M608 333h32M0 334h32M608 334h32M0 335h32M608 335h32M0 336h32M608 336h32M0 337h32M608 337h32M0 338h32M608 338h32M0 339h32M608 339h32M0 340h32M608 340h32M0 341h32M608 341h32M0 342h32M608 342h32M0 343h32M608 343h32M0 344h32M608 344h32M0 345h32M608 345h32M0 346h32M608 346h32M0 347h32M608 347h32M0 348h32M608 348h32M0 349h32M608 349h32M0 350h32M608 350h32M0 351h32M608 351h32M32 352h32M576 352h32M32 353h32M576 353h32M32 354h32M576 354h32M32 355h32M576 355h32M32 356h32M576 356h32M32 357h32M576 357h32M32 358h32M576 358h32M32 359h32M576 359h32M32 360h32M576 360h32M32 361h32M576 361h32M32 362h32M576 362h32M32 363h32M576 363h32M32 364h32M576 364h32M32 365h32M576 365h32M32 366h32M576 366h32M32 367h32M576 367h32M32 368h32M576 368h32M32 369h32M576 369h32M32 370h32M576 370h32M32 371h32M576 371h32M32 372h32M576 372h32M32 373h32M576 373h32M32 374h32M576 374h32M32 375h32M576 375h32M32 376h32M576 376h32M32 377h32M576 377h32M32 378h32M576 378h32M32 379h32M576 379h32M32 380h32M576 380h32M32 381h32M576 381h32M32 382h32M576 382h32M32 383h32M576 383h32M64 384h512M64 385h512M64 386h512M64 387h512M64 388h512M64 389h512M64 390h512M64 391h512M64 392h512M64 393h512M64 394h512M64 395h512M64 396h512M64 397h512M64 398h512M64 399h512M64 400h512M64 401h512M64 402h512M64 403h512M64 404h512M64 405h512M64 406h512M64 407h512M64 408h512M64 409h512M64 410h512M64 411h512M64 412h512M64 413h512M64 414h512M64 415h512" />
<path stroke="#00ffff" d="M192 32h256M192 33h256M192 34h256M192 35h256M192 36h256M192 37h256M192 38h256M192 39h256M192 40h256M192 41h256M192 42h256M192 43h256M192 44h256M192 45h256M192 46h256M192 47h256M192 48h256M192 49h256M192 50h256M192 51h256M192 52h256M192 53h256M192 54h256M192 55h256M192 56h256M192 57h256M192 58h256M192 59h256M192 60h256M192 61h256M192 62h256M192 63h256M128 64h384M128 65h384M128 66h384M128 67h384M128 68h384M128 69h384M128 70h384M128 71h384M128 72h384M128 73h384M128 74h384M128 75h384M128 76h384M128 77h384M128 78h384M128 79h384M128 80h384M128 81h384M128 82h384M128 83h384M128 84h384M128 85h384M128 86h384M128 87h384M128 88h384M128 89h384M128 90h384M128 91h384M128 92h384M128 93h384M128 94h384M128 95h384M96 96h448M96 97h448M96 98h448M96 99h448M96 100h448M96 101h448M96 102h448M96 103h448M96 104h448M96 105h448M96 106h448M96 107h448M96 108h448M96 109h448M96 110h448M96 111h448M96 112h448M96 113h448M96 114h448M96 115h448M96 116h448M96 117h448M96 118h448M96 119h448M96 120h448M96 121h448M96 122h448M96 123h448M96 124h448M96 125h448M96 126h448M96 127h448M64 128h512M64 129h512M64 130h512M64 131h512M64 132h512M64 133h512M64 134h512M64 135h512M64 136h512M64 137h512M64 138h512M64 139h512M64 140h512M64 141h512M64 142h512M64 143h512M64 144h512M64 145h512M64 146h512M64 147h512M64 148h512M64 149h512M64 150h512M64 151h512M64 152h512M64 153h512M64 154h512M64 155h512M64 156h512M64 157h512M64 158h512M64 159h512M128 160h64M256 160h320M128 161h64M256 161h320M128 162h64M256 162h320M128 163h64M256 163h320M128 164h64M256 164h320M128 165h64M256 165h320M128 166h64M256 166h320M128 167h64M256 167h320M128 168h64M256 168h320M128 169h64M256 169h320M128 170h64M256 170h320M128 171h64M256 171h320M128 172h64M256 172h320M128 173h64M256 173h320M128 174h64M256 174h320M128 175h64M256 175h320M128 176h64M256 176h320M128 177h64M256 177h320M128 178h64M256 178h320M128 179h64M256 179h320M128 180h64M256 180h320M128 181h64M256 181h320M128 182h64M256 182h320M128 183h64M256 183h320M128 184h64M256 184h320M128 185h64M256 185h320M128 186h64M256 186h320M128 187h64M256 187h320M128 188h64M256 188h320M128 189h64M256 189h320M128 190h64M256 190h320M128 191h64M256 191h320M32 192h32M128 192h64M256 192h352M32 193h32M128 193h64M256 193h352M32 194h32M128 194h64M256 194h352M32 195h32M128 195h64M256 195h352M32 196h32M128 196h64M256 196h352M32 197h32M128 197h64M256 197h352M32 198h32M128 198h64M256 198h352M32 199h32M128 199h64M256 199h352M32 200h32M128 200h64M256 200h352M32 201h32M128 201h64M256 201h352M32 202h32M128 202h64M256 202h352M32 203h32M128 203h64M256 203h352M32 204h32M128 204h64M256 204h352M32 205h32M128 205h64M256 205h352M32 206h32M128 206h64M256 206h352M32 207h32M128 207h64M256 207h352M32 208h32M128 208h64M256 208h352M32 209h32M128 209h64M256 209h352M32 210h32M128 210h64M256 210h352M32 211h32M128 211h64M256 211h352M32 212h32M128 212h64M256 212h352M32 213h32M128 213h64M256 213h352M32 214h32M128 214h64M256 214h352M32 215h32M128 215h64M256 215h352M32 216h32M128 216h64M256 216h352M32 217h32M128 217h64M256 217h352M32 218h32M128 218h64M256 218h352M32 219h32M128 219h64M256 219h352M32 220h32M128 220h64M256 220h352M32 221h32M128 221h64M256 221h352M32 222h32M128 222h64M256 222h352M32 223h32M128 223h64M256 223h352M32 224h576M32 225h576M32 226h576M32 227h576M32 228h576M32 229h576M32 230h576M32 231h576M32 232h576M32 233h576M32 234h576M32 235h576M32 236h576M32 237h576M32 238h576M32 239h576M32 240h576M32 241h576M32 242h576M32 243h576M32 244h576M32 245h576M32 246h576M32 247h576M32 248h576M32 249h576M32 250h576M32 251h576M32 252h576M32 253h576M32 254h576M32 255h576M32 256h576M32 257h576M32 258h576M32 259h576M32 260h576M32 261h576M32 262h576M32 263h576M32 264h576M32 265h576M32 266h576M32 267h576M32 268h576M32 269h576M32 270h576M32 271h576M32 272h576M32 273h576M32 274h576M32 275h576M32 276h576M32 277h576M32 278h576M32 279h576M32 280h576M32 281h576M32 282h576M32 283h576M32 284h576M32 285h576M32 286h576M32 287h576M32 288h576M32 289h576M32 290h576M32 291h576M32 292h576M32 293h576M32 294h576M32 295h576M32 296h576M32 297h576M32 298h576M32 299h576M32 300h576M32 301h576M32 302h576M32 303h576M32 304h576M32 305h576M32 306h576M32 307h576M32 308h576M32 309h576M32 310h576M32 311h576M32 312h576M32 313h576M32 314h576M32 315h576M32 316h576M32 317h576M32 318h576M32 319h576M32 320h576M32 321h576M32 322h576M32 323h576M32 324h576M32 325h576M32 326h576M32 327h576M32 328h576M32 329h576M32 330h576M32 331h576M32 332h576M32 333h576M32 334h576M32 335h576M32 336h576M32 337h576M32 338h576M32 339h576M32 340h576M32 341h576M32 342h576M32 343h576M32 344h576M32 345h576M32 346h576M32 347h576M32 348h576M32 349h576M32 350h576M32 351h576M64 352h512M64 353h512M64 354h512M64 355h512M64 356h512M64 357h512M64 358h512M64 359h512M64 360h512M64 361h512M64 362h512M64 363h512M64 364h512M64 365h512M64 366h512M64 367h512M64 368h512M64 369h512M64 370h512M64 371h512M64 372h512M64 373h512M64 374h512M64 375h512M64 376h512M64 377h512M64 378h512M64 379h512M64 380h512M64 381h512M64 382h512M64 383h512" />
<path stroke="#ffffff" d="M64 160h32M192 160h32M64 161h32M192 161h32M64 162h32M192 162h32M64 163h32M192 163h32M64 164h32M192 164h32M64 165h32M192 165h32M64 166h32M192 166h32M64 167h32M192 167h32M64 168h32M192 168h32M64 169h32M192 169h32M64 170h32M192 170h32M64 171h32M192 171h32M64 172h32M192 172h32M64 173h32M192 173h32M64 174h32M192 174h32M64 175h32M192 175h32M64 176h32M192 176h32M64 177h32M192 177h32M64 178h32M192 178h32M64 179h32M192 179h32M64 180h32M192 180h32M64 181h32M192 181h32M64 182h32M192 182h32M64 183h32M192 183h32M64 184h32M192 184h32M64 185h32M192 185h32M64 186h32M192 186h32M64 187h32M192 187h32M64 188h32M192 188h32M64 189h32M192 189h32M64 190h32M192 190h32M64 191h32M192 191h32" />
</svg>